<svg width="12" height="15" viewBox="0 0 12 15" fill="none" xmlns="http://www.w3.org/2000/svg">
<path d="M2.66667 6.8335H4V8.16683H2.66667V6.8335ZM12 3.50016V12.8335C12 13.5668 11.4 14.1668 10.6667 14.1668H1.33333C0.593333 14.1668 0 13.5668 0 12.8335L0.00666666 3.50016C0.00666666 2.76683 0.593333 2.16683 1.33333 2.16683H2V0.833496H3.33333V2.16683H8.66667V0.833496H10V2.16683H10.6667C11.4 2.16683 12 2.76683 12 3.50016ZM1.33333 4.8335H10.6667V3.50016H1.33333V4.8335ZM10.6667 12.8335V6.16683H1.33333V12.8335H10.6667ZM8 8.16683H9.33333V6.8335H8V8.16683ZM5.33333 8.16683H6.66667V6.8335H5.33333V8.16683Z" fill="#9A9A9A"/>
</svg>
