<svg width="372" height="46" viewBox="0 0 372 46" fill="none" xmlns="http://www.w3.org/2000/svg">
<circle cx="21" cy="23" r="20" stroke="#F19B40" stroke-width="2"/>
<circle opacity="0.5" cx="21" cy="23" r="16.5" stroke="#F19B40"/>
<path fill-rule="evenodd" clip-rule="evenodd" d="M10.8031 27.7842L18.1667 22.3192L19.1586 23.4731L12.5202 29.7841L10.8031 27.7842ZM23.2712 15.7769C23.4256 15.2439 22.7659 14.3198 22.0314 15.0092C20.5154 14.755 21.4231 13.4152 20.9599 12.8725C19.7294 11.4203 15.3734 15.6156 16.5992 17.1069C17.0344 17.6349 18.3632 16.8673 18.4521 18.3586C17.9701 18.828 18.4614 19.6299 18.9808 19.6592L19.9352 20.7741L18.4942 22.0356L19.4627 23.1651L20.8102 21.796L21.8255 22.9793C21.7974 23.522 22.5086 24.1185 23.0045 23.6687C24.4176 23.9278 23.5379 25.2236 23.9918 25.7321C25.2785 27.1647 29.742 23.0966 28.4975 21.664C28.0296 21.1261 26.6587 21.9231 26.5838 20.3193C27.3184 19.6299 26.509 18.8427 25.9896 18.9454L23.2712 15.7769ZM9.2591 29.1338L10.4756 28.0727L12.2114 30.097L11.0745 31.2509C10.3539 32.0724 8.27655 29.8183 9.2591 29.1338Z" fill="#F19B40"/>
<path fill-rule="evenodd" clip-rule="evenodd" d="M22.4742 27.1428H31.5213C31.809 27.1428 32.0472 27.5377 32.0472 28.0168C32.0472 28.2304 32.0022 28.4182 31.9258 28.5735H32.618C32.8292 28.5735 33 28.8584 33 29.208V30.7941C33 31.1437 32.8292 31.4285 32.618 31.4285H21.382C21.1708 31.4285 21 31.1437 21 30.7941V29.208C21 28.8584 21.1708 28.5735 21.382 28.5735H22.0742C21.9978 28.4246 21.9528 28.2304 21.9528 28.0168C21.9528 27.5313 22.1865 27.1428 22.4742 27.1428Z" fill="#F19B40"/>
<path d="M60.93 8.258C62.484 8.258 63.842 8.566 65.004 9.182C66.18 9.798 67.083 10.666 67.713 11.786C68.343 12.892 68.658 14.173 68.658 15.629C68.658 17.071 68.343 18.352 67.713 19.472C67.083 20.592 66.18 21.46 65.004 22.076C63.842 22.692 62.484 23 60.93 23H55.407V17.12H54.084V14.138H55.407V8.258H60.93ZM60.72 19.934C62.064 19.934 63.114 19.556 63.87 18.8C64.626 18.044 65.004 16.987 65.004 15.629C65.004 14.271 64.626 13.214 63.87 12.458C63.114 11.702 62.064 11.324 60.72 11.324H59.019V14.138H62.211V17.12H59.019V19.934H60.72ZM79.8148 23L78.7279 19.4316H73.2626L72.1757 23H68.7509L74.0419 7.94727H77.9281L83.2396 23H79.8148ZM77.9691 16.7656C76.9642 13.5322 76.3969 11.7036 76.267 11.2798C76.1439 10.856 76.0551 10.521 76.0004 10.2749C75.7748 11.1499 75.1288 13.3135 74.0624 16.7656H77.9691ZM79.8251 6.80908H78.1639C77.3983 6.29639 76.6771 5.729 76.0004 5.10693C75.2211 5.79736 74.4999 6.36475 73.8368 6.80908H72.1757V6.53223C72.9413 5.64355 73.6762 4.68652 74.3803 3.66113H77.6102C77.9725 4.19434 78.3827 4.75488 78.8407 5.34277C79.3055 5.92383 79.6337 6.32031 79.8251 6.53223V6.80908ZM78.9125 4.54297C79.4935 3.9209 79.9652 3.23389 80.3275 2.48193H82.7987V2.69727C82.3407 3.30566 81.5648 4.00977 80.4711 4.80957H78.9125V4.54297ZM87.4499 8.258V17.078C87.4499 17.96 87.6669 18.639 88.1009 19.115C88.5349 19.591 89.1719 19.829 90.0119 19.829C90.8519 19.829 91.4959 19.591 91.9439 19.115C92.3919 18.639 92.6159 17.96 92.6159 17.078V8.258H96.2069V17.057C96.2069 18.373 95.9269 19.486 95.3669 20.396C94.8069 21.306 94.0509 21.992 93.0989 22.454C92.1609 22.916 91.1109 23.147 89.9489 23.147C88.7869 23.147 87.7439 22.923 86.8199 22.475C85.9099 22.013 85.1889 21.327 84.6569 20.417C84.1249 19.493 83.8589 18.373 83.8589 17.057V8.258H87.4499ZM111.705 12.92C111.439 12.43 111.054 12.059 110.55 11.807C110.06 11.541 109.479 11.408 108.807 11.408C107.645 11.408 106.714 11.793 106.014 12.563C105.314 13.319 104.964 14.334 104.964 15.608C104.964 16.966 105.328 18.03 106.056 18.8C106.798 19.556 107.813 19.934 109.101 19.934C109.983 19.934 110.725 19.71 111.327 19.262C111.943 18.814 112.391 18.17 112.671 17.33H108.114V14.684H115.926V18.023C115.66 18.919 115.205 19.752 114.561 20.522C113.931 21.292 113.126 21.915 112.146 22.391C111.166 22.867 110.06 23.105 108.828 23.105C107.372 23.105 106.07 22.79 104.922 22.16C103.788 21.516 102.899 20.627 102.255 19.493C101.625 18.359 101.31 17.064 101.31 15.608C101.31 14.152 101.625 12.857 102.255 11.723C102.899 10.575 103.788 9.686 104.922 9.056C106.056 8.412 107.351 8.09 108.807 8.09C110.571 8.09 112.055 8.517 113.259 9.371C114.477 10.225 115.282 11.408 115.674 12.92H111.705ZM120.876 8.258V23H117.285V8.258H120.876ZM132.025 20.396H126.523L125.641 23H121.882L127.216 8.258H131.374L136.708 23H132.907L132.025 20.396ZM131.101 17.624L129.274 12.227L127.468 17.624H131.101ZM131.731 5.297L126.67 7.418V4.94L131.731 2.504V5.297ZM152.127 8.258V11.135H148.221V23H144.63V11.135H140.724V8.258H152.127ZM160.817 23L157.751 17.435H156.89V23H153.299V8.258H159.326C160.488 8.258 161.475 8.461 162.287 8.867C163.113 9.273 163.729 9.833 164.135 10.547C164.541 11.247 164.744 12.031 164.744 12.899C164.744 13.879 164.464 14.754 163.904 15.524C163.358 16.294 162.546 16.84 161.468 17.162L164.87 23H160.817ZM156.89 14.894H159.116C159.774 14.894 160.264 14.733 160.586 14.411C160.922 14.089 161.09 13.634 161.09 13.046C161.09 12.486 160.922 12.045 160.586 11.723C160.264 11.401 159.774 11.24 159.116 11.24H156.89V14.894ZM179.155 8.00879V9.93652C179.661 9.75879 180.033 9.41357 180.273 8.90088C180.512 8.38818 180.632 7.76953 180.632 7.04492H183.718L183.862 7.27051C183.643 8.32324 183.349 9.13672 182.98 9.71094C182.617 10.2783 182.125 10.7397 181.503 11.0952C180.881 11.4438 180.098 11.6865 179.155 11.8232V17.709C179.155 18.8164 178.906 19.7871 178.407 20.6211C177.914 21.4551 177.2 22.0942 176.263 22.5386C175.327 22.9829 174.22 23.2051 172.941 23.2051C171.013 23.2051 169.516 22.7129 168.45 21.7285C167.384 20.7373 166.85 19.3838 166.85 17.668V8.00879H170.019V17.4321C170.019 18.4985 170.258 19.2847 170.737 19.7905C171.222 20.2896 171.984 20.5391 173.023 20.5391C174.062 20.5391 174.814 20.2793 175.279 19.7598C175.751 19.2334 175.987 18.4507 175.987 17.4116V8.00879H179.155ZM171.198 25.8813C171.198 24.856 171.765 24.3433 172.9 24.3433C174.035 24.3433 174.602 24.856 174.602 25.8813C174.602 26.3667 174.459 26.7427 174.172 27.0093C173.885 27.2759 173.461 27.4092 172.9 27.4092C171.765 27.4092 171.198 26.8999 171.198 25.8813ZM183.709 15.608C183.709 14.152 184.024 12.857 184.654 11.723C185.284 10.575 186.159 9.686 187.279 9.056C188.413 8.412 189.694 8.09 191.122 8.09C192.872 8.09 194.37 8.552 195.616 9.476C196.862 10.4 197.695 11.66 198.115 13.256H194.167C193.873 12.64 193.453 12.171 192.907 11.849C192.375 11.527 191.766 11.366 191.08 11.366C189.974 11.366 189.078 11.751 188.392 12.521C187.706 13.291 187.363 14.32 187.363 15.608C187.363 16.896 187.706 17.925 188.392 18.695C189.078 19.465 189.974 19.85 191.08 19.85C191.766 19.85 192.375 19.689 192.907 19.367C193.453 19.045 193.873 18.576 194.167 17.96H198.115C197.695 19.556 196.862 20.816 195.616 21.74C194.37 22.65 192.872 23.105 191.122 23.105C189.694 23.105 188.413 22.79 187.279 22.16C186.159 21.516 185.284 20.627 184.654 19.493C184.024 18.359 183.709 17.064 183.709 15.608ZM214.11 8.258V11.135H210.204V23H206.613V11.135H202.707V8.258H214.11ZM218.81 8.258V17.078C218.81 17.96 219.027 18.639 219.461 19.115C219.895 19.591 220.532 19.829 221.372 19.829C222.212 19.829 222.856 19.591 223.304 19.115C223.752 18.639 223.976 17.96 223.976 17.078V8.258H227.567V17.057C227.567 18.373 227.287 19.486 226.727 20.396C226.167 21.306 225.411 21.992 224.459 22.454C223.521 22.916 222.471 23.147 221.309 23.147C220.147 23.147 219.104 22.923 218.18 22.475C217.27 22.013 216.549 21.327 216.017 20.417C215.485 19.493 215.219 18.373 215.219 17.057V8.258H218.81ZM242.1 8.258L236.997 18.128V23H233.406V18.128L228.303 8.258H232.377L235.233 14.432L238.068 8.258H242.1ZM252.136 23H243.502V8.00879H252.136V10.6133H246.681V13.9048H251.756V16.5093H246.681V20.375H252.136V23ZM251.654 6.80908H249.993C249.227 6.29639 248.506 5.729 247.829 5.10693C247.05 5.79736 246.329 6.36475 245.666 6.80908H244.004V6.53223C244.77 5.64355 245.505 4.68652 246.209 3.66113H249.439C249.801 4.19434 250.212 4.75488 250.67 5.34277C251.134 5.92383 251.462 6.32031 251.654 6.53223V6.80908ZM250.741 4.54297C251.322 3.9209 251.794 3.23389 252.156 2.48193H254.628V2.69727C254.17 3.30566 253.394 4.00977 252.3 4.80957H250.741V4.54297ZM267.247 23H263.656L257.65 13.907V23H254.059V8.258H257.65L263.656 17.393V8.258H267.247V23Z" fill="#F19B40"/>
<path d="M59.868 32.612V33.308H57.54V41H56.7V33.308H54.36V32.612H59.868ZM62.0344 35.612C62.2184 35.204 62.4984 34.888 62.8744 34.664C63.2584 34.44 63.7264 34.328 64.2784 34.328V35.204H64.0504C63.4424 35.204 62.9544 35.368 62.5864 35.696C62.2184 36.024 62.0344 36.572 62.0344 37.34V41H61.1944V34.448H62.0344V35.612ZM71.218 34.448V41H70.378V39.848C70.186 40.256 69.89 40.568 69.49 40.784C69.09 41 68.642 41.108 68.146 41.108C67.362 41.108 66.722 40.868 66.226 40.388C65.73 39.9 65.482 39.196 65.482 38.276V34.448H66.31V38.18C66.31 38.892 66.486 39.436 66.838 39.812C67.198 40.188 67.686 40.376 68.302 40.376C68.934 40.376 69.438 40.176 69.814 39.776C70.19 39.376 70.378 38.788 70.378 38.012V34.448H71.218ZM76.2078 34.328C76.9918 34.328 77.6318 34.572 78.1278 35.06C78.6238 35.54 78.8718 36.24 78.8718 37.16V41H78.0438V37.256C78.0438 36.544 77.8638 36 77.5038 35.624C77.1518 35.248 76.6678 35.06 76.0518 35.06C75.4198 35.06 74.9158 35.26 74.5398 35.66C74.1638 36.06 73.9758 36.648 73.9758 37.424V41H73.1358V34.448H73.9758V35.564C74.1838 35.164 74.4838 34.86 74.8758 34.652C75.2678 34.436 75.7118 34.328 76.2078 34.328ZM83.4775 34.352C84.0935 34.352 84.6295 34.496 85.0855 34.784C85.5415 35.072 85.8695 35.436 86.0695 35.876V34.448H86.9095V41.168C86.9095 41.768 86.7775 42.3 86.5135 42.764C86.2575 43.228 85.8975 43.584 85.4335 43.832C84.9695 44.088 84.4415 44.216 83.8495 44.216C83.0095 44.216 82.3095 44.016 81.7495 43.616C81.1975 43.216 80.8535 42.672 80.7175 41.984H81.5455C81.6895 42.44 81.9615 42.804 82.3615 43.076C82.7695 43.348 83.2655 43.484 83.8495 43.484C84.2735 43.484 84.6535 43.392 84.9895 43.208C85.3255 43.032 85.5895 42.768 85.7815 42.416C85.9735 42.064 86.0695 41.648 86.0695 41.168V39.548C85.8615 39.996 85.5295 40.368 85.0735 40.664C84.6255 40.952 84.0935 41.096 83.4775 41.096C82.8775 41.096 82.3375 40.956 81.8575 40.676C81.3855 40.396 81.0135 40 80.7415 39.488C80.4775 38.976 80.3455 38.384 80.3455 37.712C80.3455 37.04 80.4775 36.452 80.7415 35.948C81.0135 35.436 81.3855 35.044 81.8575 34.772C82.3375 34.492 82.8775 34.352 83.4775 34.352ZM86.0695 37.724C86.0695 37.196 85.9615 36.732 85.7455 36.332C85.5295 35.932 85.2335 35.624 84.8575 35.408C84.4895 35.192 84.0815 35.084 83.6335 35.084C83.1695 35.084 82.7535 35.188 82.3855 35.396C82.0175 35.604 81.7255 35.908 81.5095 36.308C81.3015 36.7 81.1975 37.168 81.1975 37.712C81.1975 38.248 81.3015 38.72 81.5095 39.128C81.7255 39.528 82.0175 39.836 82.3855 40.052C82.7535 40.26 83.1695 40.364 83.6335 40.364C84.0815 40.364 84.4895 40.256 84.8575 40.04C85.2335 39.824 85.5295 39.516 85.7455 39.116C85.9615 38.716 86.0695 38.252 86.0695 37.724ZM93.2122 35.156V39.224C93.2122 39.624 93.2882 39.9 93.4402 40.052C93.5922 40.204 93.8602 40.28 94.2442 40.28H95.0122V41H94.1122C93.5202 41 93.0802 40.864 92.7922 40.592C92.5042 40.312 92.3602 39.856 92.3602 39.224V35.156H91.4482V34.448H92.3602V32.804H93.2122V34.448H95.0122V35.156H93.2122ZM96.0135 37.712C96.0135 37.04 96.1455 36.452 96.4095 35.948C96.6815 35.436 97.0535 35.044 97.5255 34.772C98.0055 34.492 98.5455 34.352 99.1455 34.352C99.7695 34.352 100.306 34.496 100.754 34.784C101.21 35.072 101.538 35.44 101.738 35.888V34.448H102.578V41H101.738V39.548C101.53 39.996 101.198 40.368 100.742 40.664C100.294 40.952 99.7575 41.096 99.1335 41.096C98.5415 41.096 98.0055 40.956 97.5255 40.676C97.0535 40.396 96.6815 40 96.4095 39.488C96.1455 38.976 96.0135 38.384 96.0135 37.712ZM101.738 37.724C101.738 37.196 101.63 36.732 101.414 36.332C101.198 35.932 100.902 35.624 100.526 35.408C100.158 35.192 99.7495 35.084 99.3015 35.084C98.8375 35.084 98.4215 35.188 98.0535 35.396C97.6855 35.604 97.3935 35.908 97.1775 36.308C96.9695 36.7 96.8655 37.168 96.8655 37.712C96.8655 38.248 96.9695 38.72 97.1775 39.128C97.3935 39.528 97.6855 39.836 98.0535 40.052C98.4215 40.26 98.8375 40.364 99.3015 40.364C99.7495 40.364 100.158 40.256 100.526 40.04C100.902 39.824 101.198 39.516 101.414 39.116C101.63 38.716 101.738 38.252 101.738 37.724ZM99.5055 32.744L97.8975 33.752V33.068L99.5055 32.084L101.114 33.068V33.752L99.5055 32.744ZM112.295 34.328C113.063 34.328 113.687 34.572 114.167 35.06C114.655 35.54 114.899 36.24 114.899 37.16V41H114.071V37.256C114.071 36.544 113.899 36 113.555 35.624C113.211 35.248 112.743 35.06 112.151 35.06C111.535 35.06 111.043 35.264 110.675 35.672C110.307 36.08 110.123 36.672 110.123 37.448V41H109.295V37.256C109.295 36.544 109.123 36 108.779 35.624C108.435 35.248 107.963 35.06 107.363 35.06C106.747 35.06 106.255 35.264 105.887 35.672C105.519 36.08 105.335 36.672 105.335 37.448V41H104.495V34.448H105.335V35.576C105.543 35.168 105.839 34.86 106.223 34.652C106.607 34.436 107.035 34.328 107.507 34.328C108.075 34.328 108.571 34.464 108.995 34.736C109.427 35.008 109.739 35.408 109.931 35.936C110.107 35.416 110.407 35.02 110.831 34.748C111.263 34.468 111.751 34.328 112.295 34.328ZM119.674 37.712C119.674 37.04 119.81 36.452 120.082 35.948C120.354 35.436 120.726 35.044 121.198 34.772C121.678 34.492 122.218 34.352 122.818 34.352C123.394 34.352 123.914 34.492 124.378 34.772C124.842 35.052 125.182 35.416 125.398 35.864V32.12H126.238V41H125.398V39.536C125.198 39.992 124.87 40.368 124.414 40.664C123.958 40.952 123.422 41.096 122.806 41.096C122.206 41.096 121.666 40.956 121.186 40.676C120.714 40.396 120.342 40 120.07 39.488C119.806 38.976 119.674 38.384 119.674 37.712ZM125.398 37.724C125.398 37.196 125.29 36.732 125.074 36.332C124.858 35.932 124.562 35.624 124.186 35.408C123.818 35.192 123.41 35.084 122.962 35.084C122.498 35.084 122.082 35.188 121.714 35.396C121.346 35.604 121.054 35.908 120.838 36.308C120.63 36.7 120.526 37.168 120.526 37.712C120.526 38.248 120.63 38.72 120.838 39.128C121.054 39.528 121.346 39.836 121.714 40.052C122.082 40.26 122.498 40.364 122.962 40.364C123.41 40.364 123.818 40.256 124.186 40.04C124.562 39.824 124.858 39.516 125.074 39.116C125.29 38.716 125.398 38.252 125.398 37.724ZM129.27 41H128.215V34.5664H129.27V41ZM128.133 32.8262C128.133 32.5918 128.191 32.4219 128.309 32.3164C128.43 32.2109 128.578 32.1582 128.754 32.1582C128.918 32.1582 129.061 32.2109 129.182 32.3164C129.307 32.4219 129.369 32.5918 129.369 32.8262C129.369 33.0566 129.307 33.2266 129.182 33.3359C129.061 33.4453 128.918 33.5 128.754 33.5C128.578 33.5 128.43 33.4453 128.309 33.3359C128.191 33.2266 128.133 33.0566 128.133 32.8262ZM128.104 42.4414C128.104 42.207 128.164 42.0352 128.285 41.9258C128.41 41.8203 128.559 41.7676 128.73 41.7676C128.898 41.7676 129.043 41.8203 129.164 41.9258C129.289 42.0352 129.352 42.207 129.352 42.4414C129.352 42.6484 129.293 42.8105 129.176 42.9277C129.062 43.0488 128.914 43.1094 128.73 43.1094C128.543 43.1094 128.391 43.0508 128.273 42.9336C128.16 42.8164 128.104 42.6523 128.104 42.4414ZM130.865 37.724C130.865 37.044 131.001 36.452 131.273 35.948C131.545 35.436 131.921 35.044 132.401 34.772C132.881 34.492 133.429 34.352 134.045 34.352C134.853 34.352 135.517 34.552 136.037 34.952C136.565 35.352 136.905 35.896 137.057 36.584H136.157C136.045 36.112 135.801 35.744 135.425 35.48C135.057 35.208 134.597 35.072 134.045 35.072C133.605 35.072 133.209 35.172 132.857 35.372C132.505 35.572 132.225 35.872 132.017 36.272C131.817 36.664 131.717 37.148 131.717 37.724C131.717 38.3 131.817 38.788 132.017 39.188C132.225 39.588 132.505 39.888 132.857 40.088C133.209 40.288 133.605 40.388 134.045 40.388C134.597 40.388 135.057 40.256 135.425 39.992C135.801 39.72 136.045 39.344 136.157 38.864H137.057C136.905 39.536 136.565 40.076 136.037 40.484C135.509 40.892 134.845 41.096 134.045 41.096C133.429 41.096 132.881 40.96 132.401 40.688C131.921 40.408 131.545 40.016 131.273 39.512C131.001 39 130.865 38.404 130.865 37.724ZM141.728 34.328C142.224 34.328 142.668 34.432 143.06 34.64C143.46 34.848 143.772 35.168 143.996 35.6C144.228 36.024 144.344 36.544 144.344 37.16V41H143.516V37.256C143.516 36.544 143.336 36 142.976 35.624C142.624 35.248 142.14 35.06 141.524 35.06C140.892 35.06 140.388 35.26 140.012 35.66C139.636 36.06 139.448 36.648 139.448 37.424V41H138.608V32.12H139.448V35.564C139.656 35.172 139.96 34.868 140.36 34.652C140.768 34.436 141.224 34.328 141.728 34.328ZM151.823 40.184L154.031 34.448H154.919L152.291 41H151.343L148.715 34.448H149.615L151.823 40.184ZM157.113 34.5664V38.709C157.113 39.2285 157.229 39.6152 157.459 39.8691C157.693 40.1191 158.055 40.2441 158.543 40.2441C159.203 40.2441 159.684 40.0605 159.984 39.6934C160.285 39.3262 160.436 38.7344 160.436 37.918V34.5664H161.496V41H160.629L160.477 40.1504H160.424C160.232 40.459 159.961 40.6973 159.609 40.8652C159.258 41.0332 158.85 41.1172 158.385 41.1172C157.611 41.1172 157.027 40.9316 156.633 40.5605C156.242 40.1895 156.047 39.5957 156.047 38.7793V34.5664H157.113ZM158.027 42.4414C158.027 42.207 158.088 42.0352 158.209 41.9258C158.334 41.8203 158.482 41.7676 158.654 41.7676C158.822 41.7676 158.967 41.8203 159.088 41.9258C159.213 42.0352 159.275 42.207 159.275 42.4414C159.275 42.6484 159.217 42.8105 159.1 42.9277C158.986 43.0488 158.838 43.1094 158.654 43.1094C158.467 43.1094 158.314 43.0508 158.197 42.9336C158.084 42.8164 158.027 42.6523 158.027 42.4414ZM173.705 33.584H172.949V41H172.109V39.536C171.909 39.992 171.581 40.368 171.125 40.664C170.669 40.952 170.133 41.096 169.517 41.096C168.917 41.096 168.377 40.956 167.897 40.676C167.425 40.396 167.053 40 166.781 39.488C166.517 38.976 166.385 38.384 166.385 37.712C166.385 37.04 166.521 36.452 166.793 35.948C167.065 35.436 167.437 35.044 167.909 34.772C168.389 34.492 168.929 34.352 169.529 34.352C170.105 34.352 170.625 34.492 171.089 34.772C171.553 35.052 171.893 35.416 172.109 35.864V33.584H170.429V33.056H172.109V32.12H172.949V33.056H173.705V33.584ZM169.673 40.364C170.121 40.364 170.529 40.256 170.897 40.04C171.273 39.824 171.569 39.516 171.785 39.116C172.001 38.716 172.109 38.252 172.109 37.724C172.109 37.196 172.001 36.732 171.785 36.332C171.569 35.932 171.273 35.624 170.897 35.408C170.529 35.192 170.121 35.084 169.673 35.084C169.209 35.084 168.793 35.188 168.425 35.396C168.057 35.604 167.765 35.908 167.549 36.308C167.341 36.7 167.237 37.168 167.237 37.712C167.237 38.248 167.341 38.72 167.549 39.128C167.765 39.528 168.057 39.836 168.425 40.052C168.793 40.26 169.209 40.364 169.673 40.364ZM178.852 41L178.646 40.0859H178.6C178.279 40.4883 177.959 40.7617 177.639 40.9062C177.322 41.0469 176.922 41.1172 176.438 41.1172C175.805 41.1172 175.309 40.9512 174.949 40.6191C174.59 40.2871 174.41 39.8184 174.41 39.2129C174.41 37.9082 175.439 37.2246 177.498 37.1621L178.588 37.1211V36.7402C178.588 36.252 178.482 35.8926 178.271 35.6621C178.061 35.4277 177.723 35.3105 177.258 35.3105C176.918 35.3105 176.596 35.3613 176.291 35.4629C175.99 35.5645 175.707 35.6777 175.441 35.8027L175.119 35.0117C175.443 34.8398 175.797 34.7051 176.18 34.6074C176.562 34.5098 176.941 34.4609 177.316 34.4609C178.094 34.4609 178.672 34.6328 179.051 34.9766C179.43 35.3203 179.619 35.8672 179.619 36.6172V41H178.852ZM176.678 40.2676C177.268 40.2676 177.73 40.1094 178.066 39.793C178.406 39.4727 178.576 39.0195 178.576 38.4336V37.8535L177.627 37.8945C176.889 37.9219 176.35 38.0391 176.01 38.2461C175.674 38.4531 175.506 38.7793 175.506 39.2246C175.506 39.5605 175.607 39.8184 175.811 39.998C176.018 40.1777 176.307 40.2676 176.678 40.2676ZM179.021 33.7285H178.436C177.998 33.4355 177.586 33.1113 177.199 32.7559C176.754 33.1504 176.342 33.4746 175.963 33.7285H175.371V33.582C175.57 33.3555 175.785 33.1113 176.016 32.8496C176.25 32.584 176.461 32.3164 176.648 32.0469H177.75C178.027 32.4492 178.451 32.9609 179.021 33.582V33.7285ZM178.553 32.4453C178.838 32.0898 179.086 31.6934 179.297 31.2559H180.352V31.3789C180.035 31.8008 179.637 32.2031 179.156 32.5859H178.553V32.4453ZM187.234 34.448V41H186.394V39.848C186.202 40.256 185.906 40.568 185.506 40.784C185.106 41 184.658 41.108 184.162 41.108C183.378 41.108 182.738 40.868 182.242 40.388C181.746 39.9 181.498 39.196 181.498 38.276V34.448H182.326V38.18C182.326 38.892 182.502 39.436 182.854 39.812C183.214 40.188 183.702 40.376 184.318 40.376C184.95 40.376 185.454 40.176 185.83 39.776C186.206 39.376 186.394 38.788 186.394 38.012V34.448H187.234ZM195.192 34.352C195.808 34.352 196.344 34.496 196.8 34.784C197.256 35.072 197.584 35.436 197.784 35.876V34.448H198.624V41.168C198.624 41.768 198.492 42.3 198.228 42.764C197.972 43.228 197.612 43.584 197.148 43.832C196.684 44.088 196.156 44.216 195.564 44.216C194.724 44.216 194.024 44.016 193.464 43.616C192.912 43.216 192.568 42.672 192.432 41.984H193.26C193.404 42.44 193.676 42.804 194.076 43.076C194.484 43.348 194.98 43.484 195.564 43.484C195.988 43.484 196.368 43.392 196.704 43.208C197.04 43.032 197.304 42.768 197.496 42.416C197.688 42.064 197.784 41.648 197.784 41.168V39.548C197.576 39.996 197.244 40.368 196.788 40.664C196.34 40.952 195.808 41.096 195.192 41.096C194.592 41.096 194.052 40.956 193.572 40.676C193.1 40.396 192.728 40 192.456 39.488C192.192 38.976 192.06 38.384 192.06 37.712C192.06 37.04 192.192 36.452 192.456 35.948C192.728 35.436 193.1 35.044 193.572 34.772C194.052 34.492 194.592 34.352 195.192 34.352ZM197.784 37.724C197.784 37.196 197.676 36.732 197.46 36.332C197.244 35.932 196.948 35.624 196.572 35.408C196.204 35.192 195.796 35.084 195.348 35.084C194.884 35.084 194.468 35.188 194.1 35.396C193.732 35.604 193.44 35.908 193.224 36.308C193.016 36.7 192.912 37.168 192.912 37.712C192.912 38.248 193.016 38.72 193.224 39.128C193.44 39.528 193.732 39.836 194.1 40.052C194.468 40.26 194.884 40.364 195.348 40.364C195.796 40.364 196.204 40.256 196.572 40.04C196.948 39.824 197.244 39.516 197.46 39.116C197.676 38.716 197.784 38.252 197.784 37.724ZM200.962 33.212C200.794 33.212 200.65 33.152 200.53 33.032C200.41 32.912 200.35 32.764 200.35 32.588C200.35 32.412 200.41 32.268 200.53 32.156C200.65 32.036 200.794 31.976 200.962 31.976C201.13 31.976 201.274 32.036 201.394 32.156C201.514 32.268 201.574 32.412 201.574 32.588C201.574 32.764 201.514 32.912 201.394 33.032C201.274 33.152 201.13 33.212 200.962 33.212ZM201.382 34.448V41H200.542V34.448H201.382ZM202.9 37.712C202.9 37.04 203.032 36.452 203.296 35.948C203.568 35.436 203.94 35.044 204.412 34.772C204.892 34.492 205.432 34.352 206.032 34.352C206.656 34.352 207.192 34.496 207.64 34.784C208.096 35.072 208.424 35.44 208.624 35.888V34.448H209.464V41H208.624V39.548C208.416 39.996 208.084 40.368 207.628 40.664C207.18 40.952 206.644 41.096 206.02 41.096C205.428 41.096 204.892 40.956 204.412 40.676C203.94 40.396 203.568 40 203.296 39.488C203.032 38.976 202.9 38.384 202.9 37.712ZM208.624 37.724C208.624 37.196 208.516 36.732 208.3 36.332C208.084 35.932 207.788 35.624 207.412 35.408C207.044 35.192 206.636 35.084 206.188 35.084C205.724 35.084 205.308 35.188 204.94 35.396C204.572 35.604 204.28 35.908 204.064 36.308C203.856 36.7 203.752 37.168 203.752 37.712C203.752 38.248 203.856 38.72 204.064 39.128C204.28 39.528 204.572 39.836 204.94 40.052C205.308 40.26 205.724 40.364 206.188 40.364C206.636 40.364 207.044 40.256 207.412 40.04C207.788 39.824 208.084 39.516 208.3 39.116C208.516 38.716 208.624 38.252 208.624 37.724ZM207.496 32.516L205.036 33.944V33.296L207.496 31.76V32.516ZM215.767 35.156V39.224C215.767 39.624 215.843 39.9 215.995 40.052C216.147 40.204 216.415 40.28 216.799 40.28H217.567V41H216.667C216.075 41 215.635 40.864 215.347 40.592C215.059 40.312 214.915 39.856 214.915 39.224V35.156H214.003V34.448H214.915V32.804H215.767V34.448H217.567V35.156H215.767ZM218.568 37.712C218.568 37.04 218.7 36.452 218.964 35.948C219.236 35.436 219.608 35.044 220.08 34.772C220.56 34.492 221.1 34.352 221.7 34.352C222.324 34.352 222.86 34.496 223.308 34.784C223.764 35.072 224.092 35.44 224.292 35.888V34.448H225.132V41H224.292V39.548C224.084 39.996 223.752 40.368 223.296 40.664C222.848 40.952 222.312 41.096 221.688 41.096C221.096 41.096 220.56 40.956 220.08 40.676C219.608 40.396 219.236 40 218.964 39.488C218.7 38.976 218.568 38.384 218.568 37.712ZM224.292 37.724C224.292 37.196 224.184 36.732 223.968 36.332C223.752 35.932 223.456 35.624 223.08 35.408C222.712 35.192 222.304 35.084 221.856 35.084C221.392 35.084 220.976 35.188 220.608 35.396C220.24 35.604 219.948 35.908 219.732 36.308C219.524 36.7 219.42 37.168 219.42 37.712C219.42 38.248 219.524 38.72 219.732 39.128C219.948 39.528 220.24 39.836 220.608 40.052C220.976 40.26 221.392 40.364 221.856 40.364C222.304 40.364 222.712 40.256 223.08 40.04C223.456 39.824 223.752 39.516 223.968 39.116C224.184 38.716 224.292 38.252 224.292 37.724ZM223.164 33.296V33.944L220.704 32.516V31.76L223.164 33.296ZM227.47 33.212C227.302 33.212 227.158 33.152 227.038 33.032C226.918 32.912 226.858 32.764 226.858 32.588C226.858 32.412 226.918 32.268 227.038 32.156C227.158 32.036 227.302 31.976 227.47 31.976C227.638 31.976 227.782 32.036 227.902 32.156C228.022 32.268 228.082 32.412 228.082 32.588C228.082 32.764 228.022 32.912 227.902 33.032C227.782 33.152 227.638 33.212 227.47 33.212ZM227.89 34.448V41H227.05V34.448H227.89ZM235.341 41.096C234.589 41.096 233.973 40.924 233.493 40.58C233.021 40.228 232.757 39.752 232.701 39.152H233.565C233.605 39.52 233.777 39.82 234.081 40.052C234.393 40.276 234.809 40.388 235.329 40.388C235.785 40.388 236.141 40.28 236.397 40.064C236.661 39.848 236.793 39.58 236.793 39.26C236.793 39.036 236.721 38.852 236.577 38.708C236.433 38.564 236.249 38.452 236.025 38.372C235.809 38.284 235.513 38.192 235.137 38.096C234.649 37.968 234.253 37.84 233.949 37.712C233.645 37.584 233.385 37.396 233.169 37.148C232.961 36.892 232.857 36.552 232.857 36.128C232.857 35.808 232.953 35.512 233.145 35.24C233.337 34.968 233.609 34.752 233.961 34.592C234.313 34.432 234.713 34.352 235.161 34.352C235.865 34.352 236.433 34.532 236.865 34.892C237.297 35.244 237.529 35.732 237.561 36.356H236.721C236.697 35.972 236.545 35.664 236.265 35.432C235.993 35.192 235.617 35.072 235.137 35.072C234.713 35.072 234.369 35.172 234.105 35.372C233.841 35.572 233.709 35.82 233.709 36.116C233.709 36.372 233.785 36.584 233.937 36.752C234.097 36.912 234.293 37.04 234.525 37.136C234.757 37.224 235.069 37.324 235.461 37.436C235.933 37.564 236.309 37.688 236.589 37.808C236.869 37.928 237.109 38.104 237.309 38.336C237.509 38.568 237.613 38.876 237.621 39.26C237.621 39.612 237.525 39.928 237.333 40.208C237.141 40.48 236.873 40.696 236.529 40.856C236.185 41.016 235.789 41.096 235.341 41.096ZM243.234 41L243.029 40.0859H242.982C242.662 40.4883 242.342 40.7617 242.021 40.9062C241.705 41.0469 241.305 41.1172 240.82 41.1172C240.188 41.1172 239.691 40.9512 239.332 40.6191C238.973 40.2871 238.793 39.8184 238.793 39.2129C238.793 37.9082 239.822 37.2246 241.881 37.1621L242.971 37.1211V36.7402C242.971 36.252 242.865 35.8926 242.654 35.6621C242.443 35.4277 242.105 35.3105 241.641 35.3105C241.301 35.3105 240.979 35.3613 240.674 35.4629C240.373 35.5645 240.09 35.6777 239.824 35.8027L239.502 35.0117C239.826 34.8398 240.18 34.7051 240.562 34.6074C240.945 34.5098 241.324 34.4609 241.699 34.4609C242.477 34.4609 243.055 34.6328 243.434 34.9766C243.812 35.3203 244.002 35.8672 244.002 36.6172V41H243.234ZM241.061 40.2676C241.65 40.2676 242.113 40.1094 242.449 39.793C242.789 39.4727 242.959 39.0195 242.959 38.4336V37.8535L242.01 37.8945C241.271 37.9219 240.732 38.0391 240.393 38.2461C240.057 38.4531 239.889 38.7793 239.889 39.2246C239.889 39.5605 239.99 39.8184 240.193 39.998C240.4 40.1777 240.689 40.2676 241.061 40.2676ZM242.924 32.2402C242.924 32.7871 242.6 33.1348 241.951 33.2832L241.893 33.9219H241.242L241.16 32.9023C241.449 32.8516 241.68 32.7812 241.852 32.6914C242.023 32.6016 242.109 32.4629 242.109 32.2754C242.109 31.9551 241.848 31.7949 241.324 31.7949C241.117 31.7949 240.926 31.8105 240.75 31.8418V31.2207C240.895 31.1738 241.115 31.1504 241.412 31.1504C242.42 31.1504 242.924 31.5137 242.924 32.2402ZM249.012 34.328C249.796 34.328 250.436 34.572 250.932 35.06C251.428 35.54 251.676 36.24 251.676 37.16V41H250.848V37.256C250.848 36.544 250.668 36 250.308 35.624C249.956 35.248 249.472 35.06 248.856 35.06C248.224 35.06 247.72 35.26 247.344 35.66C246.968 36.06 246.78 36.648 246.78 37.424V41H245.94V34.448H246.78V35.564C246.988 35.164 247.288 34.86 247.68 34.652C248.072 34.436 248.516 34.328 249.012 34.328ZM257.919 35.156V39.224C257.919 39.624 257.995 39.9 258.147 40.052C258.299 40.204 258.567 40.28 258.951 40.28H259.719V41H258.819C258.227 41 257.787 40.864 257.499 40.592C257.211 40.312 257.067 39.856 257.067 39.224V35.156H256.155V34.448H257.067V32.804H257.919V34.448H259.719V35.156H257.919ZM264.225 34.328C264.721 34.328 265.165 34.432 265.557 34.64C265.957 34.848 266.269 35.168 266.493 35.6C266.725 36.024 266.841 36.544 266.841 37.16V41H266.013V37.256C266.013 36.544 265.833 36 265.473 35.624C265.121 35.248 264.637 35.06 264.021 35.06C263.389 35.06 262.885 35.26 262.509 35.66C262.133 36.06 261.945 36.648 261.945 37.424V41H261.105V32.12H261.945V35.564C262.153 35.172 262.457 34.868 262.857 34.652C263.265 34.436 263.721 34.328 264.225 34.328ZM268.314 37.712C268.314 37.04 268.446 36.452 268.71 35.948C268.982 35.436 269.354 35.044 269.826 34.772C270.306 34.492 270.846 34.352 271.446 34.352C272.07 34.352 272.606 34.496 273.054 34.784C273.51 35.072 273.838 35.44 274.038 35.888V34.448H274.878V41H274.038V39.548C273.83 39.996 273.498 40.368 273.042 40.664C272.594 40.952 272.058 41.096 271.434 41.096C270.842 41.096 270.306 40.956 269.826 40.676C269.354 40.396 268.982 40 268.71 39.488C268.446 38.976 268.314 38.384 268.314 37.712ZM274.038 37.724C274.038 37.196 273.93 36.732 273.714 36.332C273.498 35.932 273.202 35.624 272.826 35.408C272.458 35.192 272.05 35.084 271.602 35.084C271.138 35.084 270.722 35.188 270.354 35.396C269.986 35.604 269.694 35.908 269.478 36.308C269.27 36.7 269.166 37.168 269.166 37.712C269.166 38.248 269.27 38.72 269.478 39.128C269.694 39.528 269.986 39.836 270.354 40.052C270.722 40.26 271.138 40.364 271.602 40.364C272.05 40.364 272.458 40.256 272.826 40.04C273.202 39.824 273.498 39.516 273.714 39.116C273.93 38.716 274.038 38.252 274.038 37.724ZM272.91 33.296V33.944L270.45 32.516V31.76L272.91 33.296ZM279.868 34.328C280.652 34.328 281.292 34.572 281.788 35.06C282.284 35.54 282.532 36.24 282.532 37.16V41H281.704V37.256C281.704 36.544 281.524 36 281.164 35.624C280.812 35.248 280.328 35.06 279.712 35.06C279.08 35.06 278.576 35.26 278.2 35.66C277.824 36.06 277.636 36.648 277.636 37.424V41H276.796V34.448H277.636V35.564C277.844 35.164 278.144 34.86 278.536 34.652C278.928 34.436 279.372 34.328 279.868 34.328ZM287.51 34.328C288.006 34.328 288.45 34.432 288.842 34.64C289.242 34.848 289.554 35.168 289.778 35.6C290.01 36.024 290.126 36.544 290.126 37.16V41H289.298V37.256C289.298 36.544 289.118 36 288.758 35.624C288.406 35.248 287.922 35.06 287.306 35.06C286.674 35.06 286.17 35.26 285.794 35.66C285.418 36.06 285.23 36.648 285.23 37.424V41H284.39V32.12H285.23V35.564C285.438 35.172 285.742 34.868 286.142 34.652C286.55 34.436 287.006 34.328 287.51 34.328ZM296.104 35.888C296.312 35.448 296.64 35.084 297.088 34.796C297.544 34.5 298.084 34.352 298.708 34.352C299.3 34.352 299.832 34.492 300.304 34.772C300.784 35.044 301.156 35.436 301.42 35.948C301.692 36.452 301.828 37.04 301.828 37.712C301.828 38.384 301.692 38.976 301.42 39.488C301.156 40 300.784 40.396 300.304 40.676C299.832 40.956 299.3 41.096 298.708 41.096C298.092 41.096 297.556 40.952 297.1 40.664C296.644 40.368 296.312 40 296.104 39.56V44.096H295.276V34.448H296.104V35.888ZM300.976 37.712C300.976 37.168 300.868 36.7 300.652 36.308C300.444 35.908 300.156 35.604 299.788 35.396C299.42 35.188 299.004 35.084 298.54 35.084C298.092 35.084 297.68 35.192 297.304 35.408C296.936 35.624 296.644 35.932 296.428 36.332C296.212 36.732 296.104 37.196 296.104 37.724C296.104 38.252 296.212 38.716 296.428 39.116C296.644 39.516 296.936 39.824 297.304 40.04C297.68 40.256 298.092 40.364 298.54 40.364C299.004 40.364 299.42 40.26 299.788 40.052C300.156 39.836 300.444 39.528 300.652 39.128C300.868 38.72 300.976 38.248 300.976 37.712ZM306.494 34.328C306.99 34.328 307.434 34.432 307.826 34.64C308.226 34.848 308.538 35.168 308.762 35.6C308.994 36.024 309.11 36.544 309.11 37.16V41H308.282V37.256C308.282 36.544 308.102 36 307.742 35.624C307.39 35.248 306.906 35.06 306.29 35.06C305.658 35.06 305.154 35.26 304.778 35.66C304.402 36.06 304.214 36.648 304.214 37.424V41H303.374V32.12H304.214V35.564C304.422 35.172 304.726 34.868 305.126 34.652C305.534 34.436 305.99 34.328 306.494 34.328ZM316.617 37.7715C316.617 38.8223 316.352 39.6426 315.82 40.2324C315.289 40.8223 314.555 41.1172 313.617 41.1172C313.035 41.1172 312.52 40.9824 312.07 40.7129C311.621 40.4395 311.275 40.0488 311.033 39.541C310.791 39.0332 310.67 38.4434 310.67 37.7715C310.67 36.7246 310.932 35.9102 311.455 35.3281C311.979 34.7422 312.713 34.4492 313.658 34.4492C314.564 34.4492 315.283 34.748 315.814 35.3457C316.35 35.9395 316.617 36.748 316.617 37.7715ZM311.76 37.7715C311.76 38.5801 311.918 39.1953 312.234 39.6172C312.555 40.0352 313.025 40.2441 313.646 40.2441C314.26 40.2441 314.727 40.0352 315.047 39.6172C315.367 39.1953 315.527 38.5801 315.527 37.7715C315.527 36.9629 315.365 36.3555 315.041 35.9492C314.721 35.5391 314.25 35.334 313.629 35.334C312.383 35.334 311.76 36.1465 311.76 37.7715ZM315.445 33.7285H314.859C314.422 33.4355 314.01 33.1113 313.623 32.7559C313.178 33.1504 312.766 33.4746 312.387 33.7285H311.795V33.582C311.994 33.3555 312.209 33.1113 312.439 32.8496C312.674 32.584 312.885 32.3164 313.072 32.0469H314.174C314.451 32.4492 314.875 32.9609 315.445 33.582V33.7285ZM314.977 32.4453C315.262 32.0898 315.51 31.6934 315.721 31.2559H316.775V31.3789C316.459 31.8008 316.061 32.2031 315.58 32.5859H314.977V32.4453ZM324.31 32.612C325.238 32.612 326.034 32.78 326.698 33.116C327.362 33.452 327.87 33.936 328.222 34.568C328.574 35.2 328.75 35.952 328.75 36.824C328.75 37.688 328.574 38.436 328.222 39.068C327.87 39.692 327.362 40.172 326.698 40.508C326.034 40.836 325.238 41 324.31 41H321.814V37.208H320.674V36.428H321.814V32.612H324.31ZM324.31 40.34C325.47 40.34 326.354 40.032 326.962 39.416C327.578 38.792 327.886 37.928 327.886 36.824C327.886 35.72 327.578 34.856 326.962 34.232C326.354 33.608 325.47 33.296 324.31 33.296H322.666V36.428H325.114V37.208H322.666V40.34H324.31ZM329.908 37.712C329.908 37.04 330.04 36.452 330.304 35.948C330.576 35.436 330.948 35.044 331.42 34.772C331.9 34.492 332.44 34.352 333.04 34.352C333.664 34.352 334.2 34.496 334.648 34.784C335.104 35.072 335.432 35.44 335.632 35.888V34.448H336.472V41H335.632V39.548C335.424 39.996 335.092 40.368 334.636 40.664C334.188 40.952 333.652 41.096 333.028 41.096C332.436 41.096 331.9 40.956 331.42 40.676C330.948 40.396 330.576 40 330.304 39.488C330.04 38.976 329.908 38.384 329.908 37.712ZM335.632 37.724C335.632 37.196 335.524 36.732 335.308 36.332C335.092 35.932 334.796 35.624 334.42 35.408C334.052 35.192 333.644 35.084 333.196 35.084C332.732 35.084 332.316 35.188 331.948 35.396C331.58 35.604 331.288 35.908 331.072 36.308C330.864 36.7 330.76 37.168 330.76 37.712C330.76 38.248 330.864 38.72 331.072 39.128C331.288 39.528 331.58 39.836 331.948 40.052C332.316 40.26 332.732 40.364 333.196 40.364C333.644 40.364 334.052 40.256 334.42 40.04C334.796 39.824 335.092 39.516 335.308 39.116C335.524 38.716 335.632 38.252 335.632 37.724ZM334.504 33.296V33.944L332.044 32.516V31.76L334.504 33.296ZM348.007 41H347.167L342.523 33.944V41H341.683V32.612H342.523L347.167 39.656V32.612H348.007V41ZM353.941 41L353.736 40.0859H353.689C353.369 40.4883 353.049 40.7617 352.729 40.9062C352.412 41.0469 352.012 41.1172 351.527 41.1172C350.895 41.1172 350.398 40.9512 350.039 40.6191C349.68 40.2871 349.5 39.8184 349.5 39.2129C349.5 37.9082 350.529 37.2246 352.588 37.1621L353.678 37.1211V36.7402C353.678 36.252 353.572 35.8926 353.361 35.6621C353.15 35.4277 352.812 35.3105 352.348 35.3105C352.008 35.3105 351.686 35.3613 351.381 35.4629C351.08 35.5645 350.797 35.6777 350.531 35.8027L350.209 35.0117C350.533 34.8398 350.887 34.7051 351.27 34.6074C351.652 34.5098 352.031 34.4609 352.406 34.4609C353.184 34.4609 353.762 34.6328 354.141 34.9766C354.52 35.3203 354.709 35.8672 354.709 36.6172V41H353.941ZM351.768 40.2676C352.357 40.2676 352.82 40.1094 353.156 39.793C353.496 39.4727 353.666 39.0195 353.666 38.4336V37.8535L352.717 37.8945C351.979 37.9219 351.439 38.0391 351.1 38.2461C350.764 38.4531 350.596 38.7793 350.596 39.2246C350.596 39.5605 350.697 39.8184 350.9 39.998C351.107 40.1777 351.396 40.2676 351.768 40.2676ZM353.127 31.7012C352.986 31.7012 352.846 31.6738 352.705 31.6191C352.568 31.5605 352.434 31.4961 352.301 31.4258C352.172 31.3555 352.045 31.293 351.92 31.2383C351.795 31.1797 351.678 31.1504 351.568 31.1504C351.412 31.1504 351.293 31.1953 351.211 31.2852C351.129 31.375 351.061 31.5176 351.006 31.7129H350.461C350.512 31.3066 350.635 30.9941 350.83 30.7754C351.025 30.5527 351.271 30.4414 351.568 30.4414C351.713 30.4414 351.855 30.4707 351.996 30.5293C352.141 30.584 352.279 30.6465 352.412 30.7168C352.549 30.7871 352.678 30.8516 352.799 30.9102C352.92 30.9648 353.033 30.9922 353.139 30.9922C353.295 30.9922 353.414 30.9473 353.496 30.8574C353.578 30.7637 353.643 30.6211 353.689 30.4297H354.229C354.186 30.832 354.064 31.1445 353.865 31.3672C353.67 31.5898 353.424 31.7012 353.127 31.7012ZM352.277 33.7285C351.184 33.7285 350.6 33.2129 350.525 32.1816H351.158C351.186 32.4512 351.275 32.6445 351.428 32.7617C351.584 32.8789 351.871 32.9375 352.289 32.9375C352.672 32.9375 352.949 32.875 353.121 32.75C353.293 32.625 353.395 32.4355 353.426 32.1816H354.064C354.014 32.6895 353.836 33.0742 353.531 33.3359C353.227 33.5977 352.809 33.7285 352.277 33.7285ZM359.72 34.328C360.504 34.328 361.144 34.572 361.64 35.06C362.136 35.54 362.384 36.24 362.384 37.16V41H361.556V37.256C361.556 36.544 361.376 36 361.016 35.624C360.664 35.248 360.18 35.06 359.564 35.06C358.932 35.06 358.428 35.26 358.052 35.66C357.676 36.06 357.488 36.648 357.488 37.424V41H356.648V34.448H357.488V35.564C357.696 35.164 357.996 34.86 358.388 34.652C358.78 34.436 359.224 34.328 359.72 34.328ZM366.989 34.352C367.605 34.352 368.141 34.496 368.597 34.784C369.053 35.072 369.381 35.436 369.581 35.876V34.448H370.421V41.168C370.421 41.768 370.289 42.3 370.025 42.764C369.769 43.228 369.409 43.584 368.945 43.832C368.481 44.088 367.953 44.216 367.361 44.216C366.521 44.216 365.821 44.016 365.261 43.616C364.709 43.216 364.365 42.672 364.229 41.984H365.057C365.201 42.44 365.473 42.804 365.873 43.076C366.281 43.348 366.777 43.484 367.361 43.484C367.785 43.484 368.165 43.392 368.501 43.208C368.837 43.032 369.101 42.768 369.293 42.416C369.485 42.064 369.581 41.648 369.581 41.168V39.548C369.373 39.996 369.041 40.368 368.585 40.664C368.137 40.952 367.605 41.096 366.989 41.096C366.389 41.096 365.849 40.956 365.369 40.676C364.897 40.396 364.525 40 364.253 39.488C363.989 38.976 363.857 38.384 363.857 37.712C363.857 37.04 363.989 36.452 364.253 35.948C364.525 35.436 364.897 35.044 365.369 34.772C365.849 34.492 366.389 34.352 366.989 34.352ZM369.581 37.724C369.581 37.196 369.473 36.732 369.257 36.332C369.041 35.932 368.745 35.624 368.369 35.408C368.001 35.192 367.593 35.084 367.145 35.084C366.681 35.084 366.265 35.188 365.897 35.396C365.529 35.604 365.237 35.908 365.021 36.308C364.813 36.7 364.709 37.168 364.709 37.712C364.709 38.248 364.813 38.72 365.021 39.128C365.237 39.528 365.529 39.836 365.897 40.052C366.265 40.26 366.681 40.364 367.145 40.364C367.593 40.364 368.001 40.256 368.369 40.04C368.745 39.824 369.041 39.516 369.257 39.116C369.473 38.716 369.581 38.252 369.581 37.724Z" fill="#9A9A9A"/>
</svg>
