<svg width="140" height="70" xmlns="http://www.w3.org/2000/svg">

 <g>
  <title>background</title>
  <rect fill="none" id="canvas_background" height="72" width="142" y="-1" x="-1"/>
 </g>
 <g>
  <title>Layer 1</title>
  <path id="svg_1" fill="#27AE60" d="m7.32491,104.445905l0,-5.0079l-1.21875,0l0,-1.4296l1.21875,0l0,-4.9375l3.00781,0c1.32815,0 2.38545,0.4218 3.17185,1.2656c0.7917,0.8437 1.1953,2 1.211,3.4687l0,1.8438c0,1.4948 -0.3959,2.6692 -1.1875,3.5234c-0.7865,0.849 -1.8724,1.2735 -3.25785,1.2735l-2.94531,0zm3.52344,-5.0079l-1.22657,0l0,3.1016l0.79688,0c0.72396,-0.0156 1.23441,-0.2266 1.53121,-0.6328c0.2969,-0.4115 0.4532,-1.1068 0.4688,-2.0859l0,-1.9532c0,-1.0625 -0.1484,-1.8021 -0.4453,-2.2187c-0.2969,-0.4219 -0.80211,-0.6433 -1.51565,-0.6641l-0.83594,0l0,3.0235l1.22657,0l0,1.4296zm9.42972,5.0079c-0.0625,-0.1303 -0.125,-0.349 -0.1875,-0.6563c-0.3959,0.5417 -0.9323,0.8125 -1.6094,0.8125c-0.7083,0 -1.2969,-0.2344 -1.7656,-0.7031c-0.4636,-0.4688 -0.6953,-1.0755 -0.6953,-1.8203c0,-0.8855 0.2812,-1.5703 0.8437,-2.0547c0.5677,-0.4844 1.3828,-0.7318 2.4453,-0.7422l0.6719,0l0,-0.6797c0,-0.3802 -0.0651,-0.6484 -0.1953,-0.8047c-0.1302,-0.1562 -0.3203,-0.2344 -0.5703,-0.2344c-0.5521,0 -0.8282,0.323 -0.8282,0.9688l-2.2109,0c0,-0.7813 0.2917,-1.4245 0.875,-1.9297c0.5885,-0.5104 1.3307,-0.7656 2.2266,-0.7656c0.927,0 1.6432,0.2422 2.1484,0.7265c0.5104,0.4792 0.7656,1.1667 0.7656,2.0625l0,3.9766c0.0104,0.7292 0.1146,1.2995 0.3125,1.7109l0,0.1329l-2.2265,0zm-1.3047,-1.5782c0.2448,0 0.4531,-0.0495 0.625,-0.1484c0.1719,-0.099 0.2995,-0.2162 0.3828,-0.3516l0,-1.7578l-0.5313,0c-0.375,0 -0.6718,0.1198 -0.8906,0.3594c-0.2135,0.2396 -0.3203,0.5599 -0.3203,0.9609c0,0.625 0.2448,0.9375 0.7344,0.9375zm2.75,-10.3125c0,0.5782 -0.1485,1.0703 -0.4453,1.4766c-0.2917,0.401 -0.6615,0.6016 -1.1094,0.6016c-0.1667,0 -0.3151,-0.0235 -0.4453,-0.0704c-0.125,-0.0468 -0.3047,-0.1432 -0.5391,-0.289c-0.2292,-0.1459 -0.3932,-0.2344 -0.4922,-0.2656c-0.0937,-0.0313 -0.1979,-0.0469 -0.3125,-0.0469c-0.1406,0 -0.2578,0.0651 -0.3515,0.1953c-0.0938,0.125 -0.1407,0.3073 -0.1407,0.5469l-1.25,-0.0703c0,-0.5782 0.1485,-1.0704 0.4453,-1.4766c0.2969,-0.4115 0.6615,-0.6172 1.0938,-0.6172c0.1146,0 0.224,0.0182 0.3281,0.0547c0.1094,0.0312 0.2943,0.1224 0.5547,0.2734c0.2656,0.1459 0.4557,0.2396 0.5703,0.2813c0.1146,0.0364 0.2292,0.0547 0.3438,0.0547c0.1354,0 0.2526,-0.0625 0.3515,-0.1875c0.1042,-0.1302 0.1563,-0.3151 0.1563,-0.5547l1.2422,0.0937zm13.0859,2.375l-1.0234,0l0,9.5157l-2,0l-0.0938,-0.75c-0.4479,0.6041 -1.0182,0.9062 -1.7109,0.9062c-0.8438,0 -1.5208,-0.3906 -2.0313,-1.1719c-0.5104,-0.7812 -0.7656,-1.8724 -0.7656,-3.2734c0,-1.3177 0.2474,-2.3672 0.7422,-3.1484c0.5,-0.7813 1.1875,-1.1719 2.0625,-1.1719c0.625,0 1.1484,0.2448 1.5703,0.7344l0,-1.6407l-1.4922,0l0,-1.4297l1.4922,0l0,-1.0546l2.2266,0l0,1.0546l1.0234,0l0,1.4297zm-5.4062,5.3907c0,1.625 0.388,2.4375 1.164,2.4375c0.4479,0 0.7787,-0.2266 0.9922,-0.6797l0,-3.6641c-0.2135,-0.4844 -0.5417,-0.7266 -0.9844,-0.7266c-0.375,0 -0.664,0.2032 -0.8672,0.6094c-0.2031,0.4063 -0.3046,1.0807 -0.3046,2.0235zm11.1093,4.125c-0.0625,-0.1303 -0.125,-0.349 -0.1875,-0.6563c-0.3958,0.5417 -0.9323,0.8125 -1.6093,0.8125c-0.7084,0 -1.2969,-0.2344 -1.7657,-0.7031c-0.4635,-0.4688 -0.6953,-1.0755 -0.6953,-1.8203c0,-0.8855 0.2813,-1.5703 0.8438,-2.0547c0.5677,-0.4844 1.3828,-0.7318 2.4453,-0.7422l0.6719,0l0,-0.6797c0,-0.3802 -0.0651,-0.6484 -0.1953,-0.8047c-0.1303,-0.1562 -0.3204,-0.2344 -0.5704,-0.2344c-0.552,0 -0.8281,0.323 -0.8281,0.9688l-2.2109,0c0,-0.7813 0.2916,-1.4245 0.875,-1.9297c0.5885,-0.5104 1.3307,-0.7656 2.2265,-0.7656c0.9271,0 1.6433,0.2422 2.1485,0.7265c0.5104,0.4792 0.7656,1.1667 0.7656,2.0625l0,3.9766c0.0104,0.7292 0.1146,1.2995 0.3125,1.7109l0,0.1329l-2.2266,0zm-1.3047,-1.5782c0.2448,0 0.4532,-0.0495 0.625,-0.1484c0.1719,-0.099 0.2995,-0.2162 0.3829,-0.3516l0,-1.7578l-0.5313,0c-0.375,0 -0.677,0.1198 -0.8906,0.3594c-0.2136,0.2396 -0.3203,0.5599 -0.3203,0.9609c0,0.625 0.2448,0.9375 0.7343,0.9375zm2.9376,-10.3515c0,0.6927 -0.25,1.2526 -0.75,1.6797c-0.4948,0.427 -1.1485,0.6406 -1.961,0.6406c-0.8177,0 -1.4766,-0.2136 -1.9766,-0.6406c-0.4947,-0.4271 -0.7421,-0.987 -0.7421,-1.6797l1.6171,0c0,0.3229 0.0964,0.5755 0.2891,0.7578c0.1979,0.1771 0.4688,0.2656 0.8125,0.2656c0.3386,0 0.6042,-0.0885 0.7969,-0.2656c0.1927,-0.1823 0.2891,-0.4349 0.2891,-0.7578l1.625,0zm3.9062,3.4765l0.0625,0.836c0.5,-0.6615 1.1536,-0.9922 1.9609,-0.9922c1.4532,0 2.2006,1.0182 2.2422,3.0547l0,5.5547l-2.2187,0l0,-5.3907c0,-0.4791 -0.0729,-0.8255 -0.2188,-1.039c-0.1406,-0.2188 -0.3906,-0.3282 -0.75,-0.3282c-0.401,0 -0.7135,0.2058 -0.9375,0.6172l0,6.1407l-2.2187,0l0,-8.4532l2.0781,0zm5.5859,3.9688c0,-1.3854 0.25,-2.4193 0.75,-3.1016c0.5,-0.6823 1.2006,-1.0234 2.1016,-1.0234c0.7656,0 1.3568,0.3021 1.7734,0.9062l0.086,-0.75l1.9922,0l0,8.4532c0,1.0781 -0.3021,1.901 -0.9063,2.4687c-0.6042,0.5729 -1.4713,0.8594 -2.6016,0.8594c-0.4635,0 -0.9505,-0.0938 -1.4609,-0.2813c-0.5104,-0.1823 -0.8906,-0.4166 -1.1406,-0.7031l0.7422,-1.5312c0.2083,0.2187 0.4791,0.3958 0.8125,0.5312c0.3333,0.1406 0.6484,0.2109 0.9453,0.2109c0.4948,0 0.8489,-0.1198 1.0625,-0.3593c0.2187,-0.2344 0.3307,-0.6146 0.3359,-1.1407l0,-0.7265c-0.4219,0.5521 -0.9713,0.8281 -1.6484,0.8281c-0.9011,0 -1.599,-0.349 -2.0938,-1.0469c-0.4895,-0.7031 -0.7395,-1.6927 -0.75,-2.9687l0,-0.625zm2.211,0.5547c0,0.7812 0.1015,1.3515 0.3047,1.7109c0.2031,0.3542 0.526,0.5313 0.9687,0.5313c0.4531,0 0.7891,-0.1641 1.0078,-0.4922l0,-4.0391c-0.2291,-0.3594 -0.5599,-0.5391 -0.9922,-0.5391c-0.4375,0 -0.763,0.1797 -0.9765,0.5391c-0.2084,0.3594 -0.3125,0.9375 -0.3125,1.7344l0,0.5547zm12.5937,0.6718l-0.5937,0.6641l0,2.5938l-2.211,0l0,-12l2.211,0l0,6.4843l0.2734,-0.4062l1.5313,-2.5313l2.6328,0l-2.4532,3.4844l2.6876,4.9688l-2.5313,0l-1.5469,-3.2579zm7.5625,-0.4218l1.125,-4.7735l2.3594,0l-2.7813,9.7188c-0.4166,1.4323 -1.2005,2.1484 -2.3515,2.1484c-0.2656,0 -0.5677,-0.0495 -0.9063,-0.1484l0,-1.7266l0.2578,0.0078c0.3438,0 0.6016,-0.0677 0.7735,-0.2031c0.1771,-0.1302 0.3099,-0.3594 0.3984,-0.6875l0.1719,-0.5703l-2.4375,-8.5391l2.375,0l1.0156,4.7735zm0.5078,-8.3203l2.4844,0l-2.1719,2.4218l-1.8437,0l1.5312,-2.4218zm10.1797,1.4687l0,2.0781l1.1328,0l0,1.6641l-1.1328,0l0,4.1953c0,0.3333 0.0443,0.5625 0.1328,0.6875c0.0938,0.125 0.2709,0.1875 0.5313,0.1875c0.2135,0 0.388,-0.0182 0.5234,-0.0547l-0.0156,1.7188c-0.375,0.1406 -0.7813,0.2109 -1.2187,0.2109c-1.4271,0 -2.1485,-0.8177 -2.1641,-2.4531l0,-4.4922l-0.9766,0l0,-1.6641l0.9766,0l0,-2.0781l2.2109,0zm4.5078,2.8203c0.4792,-0.5989 1.0677,-0.8984 1.7657,-0.8984c0.7708,0 1.3567,0.2708 1.7578,0.8125c0.401,0.5416 0.6041,1.3489 0.6093,2.4219l0,5.375l-2.2187,0l0,-5.3516c0,-0.4948 -0.0781,-0.8516 -0.2344,-1.0703c-0.151,-0.224 -0.3984,-0.336 -0.7422,-0.336c-0.401,0 -0.7135,0.1849 -0.9375,0.5547l0,6.2032l-2.2109,0l0,-12l2.2109,0l0,4.289zm9.7344,7.711c-0.0625,-0.1303 -0.125,-0.349 -0.1875,-0.6563c-0.3958,0.5417 -0.9323,0.8125 -1.6094,0.8125c-0.7083,0 -1.2968,-0.2344 -1.7656,-0.7031c-0.4635,-0.4688 -0.6953,-1.0755 -0.6953,-1.8203c0,-0.8855 0.2812,-1.5703 0.8438,-2.0547c0.5677,-0.4844 1.3828,-0.7318 2.4453,-0.7422l0.6718,0l0,-0.6797c0,-0.3802 -0.0651,-0.6484 -0.1953,-0.8047c-0.1302,-0.1562 -0.3203,-0.2344 -0.5703,-0.2344c-0.5521,0 -0.8281,0.323 -0.8281,0.9688l-2.211,0c0,-0.7813 0.2917,-1.4245 0.875,-1.9297c0.5886,-0.5104 1.3308,-0.7656 2.2266,-0.7656c0.9271,0 1.6432,0.2422 2.1484,0.7265c0.5105,0.4792 0.7657,1.1667 0.7657,2.0625l0,3.9766c0.0104,0.7292 0.1146,1.2995 0.3125,1.7109l0,0.1329l-2.2266,0zm-1.3047,-1.5782c0.2448,0 0.4531,-0.0495 0.625,-0.1484c0.1719,-0.099 0.2995,-0.2162 0.3828,-0.3516l0,-1.7578l-0.5312,0c-0.375,0 -0.6719,0.1198 -0.8906,0.3594c-0.2136,0.2396 -0.3203,0.5599 -0.3203,0.9609c0,0.625 0.2447,0.9375 0.7343,0.9375zm6.8989,-6.875l0.062,0.7813c0.495,-0.625 1.148,-0.9375 1.961,-0.9375c0.844,0 1.44,0.3802 1.789,1.1406c0.484,-0.7604 1.175,-1.1406 2.07,-1.1406c1.48,0 2.237,1.0234 2.274,3.0703l0,5.5391l-2.211,0l0,-5.3985c0,-0.4896 -0.068,-0.8385 -0.203,-1.0469c-0.136,-0.2083 -0.365,-0.3125 -0.688,-0.3125c-0.411,0 -0.718,0.2526 -0.922,0.7579l0.016,0.2656l0,5.7344l-2.211,0l0,-5.3829c0,-0.4843 -0.065,-0.8333 -0.195,-1.0468c-0.13,-0.2188 -0.362,-0.3282 -0.696,-0.3282c-0.38,0 -0.682,0.2058 -0.906,0.6172l0,6.1407l-2.211,0l0,-8.4532l2.071,0zm13.218,3.9688c0,-1.3854 0.25,-2.4193 0.75,-3.1016c0.5,-0.6823 1.201,-1.0234 2.102,-1.0234c0.766,0 1.357,0.3021 1.773,0.9062l0.086,-0.75l1.992,0l0,8.4532c0,1.0781 -0.302,1.901 -0.906,2.4687c-0.604,0.5729 -1.471,0.8594 -2.601,0.8594c-0.464,0 -0.951,-0.0938 -1.461,-0.2813c-0.511,-0.1823 -0.891,-0.4166 -1.141,-0.7031l0.742,-1.5312c0.209,0.2187 0.479,0.3958 0.813,0.5312c0.333,0.1406 0.648,0.2109 0.945,0.2109c0.495,0 0.849,-0.1198 1.063,-0.3593c0.218,-0.2344 0.33,-0.6146 0.335,-1.1407l0,-0.7265c-0.421,0.5521 -0.971,0.8281 -1.648,0.8281c-0.901,0 -1.599,-0.349 -2.094,-1.0469c-0.489,-0.7031 -0.739,-1.6927 -0.75,-2.9687l0,-0.625zm2.211,0.5547c0,0.7812 0.102,1.3515 0.305,1.7109c0.203,0.3542 0.526,0.5313 0.969,0.5313c0.453,0 0.789,-0.1641 1.007,-0.4922l0,-4.0391c-0.229,-0.3594 -0.559,-0.5391 -0.992,-0.5391c-0.437,0 -0.763,0.1797 -0.976,0.5391c-0.209,0.3594 -0.313,0.9375 -0.313,1.7344l0,0.5547zm8.422,3.9297l-2.219,0l0,-8.4532l2.219,0l0,8.4532zm-2.32,-10.6407c0,-0.3437 0.109,-0.625 0.328,-0.8437c0.219,-0.2188 0.51,-0.3281 0.875,-0.3281c0.365,0 0.656,0.1093 0.875,0.3281c0.219,0.2187 0.328,0.5 0.328,0.8437c0,0.3386 -0.109,0.6198 -0.328,0.8438c-0.214,0.2239 -0.505,0.3359 -0.875,0.3359c-0.37,0 -0.664,-0.112 -0.883,-0.3359c-0.213,-0.224 -0.32,-0.5052 -0.32,-0.8438zm8.047,10.6407c-0.063,-0.1303 -0.125,-0.349 -0.188,-0.6563c-0.396,0.5417 -0.932,0.8125 -1.609,0.8125c-0.709,0 -1.297,-0.2344 -1.766,-0.7031c-0.463,-0.4688 -0.695,-1.0755 -0.695,-1.8203c0,-0.8855 0.281,-1.5703 0.844,-2.0547c0.567,-0.4844 1.382,-0.7318 2.445,-0.7422l0.672,0l0,-0.6797c0,-0.3802 -0.065,-0.6484 -0.195,-0.8047c-0.131,-0.1562 -0.321,-0.2344 -0.571,-0.2344c-0.552,0 -0.828,0.323 -0.828,0.9688l-2.211,0c0,-0.7813 0.292,-1.4245 0.875,-1.9297c0.589,-0.5104 1.331,-0.7656 2.227,-0.7656c0.927,0 1.643,0.2422 2.148,0.7265c0.511,0.4792 0.766,1.1667 0.766,2.0625l0,3.9766c0.01,0.7292 0.114,1.2995 0.312,1.7109l0,0.1329l-2.226,0zm-1.305,-1.5782c0.245,0 0.453,-0.0495 0.625,-0.1484c0.172,-0.099 0.299,-0.2162 0.383,-0.3516l0,-1.7578l-0.531,0c-0.375,0 -0.672,0.1198 -0.891,0.3594c-0.214,0.2396 -0.32,0.5599 -0.32,0.9609c0,0.401 0.244,0.9375 0.734,0.9375z"/>
  <path fill-opacity="0" fill="#c16262" id="svg_2" stroke-width="2" stroke="#27AE60" d="m88.000001,22.3188c0,10.1068 -8.0724,18.2754 -18,18.2754c-9.9276,0 -18,-8.1686 -18,-18.2754c0,-10.1068 8.0724,-18.27534 18,-18.27534c9.9276,0 18,8.16854 18,18.27534z"/>
  <path id="svg_3" fill="#27AE60" d="m70,22.3188c2.21,0 4,-1.8159 4,-4.0579c0,-2.2421 -1.79,-4.058 -4,-4.058c-2.21,0 -4,1.8159 -4,4.058c0,2.242 1.79,4.0579 4,4.0579zm0,-6.0869c1.1,0 2,0.913 2,2.029c0,1.1159 -0.9,2.0289 -2,2.0289c-1.1,0 -2,-0.913 -2,-2.0289c0,-1.116 0.9,-2.029 2,-2.029zm-6,12.1739c0.2,-0.6392 2.57,-1.7044 4.96,-1.9681l2.04,-2.029c-0.39,-0.0406 -0.68,-0.0609 -1,-0.0609c-2.67,0 -8,1.3594 -8,4.058l0,2.029l9,0l-2,-2.029l-5,0zm15.6,-5.5797l-5.13,5.2449l-2.07,-2.1101l-1.4,1.4304l3.47,3.5507l6.53,-6.6855l-1.4,-1.4304z"/>
  <path id="svg_4" fill="#27AE60" d="m0.560205,91.798847l0,-5.0079l-1.21875,0l0,-1.4296l1.21875,0l0,-4.9375l3.00781,0c1.32815,0 2.38545,0.4218 3.17185,1.2656c0.7917,0.8437 1.1953,2 1.211,3.4687l0,1.8438c0,1.4948 -0.3959,2.6692 -1.1875,3.5234c-0.7865,0.849 -1.8724,1.2735 -3.25785,1.2735l-2.94531,0zm3.52344,-5.0079l-1.22657,0l0,3.1016l0.79688,0c0.72396,-0.0156 1.23441,-0.2266 1.53121,-0.6328c0.2969,-0.4115 0.4532,-1.1068 0.4688,-2.0859l0,-1.9532c0,-1.0625 -0.1484,-1.8021 -0.4453,-2.2187c-0.2969,-0.4219 -0.80211,-0.6433 -1.51565,-0.6641l-0.83594,0l0,3.0235l1.22657,0l0,1.4296zm9.42972,5.0079c-0.0625,-0.1303 -0.125,-0.349 -0.1875,-0.6563c-0.3959,0.5417 -0.9323,0.8125 -1.6094,0.8125c-0.7083,0 -1.2969,-0.2344 -1.7656,-0.7031c-0.4636,-0.4688 -0.6953,-1.0755 -0.6953,-1.8203c0,-0.8855 0.2812,-1.5703 0.8437,-2.0547c0.5677,-0.4844 1.3828,-0.7318 2.4453,-0.7422l0.6719,0l0,-0.6797c0,-0.3802 -0.0651,-0.6484 -0.1953,-0.8047c-0.1302,-0.1562 -0.3203,-0.2344 -0.5703,-0.2344c-0.5521,0 -0.8282,0.323 -0.8282,0.9688l-2.2109,0c0,-0.7813 0.2917,-1.4245 0.875,-1.9297c0.5885,-0.5104 1.3307,-0.7656 2.2266,-0.7656c0.927,0 1.6432,0.2422 2.1484,0.7265c0.5104,0.4792 0.7656,1.1667 0.7656,2.0625l0,3.9766c0.0104,0.7292 0.1146,1.2995 0.3125,1.7109l0,0.1329l-2.2265,0zm-1.3047,-1.5782c0.2448,0 0.4531,-0.0495 0.625,-0.1484c0.1719,-0.099 0.2995,-0.2162 0.3828,-0.3516l0,-1.7578l-0.5313,0c-0.375,0 -0.6718,0.1198 -0.8906,0.3594c-0.2135,0.2396 -0.3203,0.5599 -0.3203,0.9609c0,0.625 0.2448,0.9375 0.7344,0.9375zm2.75,-10.3125c0,0.5782 -0.1485,1.0703 -0.4453,1.4766c-0.2917,0.401 -0.6615,0.6016 -1.1094,0.6016c-0.1667,0 -0.3151,-0.0235 -0.4453,-0.0704c-0.125,-0.0468 -0.3047,-0.1432 -0.5391,-0.289c-0.2292,-0.1459 -0.3932,-0.2344 -0.4922,-0.2656c-0.0937,-0.0313 -0.1979,-0.0469 -0.3125,-0.0469c-0.1406,0 -0.2578,0.0651 -0.3515,0.1953c-0.0938,0.125 -0.1407,0.3073 -0.1407,0.5469l-1.25,-0.0703c0,-0.5782 0.1485,-1.0704 0.4453,-1.4766c0.2969,-0.4115 0.6615,-0.6172 1.0938,-0.6172c0.1146,0 0.224,0.0182 0.3281,0.0547c0.1094,0.0312 0.2943,0.1224 0.5547,0.2734c0.2656,0.1459 0.4557,0.2396 0.5703,0.2813c0.1146,0.0364 0.2292,0.0547 0.3438,0.0547c0.1354,0 0.2526,-0.0625 0.3515,-0.1875c0.1042,-0.1302 0.1563,-0.3151 0.1563,-0.5547l1.2422,0.0937zm13.0859,2.375l-1.0234,0l0,9.5157l-2,0l-0.0938,-0.75c-0.4479,0.6041 -1.0182,0.9062 -1.7109,0.9062c-0.8438,0 -1.5208,-0.3906 -2.0313,-1.1719c-0.5104,-0.7812 -0.7656,-1.8724 -0.7656,-3.2734c0,-1.3177 0.2474,-2.3672 0.7422,-3.1484c0.5,-0.7813 1.1875,-1.1719 2.0625,-1.1719c0.625,0 1.1484,0.2448 1.5703,0.7344l0,-1.6407l-1.4922,0l0,-1.4297l1.4922,0l0,-1.0546l2.2266,0l0,1.0546l1.0234,0l0,1.4297zm-5.4062,5.3907c0,1.625 0.388,2.4375 1.164,2.4375c0.4479,0 0.7787,-0.2266 0.9922,-0.6797l0,-3.6641c-0.2135,-0.4844 -0.5417,-0.7266 -0.9844,-0.7266c-0.375,0 -0.664,0.2032 -0.8672,0.6094c-0.2031,0.4063 -0.3046,1.0807 -0.3046,2.0235zm11.1093,4.125c-0.0625,-0.1303 -0.125,-0.349 -0.1875,-0.6563c-0.3958,0.5417 -0.9323,0.8125 -1.6093,0.8125c-0.7084,0 -1.2969,-0.2344 -1.7657,-0.7031c-0.4635,-0.4688 -0.6953,-1.0755 -0.6953,-1.8203c0,-0.8855 0.2813,-1.5703 0.8438,-2.0547c0.5677,-0.4844 1.3828,-0.7318 2.4453,-0.7422l0.6719,0l0,-0.6797c0,-0.3802 -0.0651,-0.6484 -0.1953,-0.8047c-0.1303,-0.1562 -0.3204,-0.2344 -0.5704,-0.2344c-0.552,0 -0.8281,0.323 -0.8281,0.9688l-2.2109,0c0,-0.7813 0.2916,-1.4245 0.875,-1.9297c0.5885,-0.5104 1.3307,-0.7656 2.2265,-0.7656c0.9271,0 1.6433,0.2422 2.1485,0.7265c0.5104,0.4792 0.7656,1.1667 0.7656,2.0625l0,3.9766c0.0104,0.7292 0.1146,1.2995 0.3125,1.7109l0,0.1329l-2.2266,0zm-1.3047,-1.5782c0.2448,0 0.4532,-0.0495 0.625,-0.1484c0.1719,-0.099 0.2995,-0.2162 0.3829,-0.3516l0,-1.7578l-0.5313,0c-0.375,0 -0.677,0.1198 -0.8906,0.3594c-0.2136,0.2396 -0.3203,0.5599 -0.3203,0.9609c0,0.625 0.2448,0.9375 0.7343,0.9375zm2.9376,-10.3515c0,0.6927 -0.25,1.2526 -0.75,1.6797c-0.4948,0.427 -1.1485,0.6406 -1.961,0.6406c-0.8177,0 -1.4766,-0.2136 -1.9766,-0.6406c-0.4947,-0.4271 -0.7421,-0.987 -0.7421,-1.6797l1.6171,0c0,0.3229 0.0964,0.5755 0.2891,0.7578c0.1979,0.1771 0.4688,0.2656 0.8125,0.2656c0.3386,0 0.6042,-0.0885 0.7969,-0.2656c0.1927,-0.1823 0.2891,-0.4349 0.2891,-0.7578l1.625,0zm3.9062,3.4765l0.0625,0.836c0.5,-0.6615 1.1536,-0.9922 1.9609,-0.9922c1.4532,0 2.2006,1.0182 2.2422,3.0547l0,5.5547l-2.2187,0l0,-5.3907c0,-0.4791 -0.0729,-0.8255 -0.2188,-1.039c-0.1406,-0.2188 -0.3906,-0.3282 -0.75,-0.3282c-0.401,0 -0.7135,0.2058 -0.9375,0.6172l0,6.1407l-2.2187,0l0,-8.4532l2.0781,0zm5.5859,3.9688c0,-1.3854 0.25,-2.4193 0.75,-3.1016c0.5,-0.6823 1.2006,-1.0234 2.1016,-1.0234c0.7656,0 1.3568,0.3021 1.7734,0.9062l0.086,-0.75l1.9922,0l0,8.4532c0,1.0781 -0.3021,1.901 -0.9063,2.4687c-0.6042,0.5729 -1.4713,0.8594 -2.6016,0.8594c-0.4635,0 -0.9505,-0.0938 -1.4609,-0.2813c-0.5104,-0.1823 -0.8906,-0.4166 -1.1406,-0.7031l0.7422,-1.5312c0.2083,0.2187 0.4791,0.3958 0.8125,0.5312c0.3333,0.1406 0.6484,0.2109 0.9453,0.2109c0.4948,0 0.8489,-0.1198 1.0625,-0.3593c0.2187,-0.2344 0.3307,-0.6146 0.3359,-1.1407l0,-0.7265c-0.4219,0.5521 -0.9713,0.8281 -1.6484,0.8281c-0.9011,0 -1.599,-0.349 -2.0938,-1.0469c-0.4895,-0.7031 -0.7395,-1.6927 -0.75,-2.9687l0,-0.625zm2.211,0.5547c0,0.7812 0.1015,1.3515 0.3047,1.7109c0.2031,0.3542 0.526,0.5313 0.9687,0.5313c0.4531,0 0.7891,-0.1641 1.0078,-0.4922l0,-4.0391c-0.2291,-0.3594 -0.5599,-0.5391 -0.9922,-0.5391c-0.4375,0 -0.763,0.1797 -0.9765,0.5391c-0.2084,0.3594 -0.3125,0.9375 -0.3125,1.7344l0,0.5547zm12.5937,0.6718l-0.5937,0.6641l0,2.5938l-2.211,0l0,-12l2.211,0l0,6.4843l0.2734,-0.4062l1.5313,-2.5313l2.6328,0l-2.4532,3.4844l2.6876,4.9688l-2.5313,0l-1.5469,-3.2579zm7.5625,-0.4218l1.125,-4.7735l2.3594,0l-2.7813,9.7188c-0.4166,1.4323 -1.2005,2.1484 -2.3515,2.1484c-0.2656,0 -0.5677,-0.0495 -0.9063,-0.1484l0,-1.7266l0.2578,0.0078c0.3438,0 0.6016,-0.0677 0.7735,-0.2031c0.1771,-0.1302 0.3099,-0.3594 0.3984,-0.6875l0.1719,-0.5703l-2.4375,-8.5391l2.375,0l1.0156,4.7735zm0.5078,-8.3203l2.4844,0l-2.1719,2.4218l-1.8437,0l1.5312,-2.4218zm10.1797,1.4687l0,2.0781l1.1328,0l0,1.6641l-1.1328,0l0,4.1953c0,0.3333 0.0443,0.5625 0.1328,0.6875c0.0938,0.125 0.2709,0.1875 0.5313,0.1875c0.2135,0 0.388,-0.0182 0.5234,-0.0547l-0.0156,1.7188c-0.375,0.1406 -0.7813,0.2109 -1.2187,0.2109c-1.4271,0 -2.1485,-0.8177 -2.1641,-2.4531l0,-4.4922l-0.9766,0l0,-1.6641l0.9766,0l0,-2.0781l2.2109,0zm4.5078,2.8203c0.4792,-0.5989 1.0677,-0.8984 1.7657,-0.8984c0.7708,0 1.3567,0.2708 1.7578,0.8125c0.401,0.5416 0.6041,1.3489 0.6093,2.4219l0,5.375l-2.2187,0l0,-5.3516c0,-0.4948 -0.0781,-0.8516 -0.2344,-1.0703c-0.151,-0.224 -0.3984,-0.336 -0.7422,-0.336c-0.401,0 -0.7135,0.1849 -0.9375,0.5547l0,6.2032l-2.2109,0l0,-12l2.2109,0l0,4.289zm9.7344,7.711c-0.0625,-0.1303 -0.125,-0.349 -0.1875,-0.6563c-0.3958,0.5417 -0.9323,0.8125 -1.6094,0.8125c-0.7083,0 -1.2968,-0.2344 -1.7656,-0.7031c-0.4635,-0.4688 -0.6953,-1.0755 -0.6953,-1.8203c0,-0.8855 0.2812,-1.5703 0.8438,-2.0547c0.5677,-0.4844 1.3828,-0.7318 2.4453,-0.7422l0.6718,0l0,-0.6797c0,-0.3802 -0.0651,-0.6484 -0.1953,-0.8047c-0.1302,-0.1562 -0.3203,-0.2344 -0.5703,-0.2344c-0.5521,0 -0.8281,0.323 -0.8281,0.9688l-2.211,0c0,-0.7813 0.2917,-1.4245 0.875,-1.9297c0.5886,-0.5104 1.3308,-0.7656 2.2266,-0.7656c0.9271,0 1.6432,0.2422 2.1484,0.7265c0.5105,0.4792 0.7657,1.1667 0.7657,2.0625l0,3.9766c0.0104,0.7292 0.1146,1.2995 0.3125,1.7109l0,0.1329l-2.2266,0zm-1.3047,-1.5782c0.2448,0 0.4531,-0.0495 0.625,-0.1484c0.1719,-0.099 0.2995,-0.2162 0.3828,-0.3516l0,-1.7578l-0.5312,0c-0.375,0 -0.6719,0.1198 -0.8906,0.3594c-0.2136,0.2396 -0.3203,0.5599 -0.3203,0.9609c0,0.625 0.2447,0.9375 0.7343,0.9375zm6.8989,-6.875l0.062,0.7813c0.495,-0.625 1.148,-0.9375 1.961,-0.9375c0.844,0 1.44,0.3802 1.789,1.1406c0.484,-0.7604 1.175,-1.1406 2.07,-1.1406c1.48,0 2.237,1.0234 2.274,3.0703l0,5.5391l-2.211,0l0,-5.3985c0,-0.4896 -0.068,-0.8385 -0.203,-1.0469c-0.136,-0.2083 -0.365,-0.3125 -0.688,-0.3125c-0.411,0 -0.718,0.2526 -0.922,0.7579l0.016,0.2656l0,5.7344l-2.211,0l0,-5.3829c0,-0.4843 -0.065,-0.8333 -0.195,-1.0468c-0.13,-0.2188 -0.362,-0.3282 -0.696,-0.3282c-0.38,0 -0.682,0.2058 -0.906,0.6172l0,6.1407l-2.211,0l0,-8.4532l2.071,0zm13.218,3.9688c0,-1.3854 0.25,-2.4193 0.75,-3.1016c0.5,-0.6823 1.201,-1.0234 2.102,-1.0234c0.766,0 1.357,0.3021 1.773,0.9062l0.086,-0.75l1.992,0l0,8.4532c0,1.0781 -0.302,1.901 -0.906,2.4687c-0.604,0.5729 -1.471,0.8594 -2.601,0.8594c-0.464,0 -0.951,-0.0938 -1.461,-0.2813c-0.511,-0.1823 -0.891,-0.4166 -1.141,-0.7031l0.742,-1.5312c0.209,0.2187 0.479,0.3958 0.813,0.5312c0.333,0.1406 0.648,0.2109 0.945,0.2109c0.495,0 0.849,-0.1198 1.063,-0.3593c0.218,-0.2344 0.33,-0.6146 0.335,-1.1407l0,-0.7265c-0.421,0.5521 -0.971,0.8281 -1.648,0.8281c-0.901,0 -1.599,-0.349 -2.094,-1.0469c-0.489,-0.7031 -0.739,-1.6927 -0.75,-2.9687l0,-0.625zm2.211,0.5547c0,0.7812 0.102,1.3515 0.305,1.7109c0.203,0.3542 0.526,0.5313 0.969,0.5313c0.453,0 0.789,-0.1641 1.007,-0.4922l0,-4.0391c-0.229,-0.3594 -0.559,-0.5391 -0.992,-0.5391c-0.437,0 -0.763,0.1797 -0.976,0.5391c-0.209,0.3594 -0.313,0.9375 -0.313,1.7344l0,0.5547zm8.422,3.9297l-2.219,0l0,-8.4532l2.219,0l0,8.4532zm-2.32,-10.6407c0,-0.3437 0.109,-0.625 0.328,-0.8437c0.219,-0.2188 0.51,-0.3281 0.875,-0.3281c0.365,0 0.656,0.1093 0.875,0.3281c0.219,0.2187 0.328,0.5 0.328,0.8437c0,0.3386 -0.109,0.6198 -0.328,0.8438c-0.214,0.2239 -0.505,0.3359 -0.875,0.3359c-0.37,0 -0.664,-0.112 -0.883,-0.3359c-0.213,-0.224 -0.32,-0.5052 -0.32,-0.8438zm8.047,10.6407c-0.063,-0.1303 -0.125,-0.349 -0.188,-0.6563c-0.396,0.5417 -0.932,0.8125 -1.609,0.8125c-0.709,0 -1.297,-0.2344 -1.766,-0.7031c-0.463,-0.4688 -0.695,-1.0755 -0.695,-1.8203c0,-0.8855 0.281,-1.5703 0.844,-2.0547c0.567,-0.4844 1.382,-0.7318 2.445,-0.7422l0.672,0l0,-0.6797c0,-0.3802 -0.065,-0.6484 -0.195,-0.8047c-0.131,-0.1562 -0.321,-0.2344 -0.571,-0.2344c-0.552,0 -0.828,0.323 -0.828,0.9688l-2.211,0c0,-0.7813 0.292,-1.4245 0.875,-1.9297c0.589,-0.5104 1.331,-0.7656 2.227,-0.7656c0.927,0 1.643,0.2422 2.148,0.7265c0.511,0.4792 0.766,1.1667 0.766,2.0625l0,3.9766c0.01,0.7292 0.114,1.2995 0.312,1.7109l0,0.1329l-2.226,0zm-1.305,-1.5782c0.245,0 0.453,-0.0495 0.625,-0.1484c0.172,-0.099 0.299,-0.2162 0.383,-0.3516l0,-1.7578l-0.531,0c-0.375,0 -0.672,0.1198 -0.891,0.3594c-0.214,0.2396 -0.32,0.5599 -0.32,0.9609c0,0.401 0.244,0.9375 0.734,0.9375z"/>
  <text stroke="null" transform="matrix(0.9550399708367159,0,0,1.100169240920401,3.3106922120366873,10.116173537911655) " font-weight="bold" xml:space="preserve" text-anchor="start" font-family="roboto" font-size="14" id="svg_5" y="47.250603" x="7.126554" stroke-opacity="null" stroke-width="0" fill="#27ae60">Đăng ký thành công</text>
 </g>
</svg>