<svg width="20" height="20" viewBox="0 0 20 20" xmlns="http://www.w3.org/2000/svg" preserveAspectRatio="xMidYMid meet">

 <g>
  <title>background</title>
  <rect fill="none" id="canvas_background" height="22" width="22" y="-1" x="-1"/>
 </g>
 <g>
  <title>Layer 1</title>
  <g id="svg_1" fill="#a9a9a9" transform="translate(0,200) scale(0.10000000149011612,-0.10000000149011612) ">
   <path stroke="null" id="svg_2" d="m75.450877,1994.574545c-17.629239,-4.931405 -36.727582,-18.025135 -48.806875,-33.329495c-35.911413,-45.743032 -25.790924,-116.483185 21.383614,-148.112196l9.794022,-6.631889l2.448505,9.86281l2.611739,9.692761l-8.161685,6.461841c-13.548397,10.713052 -24.321821,27.037703 -28.565897,43.532402c-3.264674,12.07344 -2.448505,34.179738 1.469103,46.423226c15.180734,46.593274 65.130245,68.699572 106.918071,47.273468c9.957255,-5.101453 19.914511,-13.603876 29.382065,-25.507267c4.40731,-5.271502 6.366114,-6.291792 14.527799,-7.312083c5.223478,-0.680194 9.794022,-0.850242 10.283723,-0.340097c1.469103,1.530436 -9.467554,19.555571 -17.629239,29.078284c-18.445408,20.915959 -42.277527,31.458962 -70.516957,31.288914c-9.141087,0 -20.567446,-1.190339 -25.137989,-2.380678z"/>
   <path stroke="null" id="svg_3" d="m96.042776,1953.252773c-3.754375,-3.23092 -3.917609,-4.251211 -4.40731,-28.057994l-0.489701,-24.657025l-12.895462,-5.44155c-7.182283,-3.060872 -13.874864,-6.461841 -14.854266,-7.822229c-2.938207,-3.741066 -2.448505,-12.07344 0.979402,-15.984554c4.897011,-5.611599 12.242527,-4.251211 31.014402,5.44155l17.139538,9.012568l0,31.458962c0,33.839641 -0.489701,36.390367 -8.324918,38.2609c-2.774973,0.680194 -5.386712,0 -8.161685,-2.21063z"/>
   <path stroke="null" id="svg_4" d="m129.34245,1880.311233l-41.298125,-43.022257l-3.264674,-16.834796c-1.795571,-9.182616 -3.264674,-17.685038 -3.264674,-18.875377c0,-1.700484 4.080842,-1.360388 17.629239,1.700484l17.466005,3.911114l40.318723,43.192305c30.361467,32.309205 40.481957,44.042547 40.481957,47.10342c0,8.672471 -16.32337,25.677315 -24.648288,25.677315c-1.30587,0 -20.893913,-19.385523 -43.420163,-42.852208zm-23.995353,-45.743032c6.529348,-4.081163 12.568995,-13.773924 11.752826,-18.875377c-0.326467,-2.890824 -2.285272,-4.251211 -7.50875,-5.951696l-6.855815,-2.040581l-7.019049,7.142035c-6.692582,6.801938 -7.019049,7.482132 -5.549946,13.09373c2.774973,11.053149 6.039647,12.583585 15.180734,6.631889z"/>
  </g>
 </g>
</svg>