<svg width="238" height="8" viewBox="0 0 238 8" fill="none" xmlns="http://www.w3.org/2000/svg">
<rect width="3" height="3" fill="#ECECEC"/>
<rect width="3" height="3" fill="#ECECEC"/>
<rect x="5" width="3" height="3" fill="#ECECEC"/>
<rect x="5" width="3" height="3" fill="#ECECEC"/>
<rect x="10" width="3" height="3" fill="#ECECEC"/>
<rect x="10" width="3" height="3" fill="#ECECEC"/>
<rect x="15" width="3" height="3" fill="#ECECEC"/>
<rect x="15" width="3" height="3" fill="#ECECEC"/>
<rect x="20" width="3" height="3" fill="#ECECEC"/>
<rect x="20" width="3" height="3" fill="#ECECEC"/>
<rect x="25" width="3" height="3" fill="#ECECEC"/>
<rect x="25" width="3" height="3" fill="#ECECEC"/>
<rect x="30" width="3" height="3" fill="#ECECEC"/>
<rect x="30" width="3" height="3" fill="#ECECEC"/>
<rect x="35" width="3" height="3" fill="#ECECEC"/>
<rect x="35" width="3" height="3" fill="#ECECEC"/>
<rect x="40" width="3" height="3" fill="#ECECEC"/>
<rect x="40" width="3" height="3" fill="#ECECEC"/>
<rect x="45" width="3" height="3" fill="#ECECEC"/>
<rect x="45" width="3" height="3" fill="#ECECEC"/>
<rect x="50" width="3" height="3" fill="#ECECEC"/>
<rect x="50" width="3" height="3" fill="#ECECEC"/>
<rect x="55" width="3" height="3" fill="#ECECEC"/>
<rect x="55" width="3" height="3" fill="#ECECEC"/>
<rect x="60" width="3" height="3" fill="#ECECEC"/>
<rect x="60" width="3" height="3" fill="#ECECEC"/>
<rect x="65" width="3" height="3" fill="#ECECEC"/>
<rect x="65" width="3" height="3" fill="#ECECEC"/>
<rect x="70" width="3" height="3" fill="#ECECEC"/>
<rect x="70" width="3" height="3" fill="#ECECEC"/>
<rect x="75" width="3" height="3" fill="#ECECEC"/>
<rect x="75" width="3" height="3" fill="#ECECEC"/>
<rect x="80" width="3" height="3" fill="#ECECEC"/>
<rect x="80" width="3" height="3" fill="#ECECEC"/>
<rect x="85" width="3" height="3" fill="#ECECEC"/>
<rect x="85" width="3" height="3" fill="#ECECEC"/>
<rect x="90" width="3" height="3" fill="#ECECEC"/>
<rect x="90" width="3" height="3" fill="#ECECEC"/>
<rect x="95" width="3" height="3" fill="#ECECEC"/>
<rect x="95" width="3" height="3" fill="#ECECEC"/>
<rect x="100" width="3" height="3" fill="#ECECEC"/>
<rect x="100" width="3" height="3" fill="#ECECEC"/>
<rect x="105" width="3" height="3" fill="#ECECEC"/>
<rect x="105" width="3" height="3" fill="#ECECEC"/>
<rect x="110" width="3" height="3" fill="#ECECEC"/>
<rect x="110" width="3" height="3" fill="#ECECEC"/>
<rect x="115" width="3" height="3" fill="#ECECEC"/>
<rect x="115" width="3" height="3" fill="#ECECEC"/>
<rect x="120" width="3" height="3" fill="#ECECEC"/>
<rect x="120" width="3" height="3" fill="#ECECEC"/>
<rect x="125" width="3" height="3" fill="#ECECEC"/>
<rect x="125" width="3" height="3" fill="#ECECEC"/>
<rect x="130" width="3" height="3" fill="#ECECEC"/>
<rect x="130" width="3" height="3" fill="#ECECEC"/>
<rect x="135" width="3" height="3" fill="#ECECEC"/>
<rect x="135" width="3" height="3" fill="#ECECEC"/>
<rect x="140" width="3" height="3" fill="#ECECEC"/>
<rect x="140" width="3" height="3" fill="#ECECEC"/>
<rect x="145" width="3" height="3" fill="#ECECEC"/>
<rect x="145" width="3" height="3" fill="#ECECEC"/>
<rect x="150" width="3" height="3" fill="#ECECEC"/>
<rect x="150" width="3" height="3" fill="#ECECEC"/>
<rect x="155" width="3" height="3" fill="#ECECEC"/>
<rect x="155" width="3" height="3" fill="#ECECEC"/>
<rect x="160" width="3" height="3" fill="#ECECEC"/>
<rect x="160" width="3" height="3" fill="#ECECEC"/>
<rect x="165" width="3" height="3" fill="#ECECEC"/>
<rect x="165" width="3" height="3" fill="#ECECEC"/>
<rect x="170" width="3" height="3" fill="#ECECEC"/>
<rect x="170" width="3" height="3" fill="#ECECEC"/>
<rect x="175" width="3" height="3" fill="#ECECEC"/>
<rect x="175" width="3" height="3" fill="#ECECEC"/>
<rect x="180" width="3" height="3" fill="#ECECEC"/>
<rect x="180" width="3" height="3" fill="#ECECEC"/>
<rect x="185" width="3" height="3" fill="#ECECEC"/>
<rect x="185" width="3" height="3" fill="#ECECEC"/>
<rect x="190" width="3" height="3" fill="#ECECEC"/>
<rect x="190" width="3" height="3" fill="#ECECEC"/>
<rect x="195" width="3" height="3" fill="#ECECEC"/>
<rect x="195" width="3" height="3" fill="#ECECEC"/>
<rect x="200" width="3" height="3" fill="#ECECEC"/>
<rect x="200" width="3" height="3" fill="#ECECEC"/>
<rect x="205" width="3" height="3" fill="#ECECEC"/>
<rect x="205" width="3" height="3" fill="#ECECEC"/>
<rect x="210" width="3" height="3" fill="#ECECEC"/>
<rect x="210" width="3" height="3" fill="#ECECEC"/>
<rect x="215" width="3" height="3" fill="#ECECEC"/>
<rect x="215" width="3" height="3" fill="#ECECEC"/>
<rect x="220" width="3" height="3" fill="#ECECEC"/>
<rect x="220" width="3" height="3" fill="#ECECEC"/>
<rect x="225" width="3" height="3" fill="#ECECEC"/>
<rect x="225" width="3" height="3" fill="#ECECEC"/>
<rect x="230" width="3" height="3" fill="#ECECEC"/>
<rect x="230" width="3" height="3" fill="#ECECEC"/>
<rect x="235" width="3" height="3" fill="#ECECEC"/>
<rect x="235" width="3" height="3" fill="#ECECEC"/>
<rect y="5" width="3" height="3" fill="#ECECEC"/>
<rect y="5" width="3" height="3" fill="#ECECEC"/>
<rect x="5" y="5" width="3" height="3" fill="#ECECEC"/>
<rect x="5" y="5" width="3" height="3" fill="#ECECEC"/>
<rect x="10" y="5" width="3" height="3" fill="#ECECEC"/>
<rect x="10" y="5" width="3" height="3" fill="#ECECEC"/>
<rect x="15" y="5" width="3" height="3" fill="#ECECEC"/>
<rect x="15" y="5" width="3" height="3" fill="#ECECEC"/>
<rect x="20" y="5" width="3" height="3" fill="#ECECEC"/>
<rect x="20" y="5" width="3" height="3" fill="#ECECEC"/>
<rect x="25" y="5" width="3" height="3" fill="#ECECEC"/>
<rect x="25" y="5" width="3" height="3" fill="#ECECEC"/>
<rect x="30" y="5" width="3" height="3" fill="#ECECEC"/>
<rect x="30" y="5" width="3" height="3" fill="#ECECEC"/>
<rect x="35" y="5" width="3" height="3" fill="#ECECEC"/>
<rect x="35" y="5" width="3" height="3" fill="#ECECEC"/>
<rect x="40" y="5" width="3" height="3" fill="#ECECEC"/>
<rect x="40" y="5" width="3" height="3" fill="#ECECEC"/>
<rect x="45" y="5" width="3" height="3" fill="#ECECEC"/>
<rect x="45" y="5" width="3" height="3" fill="#ECECEC"/>
<rect x="50" y="5" width="3" height="3" fill="#ECECEC"/>
<rect x="50" y="5" width="3" height="3" fill="#ECECEC"/>
<rect x="55" y="5" width="3" height="3" fill="#ECECEC"/>
<rect x="55" y="5" width="3" height="3" fill="#ECECEC"/>
<rect x="60" y="5" width="3" height="3" fill="#ECECEC"/>
<rect x="60" y="5" width="3" height="3" fill="#ECECEC"/>
<rect x="65" y="5" width="3" height="3" fill="#ECECEC"/>
<rect x="65" y="5" width="3" height="3" fill="#ECECEC"/>
<rect x="70" y="5" width="3" height="3" fill="#ECECEC"/>
<rect x="70" y="5" width="3" height="3" fill="#ECECEC"/>
<rect x="75" y="5" width="3" height="3" fill="#ECECEC"/>
<rect x="75" y="5" width="3" height="3" fill="#ECECEC"/>
<rect x="80" y="5" width="3" height="3" fill="#ECECEC"/>
<rect x="80" y="5" width="3" height="3" fill="#ECECEC"/>
<rect x="85" y="5" width="3" height="3" fill="#ECECEC"/>
<rect x="85" y="5" width="3" height="3" fill="#ECECEC"/>
<rect x="90" y="5" width="3" height="3" fill="#ECECEC"/>
<rect x="90" y="5" width="3" height="3" fill="#ECECEC"/>
<rect x="95" y="5" width="3" height="3" fill="#ECECEC"/>
<rect x="95" y="5" width="3" height="3" fill="#ECECEC"/>
<rect x="100" y="5" width="3" height="3" fill="#ECECEC"/>
<rect x="100" y="5" width="3" height="3" fill="#ECECEC"/>
<rect x="105" y="5" width="3" height="3" fill="#ECECEC"/>
<rect x="105" y="5" width="3" height="3" fill="#ECECEC"/>
<rect x="110" y="5" width="3" height="3" fill="#ECECEC"/>
<rect x="110" y="5" width="3" height="3" fill="#ECECEC"/>
<rect x="115" y="5" width="3" height="3" fill="#ECECEC"/>
<rect x="115" y="5" width="3" height="3" fill="#ECECEC"/>
<rect x="120" y="5" width="3" height="3" fill="#ECECEC"/>
<rect x="120" y="5" width="3" height="3" fill="#ECECEC"/>
<rect x="125" y="5" width="3" height="3" fill="#ECECEC"/>
<rect x="125" y="5" width="3" height="3" fill="#ECECEC"/>
<rect x="130" y="5" width="3" height="3" fill="#ECECEC"/>
<rect x="130" y="5" width="3" height="3" fill="#ECECEC"/>
<rect x="135" y="5" width="3" height="3" fill="#ECECEC"/>
<rect x="135" y="5" width="3" height="3" fill="#ECECEC"/>
<rect x="140" y="5" width="3" height="3" fill="#ECECEC"/>
<rect x="140" y="5" width="3" height="3" fill="#ECECEC"/>
<rect x="145" y="5" width="3" height="3" fill="#ECECEC"/>
<rect x="145" y="5" width="3" height="3" fill="#ECECEC"/>
<rect x="150" y="5" width="3" height="3" fill="#ECECEC"/>
<rect x="150" y="5" width="3" height="3" fill="#ECECEC"/>
<rect x="155" y="5" width="3" height="3" fill="#ECECEC"/>
<rect x="155" y="5" width="3" height="3" fill="#ECECEC"/>
<rect x="160" y="5" width="3" height="3" fill="#ECECEC"/>
<rect x="160" y="5" width="3" height="3" fill="#ECECEC"/>
<rect x="165" y="5" width="3" height="3" fill="#ECECEC"/>
<rect x="165" y="5" width="3" height="3" fill="#ECECEC"/>
<rect x="170" y="5" width="3" height="3" fill="#ECECEC"/>
<rect x="170" y="5" width="3" height="3" fill="#ECECEC"/>
<rect x="175" y="5" width="3" height="3" fill="#ECECEC"/>
<rect x="175" y="5" width="3" height="3" fill="#ECECEC"/>
<rect x="180" y="5" width="3" height="3" fill="#ECECEC"/>
<rect x="180" y="5" width="3" height="3" fill="#ECECEC"/>
<rect x="185" y="5" width="3" height="3" fill="#ECECEC"/>
<rect x="185" y="5" width="3" height="3" fill="#ECECEC"/>
<rect x="190" y="5" width="3" height="3" fill="#ECECEC"/>
<rect x="190" y="5" width="3" height="3" fill="#ECECEC"/>
<rect x="195" y="5" width="3" height="3" fill="#ECECEC"/>
<rect x="195" y="5" width="3" height="3" fill="#ECECEC"/>
<rect x="200" y="5" width="3" height="3" fill="#ECECEC"/>
<rect x="200" y="5" width="3" height="3" fill="#ECECEC"/>
<rect x="205" y="5" width="3" height="3" fill="#ECECEC"/>
<rect x="205" y="5" width="3" height="3" fill="#ECECEC"/>
<rect x="210" y="5" width="3" height="3" fill="#ECECEC"/>
<rect x="210" y="5" width="3" height="3" fill="#ECECEC"/>
<rect x="215" y="5" width="3" height="3" fill="#ECECEC"/>
<rect x="215" y="5" width="3" height="3" fill="#ECECEC"/>
<rect x="220" y="5" width="3" height="3" fill="#ECECEC"/>
<rect x="220" y="5" width="3" height="3" fill="#ECECEC"/>
<rect x="225" y="5" width="3" height="3" fill="#ECECEC"/>
<rect x="225" y="5" width="3" height="3" fill="#ECECEC"/>
<rect x="230" y="5" width="3" height="3" fill="#ECECEC"/>
<rect x="230" y="5" width="3" height="3" fill="#ECECEC"/>
<rect x="235" y="5" width="3" height="3" fill="#ECECEC"/>
<rect x="235" y="5" width="3" height="3" fill="#ECECEC"/>
</svg>
