<svg width="14" height="14" viewBox="0 0 14 14" fill="none" xmlns="http://www.w3.org/2000/svg">
<path d="M6.99998 0.333984C3.31998 0.333984 0.333313 3.32065 0.333313 7.00065C0.333313 10.6807 3.31998 13.6673 6.99998 13.6673C10.68 13.6673 13.6666 10.6807 13.6666 7.00065C13.6666 3.32065 10.68 0.333984 6.99998 0.333984ZM9.66665 7.66732H7.66665V9.66732C7.66665 10.034 7.36665 10.334 6.99998 10.334C6.63331 10.334 6.33331 10.034 6.33331 9.66732V7.66732H4.33331C3.96665 7.66732 3.66665 7.36732 3.66665 7.00065C3.66665 6.63398 3.96665 6.33398 4.33331 6.33398H6.33331V4.33398C6.33331 3.96732 6.63331 3.66732 6.99998 3.66732C7.36665 3.66732 7.66665 3.96732 7.66665 4.33398V6.33398H9.66665C10.0333 6.33398 10.3333 6.63398 10.3333 7.00065C10.3333 7.36732 10.0333 7.66732 9.66665 7.66732Z" fill="#F19B40"/>
</svg>
