<svg width="141" height="70" viewBox="0 0 141 70" fill="none" xmlns="http://www.w3.org/2000/svg">
<path d="M4.41406 63V51.625H7.92969C9.11719 51.625 10.0182 51.8906 10.6328 52.4219C11.2526 52.9479 11.5625 53.7214 11.5625 54.7422C11.5625 55.3203 11.4349 55.8177 11.1797 56.2344C10.9245 56.651 10.5755 56.9557 10.1328 57.1484C10.6432 57.2943 11.0365 57.5885 11.3125 58.0312C11.5885 58.4688 11.7266 59.0104 11.7266 59.6562C11.7266 60.7604 11.4219 61.5938 10.8125 62.1562C10.2083 62.7188 9.33073 63 8.17969 63H4.41406ZM6.71094 58.0547V61.0938H8.17969C8.59115 61.0938 8.90365 60.9661 9.11719 60.7109C9.33073 60.4557 9.4375 60.0938 9.4375 59.625C9.4375 58.6042 9.06771 58.0807 8.32812 58.0547H6.71094ZM6.71094 56.3828H7.90625C8.80729 56.3828 9.25781 55.9167 9.25781 54.9844C9.25781 54.4688 9.15365 54.099 8.94531 53.875C8.73698 53.651 8.39844 53.5391 7.92969 53.5391H6.71094V56.3828ZM17.3047 63C17.2422 62.8698 17.1797 62.651 17.1172 62.3438C16.7214 62.8854 16.1849 63.1562 15.5078 63.1562C14.7995 63.1562 14.2109 62.9219 13.7422 62.4531C13.2786 61.9844 13.0469 61.3776 13.0469 60.6328C13.0469 59.7474 13.3281 59.0625 13.8906 58.5781C14.4583 58.0938 15.2734 57.8464 16.3359 57.8359H17.0078V57.1562C17.0078 56.776 16.9427 56.5078 16.8125 56.3516C16.6823 56.1953 16.4922 56.1172 16.2422 56.1172C15.6901 56.1172 15.4141 56.4401 15.4141 57.0859H13.2031C13.2031 56.3047 13.4948 55.6615 14.0781 55.1562C14.6667 54.6458 15.4089 54.3906 16.3047 54.3906C17.2318 54.3906 17.9479 54.6328 18.4531 55.1172C18.9635 55.5964 19.2188 56.2839 19.2188 57.1797V61.1562C19.2292 61.8854 19.3333 62.4557 19.5312 62.8672V63H17.3047ZM16 61.4219C16.2448 61.4219 16.4531 61.3724 16.625 61.2734C16.7969 61.1745 16.9245 61.0573 17.0078 60.9219V59.1641H16.4766C16.1016 59.1641 15.8047 59.2839 15.5859 59.5234C15.3724 59.763 15.2656 60.0833 15.2656 60.4844C15.2656 61.1094 15.5104 61.4219 16 61.4219ZM15.7109 63.6172C16.0911 63.6172 16.3984 63.7188 16.6328 63.9219C16.8724 64.1302 16.9922 64.3906 16.9922 64.7031C16.9922 65.0156 16.8724 65.2734 16.6328 65.4766C16.3984 65.6849 16.0911 65.7891 15.7109 65.7891C15.3359 65.7891 15.0286 65.6849 14.7891 65.4766C14.5547 65.2734 14.4375 65.0156 14.4375 64.7031C14.4375 64.3906 14.5547 64.1302 14.7891 63.9219C15.0286 63.7188 15.3359 63.6172 15.7109 63.6172ZM22.8438 54.5469L22.9062 55.3828C23.4062 54.7214 24.0599 54.3906 24.8672 54.3906C26.3203 54.3906 27.0677 55.4089 27.1094 57.4453V63H24.8906V57.6094C24.8906 57.1302 24.8177 56.7839 24.6719 56.5703C24.5312 56.3516 24.2812 56.2422 23.9219 56.2422C23.5208 56.2422 23.2083 56.4479 22.9844 56.8594V63H20.7656V54.5469H22.8438ZM39.7109 53.4844H38.6875V63H36.6875L36.5938 62.25C36.1458 62.8542 35.5755 63.1562 34.8828 63.1562C34.0391 63.1562 33.362 62.7656 32.8516 61.9844C32.3411 61.2031 32.0859 60.112 32.0859 58.7109C32.0859 57.3932 32.3333 56.3438 32.8281 55.5625C33.3281 54.7812 34.0156 54.3906 34.8906 54.3906C35.5156 54.3906 36.0391 54.6354 36.4609 55.125V53.4844H34.9688V52.0547H36.4609V51H38.6875V52.0547H39.7109V53.4844ZM34.3047 58.875C34.3047 60.5 34.6927 61.3125 35.4688 61.3125C35.9167 61.3125 36.2474 61.0859 36.4609 60.6328V56.9688C36.2474 56.4844 35.9193 56.2422 35.4766 56.2422C35.1016 56.2422 34.8125 56.4453 34.6094 56.8516C34.4062 57.2578 34.3047 57.9323 34.3047 58.875ZM45.4141 63C45.3516 62.8698 45.2891 62.651 45.2266 62.3438C44.8307 62.8854 44.2943 63.1562 43.6172 63.1562C42.9089 63.1562 42.3203 62.9219 41.8516 62.4531C41.388 61.9844 41.1562 61.3776 41.1562 60.6328C41.1562 59.7474 41.4375 59.0625 42 58.5781C42.5677 58.0938 43.3828 57.8464 44.4453 57.8359H45.1172V57.1562C45.1172 56.776 45.0521 56.5078 44.9219 56.3516C44.7917 56.1953 44.6016 56.1172 44.3516 56.1172C43.7995 56.1172 43.5234 56.4401 43.5234 57.0859H41.3125C41.3125 56.3047 41.6042 55.6615 42.1875 55.1562C42.776 54.6458 43.5182 54.3906 44.4141 54.3906C45.3411 54.3906 46.0573 54.6328 46.5625 55.1172C47.0729 55.5964 47.3281 56.2839 47.3281 57.1797V61.1562C47.3385 61.8854 47.4427 62.4557 47.6406 62.8672V63H45.4141ZM44.1094 61.4219C44.3542 61.4219 44.5625 61.3724 44.7344 61.2734C44.9062 61.1745 45.0339 61.0573 45.1172 60.9219V59.1641H44.5859C44.2109 59.1641 43.9141 59.2839 43.6953 59.5234C43.4818 59.763 43.375 60.0833 43.375 60.4844C43.375 61.1094 43.6198 61.4219 44.1094 61.4219ZM46.8594 51.1094C46.8594 51.6875 46.7109 52.1797 46.4141 52.5859C46.1224 52.987 45.7526 53.1875 45.3047 53.1875C45.138 53.1875 44.9896 53.1641 44.8594 53.1172C44.7344 53.0703 44.5547 52.974 44.3203 52.8281C44.0911 52.6823 43.9271 52.5938 43.8281 52.5625C43.7344 52.5312 43.6302 52.5156 43.5156 52.5156C43.375 52.5156 43.2578 52.5807 43.1641 52.7109C43.0703 52.8359 43.0234 53.0182 43.0234 53.2578L41.7734 53.1875C41.7734 52.6094 41.9219 52.1172 42.2188 51.7109C42.5156 51.2995 42.8802 51.0938 43.3125 51.0938C43.4271 51.0938 43.5365 51.112 43.6406 51.1484C43.75 51.1797 43.9349 51.2708 44.1953 51.4219C44.4609 51.5677 44.651 51.6615 44.7656 51.7031C44.8802 51.7396 44.9948 51.7578 45.1094 51.7578C45.2448 51.7578 45.362 51.6953 45.4609 51.5703C45.5651 51.4401 45.6172 51.2552 45.6172 51.0156L46.8594 51.1094ZM55.1875 52.4688V54.5469H56.3203V56.2109H55.1875V60.4062C55.1875 60.7396 55.2318 60.9688 55.3203 61.0938C55.4141 61.2188 55.5911 61.2812 55.8516 61.2812C56.0651 61.2812 56.2396 61.263 56.375 61.2266L56.3594 62.9453C55.9844 63.0859 55.5781 63.1562 55.1406 63.1562C53.7135 63.1562 52.9922 62.3385 52.9766 60.7031V56.2109H52V54.5469H52.9766V52.4688H55.1875ZM61.7109 56.6797L60.9766 56.6172C60.3724 56.6172 59.9635 56.8828 59.75 57.4141V63H57.5312V54.5469H59.6172L59.6797 55.4609C60.0286 54.7474 60.5104 54.3906 61.125 54.3906C61.375 54.3906 61.5781 54.4245 61.7344 54.4922L61.7109 56.6797ZM67.0078 62.2266C66.5495 62.8464 65.9349 63.1562 65.1641 63.1562C64.388 63.1562 63.7995 62.8906 63.3984 62.3594C62.9974 61.8229 62.7969 61.0443 62.7969 60.0234V54.5469H65.0078V60.0781C65.0182 60.901 65.2917 61.3125 65.8281 61.3125C66.3333 61.3125 66.6979 61.0938 66.9219 60.6562V54.5469H69.1484V63H67.0703L67.0078 62.2266ZM66.3906 51H68.875L66.7031 53.4219H64.8594L66.3906 51ZM72.75 54.5469L72.8125 55.3828C73.3125 54.7214 73.9661 54.3906 74.7734 54.3906C76.2266 54.3906 76.974 55.4089 77.0156 57.4453V63H74.7969V57.6094C74.7969 57.1302 74.724 56.7839 74.5781 56.5703C74.4375 56.3516 74.1875 56.2422 73.8281 56.2422C73.4271 56.2422 73.1146 56.4479 72.8906 56.8594V63H70.6719V54.5469H72.75ZM78.3359 58.5156C78.3359 57.1302 78.5859 56.0964 79.0859 55.4141C79.5859 54.7318 80.2865 54.3906 81.1875 54.3906C81.9531 54.3906 82.5443 54.6927 82.9609 55.2969L83.0469 54.5469H85.0391V63C85.0391 64.0781 84.737 64.901 84.1328 65.4688C83.5286 66.0417 82.6615 66.3281 81.5312 66.3281C81.0677 66.3281 80.5807 66.2344 80.0703 66.0469C79.5599 65.8646 79.1797 65.6302 78.9297 65.3438L79.6719 63.8125C79.8802 64.0312 80.151 64.2083 80.4844 64.3438C80.8177 64.4844 81.1328 64.5547 81.4297 64.5547C81.9245 64.5547 82.2786 64.4349 82.4922 64.1953C82.7109 63.9609 82.8229 63.5807 82.8281 63.0547V62.3281C82.4062 62.8802 81.8568 63.1562 81.1797 63.1562C80.2786 63.1562 79.5807 62.8073 79.0859 62.1094C78.5964 61.4062 78.3464 60.4167 78.3359 59.1406V58.5156ZM80.5469 59.0703C80.5469 59.8516 80.6484 60.4219 80.8516 60.7812C81.0547 61.1354 81.3776 61.3125 81.8203 61.3125C82.2734 61.3125 82.6094 61.1484 82.8281 60.8203V56.7812C82.599 56.4219 82.2682 56.2422 81.8359 56.2422C81.3984 56.2422 81.0729 56.4219 80.8594 56.7812C80.651 57.1406 80.5469 57.7188 80.5469 58.5156V59.0703ZM97.6641 53.4844H96.6406V63H94.6406L94.5469 62.25C94.099 62.8542 93.5286 63.1562 92.8359 63.1562C91.9922 63.1562 91.3151 62.7656 90.8047 61.9844C90.2943 61.2031 90.0391 60.112 90.0391 58.7109C90.0391 57.3932 90.2865 56.3438 90.7812 55.5625C91.2812 54.7812 91.9688 54.3906 92.8438 54.3906C93.4688 54.3906 93.9922 54.6354 94.4141 55.125V53.4844H92.9219V52.0547H94.4141V51H96.6406V52.0547H97.6641V53.4844ZM92.2578 58.875C92.2578 60.5 92.6458 61.3125 93.4219 61.3125C93.8698 61.3125 94.2005 61.0859 94.4141 60.6328V56.9688C94.2005 56.4844 93.8724 56.2422 93.4297 56.2422C93.0547 56.2422 92.7656 56.4453 92.5625 56.8516C92.3594 57.2578 92.2578 57.9323 92.2578 58.875ZM103.367 63C103.305 62.8698 103.242 62.651 103.18 62.3438C102.784 62.8854 102.247 63.1562 101.57 63.1562C100.862 63.1562 100.273 62.9219 99.8047 62.4531C99.3411 61.9844 99.1094 61.3776 99.1094 60.6328C99.1094 59.7474 99.3906 59.0625 99.9531 58.5781C100.521 58.0938 101.336 57.8464 102.398 57.8359H103.07V57.1562C103.07 56.776 103.005 56.5078 102.875 56.3516C102.745 56.1953 102.555 56.1172 102.305 56.1172C101.753 56.1172 101.477 56.4401 101.477 57.0859H99.2656C99.2656 56.3047 99.5573 55.6615 100.141 55.1562C100.729 54.6458 101.471 54.3906 102.367 54.3906C103.294 54.3906 104.01 54.6328 104.516 55.1172C105.026 55.5964 105.281 56.2839 105.281 57.1797V61.1562C105.292 61.8854 105.396 62.4557 105.594 62.8672V63H103.367ZM102.062 61.4219C102.307 61.4219 102.516 61.3724 102.688 61.2734C102.859 61.1745 102.987 61.0573 103.07 60.9219V59.1641H102.539C102.164 59.1641 101.867 59.2839 101.648 59.5234C101.435 59.763 101.328 60.0833 101.328 60.4844C101.328 61.1094 101.573 61.4219 102.062 61.4219ZM101.688 51.6328H102.867L104.781 53.4297H103.195L102.273 52.4453L101.352 53.4297H99.7734L101.688 51.6328ZM105.359 50.2656H107.078L105.492 52.3906H104.266L105.359 50.2656ZM111.039 62.2266C110.581 62.8464 109.966 63.1562 109.195 63.1562C108.419 63.1562 107.831 62.8906 107.43 62.3594C107.029 61.8229 106.828 61.0443 106.828 60.0234V54.5469H109.039V60.0781C109.049 60.901 109.323 61.3125 109.859 61.3125C110.365 61.3125 110.729 61.0938 110.953 60.6562V54.5469H113.18V63H111.102L111.039 62.2266ZM118.18 58.5156C118.18 57.1302 118.43 56.0964 118.93 55.4141C119.43 54.7318 120.13 54.3906 121.031 54.3906C121.797 54.3906 122.388 54.6927 122.805 55.2969L122.891 54.5469H124.883V63C124.883 64.0781 124.581 64.901 123.977 65.4688C123.372 66.0417 122.505 66.3281 121.375 66.3281C120.911 66.3281 120.424 66.2344 119.914 66.0469C119.404 65.8646 119.023 65.6302 118.773 65.3438L119.516 63.8125C119.724 64.0312 119.995 64.2083 120.328 64.3438C120.661 64.4844 120.977 64.5547 121.273 64.5547C121.768 64.5547 122.122 64.4349 122.336 64.1953C122.555 63.9609 122.667 63.5807 122.672 63.0547V62.3281C122.25 62.8802 121.701 63.1562 121.023 63.1562C120.122 63.1562 119.424 62.8073 118.93 62.1094C118.44 61.4062 118.19 60.4167 118.18 59.1406V58.5156ZM120.391 59.0703C120.391 59.8516 120.492 60.4219 120.695 60.7812C120.898 61.1354 121.221 61.3125 121.664 61.3125C122.117 61.3125 122.453 61.1484 122.672 60.8203V56.7812C122.443 56.4219 122.112 56.2422 121.68 56.2422C121.242 56.2422 120.917 56.4219 120.703 56.7812C120.495 57.1406 120.391 57.7188 120.391 58.5156V59.0703ZM128.812 63H126.594V54.5469H128.812V63ZM126.492 52.3594C126.492 52.0156 126.602 51.7344 126.82 51.5156C127.039 51.2969 127.331 51.1875 127.695 51.1875C128.06 51.1875 128.352 51.2969 128.57 51.5156C128.789 51.7344 128.898 52.0156 128.898 52.3594C128.898 52.6979 128.789 52.9792 128.57 53.2031C128.357 53.4271 128.065 53.5391 127.695 53.5391C127.326 53.5391 127.031 53.4271 126.812 53.2031C126.599 52.9792 126.492 52.6979 126.492 52.3594ZM134.539 63C134.477 62.8698 134.414 62.651 134.352 62.3438C133.956 62.8854 133.419 63.1562 132.742 63.1562C132.034 63.1562 131.445 62.9219 130.977 62.4531C130.513 61.9844 130.281 61.3776 130.281 60.6328C130.281 59.7474 130.562 59.0625 131.125 58.5781C131.693 58.0938 132.508 57.8464 133.57 57.8359H134.242V57.1562C134.242 56.776 134.177 56.5078 134.047 56.3516C133.917 56.1953 133.727 56.1172 133.477 56.1172C132.924 56.1172 132.648 56.4401 132.648 57.0859H130.438C130.438 56.3047 130.729 55.6615 131.312 55.1562C131.901 54.6458 132.643 54.3906 133.539 54.3906C134.466 54.3906 135.182 54.6328 135.688 55.1172C136.198 55.5964 136.453 56.2839 136.453 57.1797V61.1562C136.464 61.8854 136.568 62.4557 136.766 62.8672V63H134.539ZM133.234 61.4219C133.479 61.4219 133.688 61.3724 133.859 61.2734C134.031 61.1745 134.159 61.0573 134.242 60.9219V59.1641H133.711C133.336 59.1641 133.039 59.2839 132.82 59.5234C132.607 59.763 132.5 60.0833 132.5 60.4844C132.5 61.1094 132.745 61.4219 133.234 61.4219ZM133.898 51H136.383L134.211 53.4219H132.367L133.898 51Z" fill="#27AE60"/>
<path d="M78.9571 24.2878L78.3184 25.2703V30.8252C78.3184 31.1363 78.6696 31.3176 78.9232 31.1375L81.019 29.6487C81.1518 29.5542 81.3298 29.5542 81.4626 29.6487L83.5584 31.1375C83.812 31.3177 84.1632 31.1363 84.1632 30.8252V20.9904L83.0323 20.8838C81.8892 22.6641 79.5623 24.0412 78.9571 24.2878Z" fill="#FF5876"/>
<path d="M78.3184 23.8817V25.2704C78.9321 25.0219 79.522 24.722 80.0852 24.3685C81.6532 23.3847 83.2173 22.2422 84.1632 20.9905V18.8135L78.3184 23.8817Z" fill="#E6485D"/>
<path d="M86.8033 7.66007C86.2929 7.0592 85.548 6.7146 84.7595 6.7146H81.6408L80.6207 7.37299L80.3976 8.32351L81.0871 9.01301H84.7594C84.9138 9.01301 85.0087 9.09762 85.0515 9.14808C85.0944 9.19848 85.1624 9.30587 85.1374 9.45817C84.843 11.253 84.075 14.692 82.239 17.5583C81.0908 19.3509 79.6955 20.6571 78.0667 21.47L76.3881 23.0507L76.2129 24.5154C77.5994 24.2363 78.8877 23.7267 80.0625 22.9894C81.6459 21.9959 83.0293 20.5857 84.1743 18.7979C86.1299 15.7451 87.0108 12.2363 87.4055 9.83015C87.5333 9.05197 87.3137 8.26102 86.8033 7.66007Z" fill="#FF9517"/>
<path d="M79.7076 9.013H81.0866L81.6403 6.7146H80.2613L79.2949 7.8638L79.7076 9.013Z" fill="#EF7F0F"/>
<path d="M76.4583 22.0912L74.9752 23.2035L74.6074 24.7322C75.156 24.6927 75.6911 24.6191 76.2128 24.5141C77.0486 23.6787 77.6938 22.6432 78.0665 21.4695C77.5535 21.7256 77.0174 21.9333 76.4583 22.0912Z" fill="#EF7F0F"/>
<path d="M81.2785 4.06855H57.7452C56.9836 4.06855 56.4334 2.89189 56.551 2.6889C56.7895 2.27706 57.235 2 57.7452 2H81.2785C81.7887 2 82.2342 2.27706 82.4727 2.6889C82.5903 2.89189 82.0402 4.06855 81.2785 4.06855Z" fill="#FF9517"/>
<path d="M81.2776 3.37895H57.7443C57.2341 3.37895 56.7898 3.10122 56.5512 2.68945C56.4337 2.89244 56.3652 3.12749 56.3652 3.37895C56.3652 4.14058 56.9827 4.758 57.7443 4.758H81.2776C82.0393 4.758 82.6567 4.14058 82.6567 3.37895C82.6567 3.12749 82.5883 2.89244 82.4707 2.68945C82.2321 3.10122 81.7878 3.37895 81.2776 3.37895Z" fill="#EF7F0F"/>
<path d="M60.0421 24.2878L60.6808 25.2703V30.8252C60.6808 31.1363 60.3295 31.3176 60.0759 31.1375L57.9802 29.6487C57.8474 29.5542 57.6694 29.5542 57.5365 29.6487L55.4408 31.1375C55.1872 31.3177 54.8359 31.1363 54.8359 30.8252V20.9904L55.9669 20.8838C57.11 22.6641 59.4369 24.0412 60.0421 24.2878Z" fill="#FF5876"/>
<path d="M60.6808 23.8817V25.2704C60.0671 25.0219 59.4772 24.722 58.914 24.3685C57.346 23.3847 55.7819 22.2422 54.8359 20.9905V18.8135L60.6808 23.8817Z" fill="#E6485D"/>
<path d="M52.1964 7.66007C52.7068 7.0592 53.4518 6.7146 54.2403 6.7146H57.3589L58.379 7.37299L58.6021 8.32344L57.9126 9.01293H54.2403C54.0859 9.01293 53.991 9.09754 53.9482 9.14801C53.9053 9.1984 53.8372 9.3058 53.8622 9.4581C54.1566 11.2529 54.9246 14.6919 56.7606 17.5582C57.9088 19.3508 59.3041 20.657 60.9329 21.47L62.6115 23.0506L62.7867 24.5153C61.4002 24.2362 60.1119 23.7266 58.9371 22.9894C57.3538 21.9959 55.9703 20.5856 54.8253 18.7979C52.8697 15.745 51.9888 12.2362 51.5942 9.83008C51.4665 9.05197 51.686 8.26102 52.1964 7.66007Z" fill="#FF9517"/>
<path d="M59.2921 9.013H57.913L57.3594 6.7146H58.7384L59.7048 7.8638L59.2921 9.013Z" fill="#EF7F0F"/>
<path d="M62.5418 22.0912L64.025 23.2035L64.3927 24.7322C63.844 24.6927 63.309 24.6191 62.7874 24.5141C61.9516 23.6787 61.3063 22.6432 60.9336 21.4695C61.4467 21.7256 61.9828 21.9333 62.5418 22.0912Z" fill="#EF7F0F"/>
<path d="M73.0858 36.9596L74.967 37.293C75.9015 37.4587 76.7433 37.9141 77.3863 38.5745C77.4015 38.5901 77.4172 38.6056 77.4287 38.6209L76.9268 39.3104H62.0837L61.5968 38.6206C62.2431 37.9397 63.098 37.4692 64.0497 37.2993L65.9417 36.9615C67.0577 36.7623 67.8704 35.7917 67.8704 34.658V26.5472C65.0991 25.9346 62.8481 23.7904 62.1655 20.9394L58.6211 6.137L69.5122 5.44751L80.4014 6.137L76.833 20.9495C76.1493 23.7876 73.9111 25.9228 71.1542 26.5416V34.6556C71.1542 35.7903 71.9684 36.7615 73.0858 36.9596Z" fill="#FFCF4D"/>
<path d="M80.4015 6.13712L80.7338 4.75806H58.291L58.6212 6.13712H80.4015Z" fill="#FFB629"/>
<path d="M77.4271 38.6211H61.5955C61.2207 39.016 60.9158 39.4814 60.7031 40.0001H78.3184L78.3043 39.9663C78.093 39.4609 77.793 39.0077 77.4271 38.6211Z" fill="#FFB629"/>
<path d="M70.2416 10.1575L70.9976 11.6893C71.1181 11.9336 71.3511 12.1029 71.6207 12.142L73.3111 12.3876C73.9899 12.4863 74.2609 13.3204 73.7697 13.7991L72.5465 14.9915C72.3515 15.1816 72.2625 15.4555 72.3085 15.7239L72.5973 17.4075C72.7132 18.0835 72.0037 18.599 71.3966 18.2799L69.8846 17.485C69.6435 17.3582 69.3555 17.3582 69.1144 17.485L67.6025 18.2799C66.9953 18.599 66.2858 18.0836 66.4017 17.4075L66.6905 15.7239C66.7365 15.4555 66.6476 15.1816 66.4525 14.9915L65.2293 13.7991C64.7382 13.3204 65.0092 12.4863 65.6879 12.3876L67.3784 12.142C67.6479 12.1028 67.8809 11.9336 68.0015 11.6893L68.7574 10.1575C69.061 9.54254 69.938 9.54254 70.2416 10.1575Z" fill="#FF9517"/>
<path d="M69.8858 16.1061C69.6447 15.9793 69.3567 15.9793 69.1156 16.1061L66.3908 17.5386C66.3801 18.1477 67.0365 18.5781 67.6036 18.28L69.1156 17.4851C69.3567 17.3584 69.6447 17.3584 69.8858 17.4851L71.3978 18.28C71.965 18.5782 72.6214 18.1477 72.6107 17.5386L69.8858 16.1061Z" fill="#EF7F0F"/>
</svg>
