<svg width="12" height="14" viewBox="0 0 12 14" fill="none" xmlns="http://www.w3.org/2000/svg">
<path d="M6.00002 7.00004C5.26669 7.00004 4.66669 6.40004 4.66669 5.66671C4.66669 4.93337 5.26669 4.33337 6.00002 4.33337C6.73335 4.33337 7.33335 4.93337 7.33335 5.66671C7.33335 6.40004 6.73335 7.00004 6.00002 7.00004ZM10 5.80004C10 3.38004 8.23335 1.66671 6.00002 1.66671C3.76669 1.66671 2.00002 3.38004 2.00002 5.80004C2.00002 7.36004 3.30002 9.42671 6.00002 11.8934C8.70002 9.42671 10 7.36004 10 5.80004ZM6.00002 0.333374C8.80002 0.333374 11.3334 2.48004 11.3334 5.80004C11.3334 8.01337 9.55335 10.6334 6.00002 13.6667C2.44669 10.6334 0.666687 8.01337 0.666687 5.80004C0.666687 2.48004 3.20002 0.333374 6.00002 0.333374Z" fill="#9A9A9A"/>
</svg>
