<svg width="372" height="46" viewBox="0 0 372 46" fill="none" xmlns="http://www.w3.org/2000/svg">
<circle cx="21" cy="23" r="20" stroke="white" stroke-width="2"/>
<circle opacity="0.5" cx="21" cy="23" r="16.5" stroke="white"/>
<path fill-rule="evenodd" clip-rule="evenodd" d="M10.8031 27.7841L18.1667 22.319L19.1586 23.473L12.5202 29.7839L10.8031 27.7841ZM23.2712 15.7768C23.4256 15.2438 22.7659 14.3197 22.0314 15.0091C20.5154 14.7549 21.4231 13.4151 20.9599 12.8724C19.7294 11.4202 15.3734 15.6154 16.5992 17.1068C17.0344 17.6348 18.3632 16.8672 18.4521 18.3585C17.9701 18.8279 18.4614 19.6298 18.9808 19.6591L19.9352 20.7739L18.4942 22.0354L19.4627 23.1649L20.8102 21.7959L21.8255 22.9791C21.7974 23.5219 22.5086 24.1184 23.0045 23.6686C24.4176 23.9277 23.5379 25.2234 23.9918 25.732C25.2785 27.1646 29.742 23.0965 28.4975 21.6638C28.0296 21.126 26.6587 21.923 26.5838 20.3192C27.3184 19.6298 26.509 18.8426 25.9896 18.9452L23.2712 15.7768ZM9.2591 29.1336L10.4756 28.0726L12.2114 30.0969L11.0745 31.2508C10.3539 32.0723 8.27655 29.8182 9.2591 29.1336Z" fill="white"/>
<path fill-rule="evenodd" clip-rule="evenodd" d="M22.4742 27.1428H31.5213C31.809 27.1428 32.0472 27.5377 32.0472 28.0168C32.0472 28.2304 32.0022 28.4182 31.9258 28.5735H32.618C32.8292 28.5735 33 28.8584 33 29.208V30.7941C33 31.1437 32.8292 31.4285 32.618 31.4285H21.382C21.1708 31.4285 21 31.1437 21 30.7941V29.208C21 28.8584 21.1708 28.5735 21.382 28.5735H22.0742C21.9978 28.4246 21.9528 28.2304 21.9528 28.0168C21.9528 27.5313 22.1865 27.1428 22.4742 27.1428Z" fill="white"/>
<path d="M60.93 8.258C62.484 8.258 63.842 8.566 65.004 9.182C66.18 9.798 67.083 10.666 67.713 11.786C68.343 12.892 68.658 14.173 68.658 15.629C68.658 17.071 68.343 18.352 67.713 19.472C67.083 20.592 66.18 21.46 65.004 22.076C63.842 22.692 62.484 23 60.93 23H55.407V17.12H54.084V14.138H55.407V8.258H60.93ZM60.72 19.934C62.064 19.934 63.114 19.556 63.87 18.8C64.626 18.044 65.004 16.987 65.004 15.629C65.004 14.271 64.626 13.214 63.87 12.458C63.114 11.702 62.064 11.324 60.72 11.324H59.019V14.138H62.211V17.12H59.019V19.934H60.72ZM78.9149 4.541C79.1949 4.247 79.4399 3.946 79.6499 3.638C79.8739 3.316 80.0979 2.931 80.3219 2.483H82.7999V2.693C82.4919 3.099 82.1279 3.484 81.7079 3.848C81.2879 4.198 80.8749 4.52 80.4689 4.814H78.9149V4.541ZM78.1589 6.809C77.8089 6.571 77.4519 6.312 77.0879 6.032C76.7239 5.738 76.3599 5.43 75.9959 5.108C75.6319 5.43 75.2679 5.738 74.9039 6.032C74.5399 6.312 74.1829 6.571 73.8329 6.809H72.1739V6.536C72.5239 6.13 72.8949 5.668 73.2869 5.15C73.6929 4.632 74.0569 4.135 74.3789 3.659H77.6129C77.9349 4.135 78.2919 4.632 78.6839 5.15C79.0899 5.668 79.4679 6.13 79.8179 6.536V6.809H78.1589ZM79.8179 23L78.7259 19.43H73.2659L72.1739 23H68.7509L74.0429 7.943H77.9279L83.2409 23H79.8179ZM76.8779 13.277C76.8079 13.039 76.7169 12.738 76.6049 12.374C76.4929 12.01 76.3809 11.639 76.2689 11.261C76.1569 10.883 76.0659 10.554 75.9959 10.274C75.9259 10.554 75.8279 10.904 75.7019 11.324C75.5899 11.73 75.4779 12.122 75.3659 12.5C75.2679 12.864 75.1909 13.123 75.1349 13.277L74.0639 16.763H77.9699L76.8779 13.277ZM87.4499 8.258V17.078C87.4499 17.96 87.6669 18.639 88.1009 19.115C88.5349 19.591 89.1719 19.829 90.0119 19.829C90.8519 19.829 91.4959 19.591 91.9439 19.115C92.3919 18.639 92.6159 17.96 92.6159 17.078V8.258H96.2069V17.057C96.2069 18.373 95.9269 19.486 95.3669 20.396C94.8069 21.306 94.0509 21.992 93.0989 22.454C92.1609 22.916 91.1109 23.147 89.9489 23.147C88.7869 23.147 87.7439 22.923 86.8199 22.475C85.9099 22.013 85.1889 21.327 84.6569 20.417C84.1249 19.493 83.8589 18.373 83.8589 17.057V8.258H87.4499ZM111.705 12.92C111.439 12.43 111.054 12.059 110.55 11.807C110.06 11.541 109.479 11.408 108.807 11.408C107.645 11.408 106.714 11.793 106.014 12.563C105.314 13.319 104.964 14.334 104.964 15.608C104.964 16.966 105.328 18.03 106.056 18.8C106.798 19.556 107.813 19.934 109.101 19.934C109.983 19.934 110.725 19.71 111.327 19.262C111.943 18.814 112.391 18.17 112.671 17.33H108.114V14.684H115.926V18.023C115.66 18.919 115.205 19.752 114.561 20.522C113.931 21.292 113.126 21.915 112.146 22.391C111.166 22.867 110.06 23.105 108.828 23.105C107.372 23.105 106.07 22.79 104.922 22.16C103.788 21.516 102.899 20.627 102.255 19.493C101.625 18.359 101.31 17.064 101.31 15.608C101.31 14.152 101.625 12.857 102.255 11.723C102.899 10.575 103.788 9.686 104.922 9.056C106.056 8.412 107.351 8.09 108.807 8.09C110.571 8.09 112.055 8.517 113.259 9.371C114.477 10.225 115.282 11.408 115.674 12.92H111.705ZM120.876 8.258V23H117.285V8.258H120.876ZM132.025 20.396H126.523L125.641 23H121.882L127.216 8.258H131.374L136.708 23H132.907L132.025 20.396ZM131.101 17.624L129.274 12.227L127.468 17.624H131.101ZM131.731 5.297L126.67 7.418V4.94L131.731 2.504V5.297ZM152.127 8.258V11.135H148.221V23H144.63V11.135H140.724V8.258H152.127ZM160.817 23L157.751 17.435H156.89V23H153.299V8.258H159.326C160.488 8.258 161.475 8.461 162.287 8.867C163.113 9.273 163.729 9.833 164.135 10.547C164.541 11.247 164.744 12.031 164.744 12.899C164.744 13.879 164.464 14.754 163.904 15.524C163.358 16.294 162.546 16.84 161.468 17.162L164.87 23H160.817ZM156.89 14.894H159.116C159.774 14.894 160.264 14.733 160.586 14.411C160.922 14.089 161.09 13.634 161.09 13.046C161.09 12.486 160.922 12.045 160.586 11.723C160.264 11.401 159.774 11.24 159.116 11.24H156.89V14.894ZM179.157 9.938C179.661 9.756 180.032 9.413 180.27 8.909C180.508 8.391 180.627 7.768 180.627 7.04H183.714L183.861 7.271C183.707 8.027 183.476 8.72 183.168 9.35C182.874 9.98 182.412 10.512 181.782 10.946C181.166 11.366 180.291 11.66 179.157 11.828V17.708C179.157 18.744 178.926 19.682 178.464 20.522C178.016 21.348 177.33 22.006 176.406 22.496C175.496 22.972 174.341 23.21 172.941 23.21C170.953 23.21 169.441 22.706 168.405 21.698C167.369 20.676 166.851 19.332 166.851 17.666V8.006H170.022V17.435C170.022 18.541 170.274 19.339 170.778 19.829C171.282 20.305 172.031 20.543 173.025 20.543C174.061 20.543 174.81 20.284 175.272 19.766C175.748 19.234 175.986 18.45 175.986 17.414V8.006H179.157V9.938ZM172.92 27.41C172.444 27.41 172.038 27.298 171.702 27.074C171.38 26.85 171.219 26.451 171.219 25.877C171.219 25.289 171.38 24.883 171.702 24.659C172.038 24.449 172.444 24.344 172.92 24.344C173.382 24.344 173.781 24.449 174.117 24.659C174.453 24.883 174.621 25.289 174.621 25.877C174.621 26.451 174.453 26.85 174.117 27.074C173.781 27.298 173.382 27.41 172.92 27.41ZM183.709 15.608C183.709 14.152 184.024 12.857 184.654 11.723C185.284 10.575 186.159 9.686 187.279 9.056C188.413 8.412 189.694 8.09 191.122 8.09C192.872 8.09 194.37 8.552 195.616 9.476C196.862 10.4 197.695 11.66 198.115 13.256H194.167C193.873 12.64 193.453 12.171 192.907 11.849C192.375 11.527 191.766 11.366 191.08 11.366C189.974 11.366 189.078 11.751 188.392 12.521C187.706 13.291 187.363 14.32 187.363 15.608C187.363 16.896 187.706 17.925 188.392 18.695C189.078 19.465 189.974 19.85 191.08 19.85C191.766 19.85 192.375 19.689 192.907 19.367C193.453 19.045 193.873 18.576 194.167 17.96H198.115C197.695 19.556 196.862 20.816 195.616 21.74C194.37 22.65 192.872 23.105 191.122 23.105C189.694 23.105 188.413 22.79 187.279 22.16C186.159 21.516 185.284 20.627 184.654 19.493C184.024 18.359 183.709 17.064 183.709 15.608ZM214.11 8.258V11.135H210.204V23H206.613V11.135H202.707V8.258H214.11ZM218.81 8.258V17.078C218.81 17.96 219.027 18.639 219.461 19.115C219.895 19.591 220.532 19.829 221.372 19.829C222.212 19.829 222.856 19.591 223.304 19.115C223.752 18.639 223.976 17.96 223.976 17.078V8.258H227.567V17.057C227.567 18.373 227.287 19.486 226.727 20.396C226.167 21.306 225.411 21.992 224.459 22.454C223.521 22.916 222.471 23.147 221.309 23.147C220.147 23.147 219.104 22.923 218.18 22.475C217.27 22.013 216.549 21.327 216.017 20.417C215.485 19.493 215.219 18.373 215.219 17.057V8.258H218.81ZM242.1 8.258L236.997 18.128V23H233.406V18.128L228.303 8.258H232.377L235.233 14.432L238.068 8.258H242.1ZM250.75 4.541C251.03 4.247 251.275 3.946 251.485 3.638C251.709 3.316 251.933 2.931 252.157 2.483H254.635V2.693C254.327 3.099 253.963 3.484 253.543 3.848C253.123 4.198 252.71 4.52 252.304 4.814H250.75V4.541ZM249.994 6.809C249.644 6.571 249.287 6.312 248.923 6.032C248.559 5.738 248.195 5.43 247.831 5.108C247.467 5.43 247.103 5.738 246.739 6.032C246.375 6.312 246.018 6.571 245.668 6.809H244.009V6.536C244.359 6.13 244.73 5.668 245.122 5.15C245.528 4.632 245.892 4.135 246.214 3.659H249.448C249.77 4.135 250.127 4.632 250.519 5.15C250.925 5.668 251.303 6.13 251.653 6.536V6.809H249.994ZM252.136 23H243.505V8.006H252.136V10.61H246.676V13.907H251.758V16.511H246.676V20.375H252.136V23ZM267.226 23H263.635L257.629 13.907V23H254.038V8.258H257.629L263.635 17.393V8.258H267.226V23Z" fill="white"/>
<path d="M59.868 32.612V33.308H57.54V41H56.7V33.308H54.36V32.612H59.868ZM62.0344 35.612C62.2184 35.204 62.4984 34.888 62.8744 34.664C63.2584 34.44 63.7264 34.328 64.2784 34.328V35.204H64.0504C63.4424 35.204 62.9544 35.368 62.5864 35.696C62.2184 36.024 62.0344 36.572 62.0344 37.34V41H61.1944V34.448H62.0344V35.612ZM71.218 34.448V41H70.378V39.848C70.186 40.256 69.89 40.568 69.49 40.784C69.09 41 68.642 41.108 68.146 41.108C67.362 41.108 66.722 40.868 66.226 40.388C65.73 39.9 65.482 39.196 65.482 38.276V34.448H66.31V38.18C66.31 38.892 66.486 39.436 66.838 39.812C67.198 40.188 67.686 40.376 68.302 40.376C68.934 40.376 69.438 40.176 69.814 39.776C70.19 39.376 70.378 38.788 70.378 38.012V34.448H71.218ZM76.2078 34.328C76.9918 34.328 77.6318 34.572 78.1278 35.06C78.6238 35.54 78.8718 36.24 78.8718 37.16V41H78.0438V37.256C78.0438 36.544 77.8638 36 77.5038 35.624C77.1518 35.248 76.6678 35.06 76.0518 35.06C75.4198 35.06 74.9158 35.26 74.5398 35.66C74.1638 36.06 73.9758 36.648 73.9758 37.424V41H73.1358V34.448H73.9758V35.564C74.1838 35.164 74.4838 34.86 74.8758 34.652C75.2678 34.436 75.7118 34.328 76.2078 34.328ZM83.4775 34.352C84.0935 34.352 84.6295 34.496 85.0855 34.784C85.5415 35.072 85.8695 35.436 86.0695 35.876V34.448H86.9095V41.168C86.9095 41.768 86.7775 42.3 86.5135 42.764C86.2575 43.228 85.8975 43.584 85.4335 43.832C84.9695 44.088 84.4415 44.216 83.8495 44.216C83.0095 44.216 82.3095 44.016 81.7495 43.616C81.1975 43.216 80.8535 42.672 80.7175 41.984H81.5455C81.6895 42.44 81.9615 42.804 82.3615 43.076C82.7695 43.348 83.2655 43.484 83.8495 43.484C84.2735 43.484 84.6535 43.392 84.9895 43.208C85.3255 43.032 85.5895 42.768 85.7815 42.416C85.9735 42.064 86.0695 41.648 86.0695 41.168V39.548C85.8615 39.996 85.5295 40.368 85.0735 40.664C84.6255 40.952 84.0935 41.096 83.4775 41.096C82.8775 41.096 82.3375 40.956 81.8575 40.676C81.3855 40.396 81.0135 40 80.7415 39.488C80.4775 38.976 80.3455 38.384 80.3455 37.712C80.3455 37.04 80.4775 36.452 80.7415 35.948C81.0135 35.436 81.3855 35.044 81.8575 34.772C82.3375 34.492 82.8775 34.352 83.4775 34.352ZM86.0695 37.724C86.0695 37.196 85.9615 36.732 85.7455 36.332C85.5295 35.932 85.2335 35.624 84.8575 35.408C84.4895 35.192 84.0815 35.084 83.6335 35.084C83.1695 35.084 82.7535 35.188 82.3855 35.396C82.0175 35.604 81.7255 35.908 81.5095 36.308C81.3015 36.7 81.1975 37.168 81.1975 37.712C81.1975 38.248 81.3015 38.72 81.5095 39.128C81.7255 39.528 82.0175 39.836 82.3855 40.052C82.7535 40.26 83.1695 40.364 83.6335 40.364C84.0815 40.364 84.4895 40.256 84.8575 40.04C85.2335 39.824 85.5295 39.516 85.7455 39.116C85.9615 38.716 86.0695 38.252 86.0695 37.724ZM93.2122 35.156V39.224C93.2122 39.624 93.2882 39.9 93.4402 40.052C93.5922 40.204 93.8602 40.28 94.2442 40.28H95.0122V41H94.1122C93.5202 41 93.0802 40.864 92.7922 40.592C92.5042 40.312 92.3602 39.856 92.3602 39.224V35.156H91.4482V34.448H92.3602V32.804H93.2122V34.448H95.0122V35.156H93.2122ZM96.0135 37.712C96.0135 37.04 96.1455 36.452 96.4095 35.948C96.6815 35.436 97.0535 35.044 97.5255 34.772C98.0055 34.492 98.5455 34.352 99.1455 34.352C99.7695 34.352 100.306 34.496 100.754 34.784C101.21 35.072 101.538 35.44 101.738 35.888V34.448H102.578V41H101.738V39.548C101.53 39.996 101.198 40.368 100.742 40.664C100.294 40.952 99.7575 41.096 99.1335 41.096C98.5415 41.096 98.0055 40.956 97.5255 40.676C97.0535 40.396 96.6815 40 96.4095 39.488C96.1455 38.976 96.0135 38.384 96.0135 37.712ZM101.738 37.724C101.738 37.196 101.63 36.732 101.414 36.332C101.198 35.932 100.902 35.624 100.526 35.408C100.158 35.192 99.7495 35.084 99.3015 35.084C98.8375 35.084 98.4215 35.188 98.0535 35.396C97.6855 35.604 97.3935 35.908 97.1775 36.308C96.9695 36.7 96.8655 37.168 96.8655 37.712C96.8655 38.248 96.9695 38.72 97.1775 39.128C97.3935 39.528 97.6855 39.836 98.0535 40.052C98.4215 40.26 98.8375 40.364 99.3015 40.364C99.7495 40.364 100.158 40.256 100.526 40.04C100.902 39.824 101.198 39.516 101.414 39.116C101.63 38.716 101.738 38.252 101.738 37.724ZM99.5055 32.744L97.8975 33.752V33.068L99.5055 32.084L101.114 33.068V33.752L99.5055 32.744ZM112.295 34.328C113.063 34.328 113.687 34.572 114.167 35.06C114.655 35.54 114.899 36.24 114.899 37.16V41H114.071V37.256C114.071 36.544 113.899 36 113.555 35.624C113.211 35.248 112.743 35.06 112.151 35.06C111.535 35.06 111.043 35.264 110.675 35.672C110.307 36.08 110.123 36.672 110.123 37.448V41H109.295V37.256C109.295 36.544 109.123 36 108.779 35.624C108.435 35.248 107.963 35.06 107.363 35.06C106.747 35.06 106.255 35.264 105.887 35.672C105.519 36.08 105.335 36.672 105.335 37.448V41H104.495V34.448H105.335V35.576C105.543 35.168 105.839 34.86 106.223 34.652C106.607 34.436 107.035 34.328 107.507 34.328C108.075 34.328 108.571 34.464 108.995 34.736C109.427 35.008 109.739 35.408 109.931 35.936C110.107 35.416 110.407 35.02 110.831 34.748C111.263 34.468 111.751 34.328 112.295 34.328ZM119.674 37.712C119.674 37.04 119.81 36.452 120.082 35.948C120.354 35.436 120.726 35.044 121.198 34.772C121.678 34.492 122.218 34.352 122.818 34.352C123.394 34.352 123.914 34.492 124.378 34.772C124.842 35.052 125.182 35.416 125.398 35.864V32.12H126.238V41H125.398V39.536C125.198 39.992 124.87 40.368 124.414 40.664C123.958 40.952 123.422 41.096 122.806 41.096C122.206 41.096 121.666 40.956 121.186 40.676C120.714 40.396 120.342 40 120.07 39.488C119.806 38.976 119.674 38.384 119.674 37.712ZM125.398 37.724C125.398 37.196 125.29 36.732 125.074 36.332C124.858 35.932 124.562 35.624 124.186 35.408C123.818 35.192 123.41 35.084 122.962 35.084C122.498 35.084 122.082 35.188 121.714 35.396C121.346 35.604 121.054 35.908 120.838 36.308C120.63 36.7 120.526 37.168 120.526 37.712C120.526 38.248 120.63 38.72 120.838 39.128C121.054 39.528 121.346 39.836 121.714 40.052C122.082 40.26 122.498 40.364 122.962 40.364C123.41 40.364 123.818 40.256 124.186 40.04C124.562 39.824 124.858 39.516 125.074 39.116C125.29 38.716 125.398 38.252 125.398 37.724ZM128.755 32.156C128.915 32.156 129.055 32.212 129.175 32.324C129.303 32.428 129.367 32.596 129.367 32.828C129.367 33.052 129.303 33.22 129.175 33.332C129.055 33.444 128.915 33.5 128.755 33.5C128.579 33.5 128.431 33.444 128.311 33.332C128.191 33.22 128.131 33.052 128.131 32.828C128.131 32.596 128.191 32.428 128.311 32.324C128.431 32.212 128.579 32.156 128.755 32.156ZM129.271 34.568V41H128.215V34.568H129.271ZM128.755 43.112C128.587 43.112 128.439 43.056 128.311 42.944C128.191 42.832 128.131 42.664 128.131 42.44C128.131 42.208 128.191 42.036 128.311 41.924C128.439 41.82 128.587 41.768 128.755 41.768C128.923 41.768 129.067 41.82 129.187 41.924C129.315 42.036 129.379 42.208 129.379 42.44C129.379 42.664 129.315 42.832 129.187 42.944C129.067 43.056 128.923 43.112 128.755 43.112ZM130.865 37.724C130.865 37.044 131.001 36.452 131.273 35.948C131.545 35.436 131.921 35.044 132.401 34.772C132.881 34.492 133.429 34.352 134.045 34.352C134.853 34.352 135.517 34.552 136.037 34.952C136.565 35.352 136.905 35.896 137.057 36.584H136.157C136.045 36.112 135.801 35.744 135.425 35.48C135.057 35.208 134.597 35.072 134.045 35.072C133.605 35.072 133.209 35.172 132.857 35.372C132.505 35.572 132.225 35.872 132.017 36.272C131.817 36.664 131.717 37.148 131.717 37.724C131.717 38.3 131.817 38.788 132.017 39.188C132.225 39.588 132.505 39.888 132.857 40.088C133.209 40.288 133.605 40.388 134.045 40.388C134.597 40.388 135.057 40.256 135.425 39.992C135.801 39.72 136.045 39.344 136.157 38.864H137.057C136.905 39.536 136.565 40.076 136.037 40.484C135.509 40.892 134.845 41.096 134.045 41.096C133.429 41.096 132.881 40.96 132.401 40.688C131.921 40.408 131.545 40.016 131.273 39.512C131.001 39 130.865 38.404 130.865 37.724ZM141.728 34.328C142.224 34.328 142.668 34.432 143.06 34.64C143.46 34.848 143.772 35.168 143.996 35.6C144.228 36.024 144.344 36.544 144.344 37.16V41H143.516V37.256C143.516 36.544 143.336 36 142.976 35.624C142.624 35.248 142.14 35.06 141.524 35.06C140.892 35.06 140.388 35.26 140.012 35.66C139.636 36.06 139.448 36.648 139.448 37.424V41H138.608V32.12H139.448V35.564C139.656 35.172 139.96 34.868 140.36 34.652C140.768 34.436 141.224 34.328 141.728 34.328ZM151.823 40.184L154.031 34.448H154.919L152.291 41H151.343L148.715 34.448H149.615L151.823 40.184ZM161.494 34.568V41H160.63L160.474 40.148H160.426C160.218 40.484 159.93 40.732 159.562 40.892C159.194 41.044 158.802 41.12 158.386 41.12C157.61 41.12 157.026 40.936 156.634 40.568C156.242 40.192 156.046 39.596 156.046 38.78V34.568H157.114V38.708C157.114 39.732 157.59 40.244 158.542 40.244C159.254 40.244 159.746 40.044 160.018 39.644C160.298 39.244 160.438 38.668 160.438 37.916V34.568H161.494ZM158.614 43.112C158.446 43.112 158.298 43.056 158.17 42.944C158.05 42.832 157.99 42.664 157.99 42.44C157.99 42.208 158.05 42.036 158.17 41.924C158.298 41.82 158.446 41.768 158.614 41.768C158.782 41.768 158.926 41.82 159.046 41.924C159.174 42.036 159.238 42.208 159.238 42.44C159.238 42.664 159.174 42.832 159.046 42.944C158.926 43.056 158.782 43.112 158.614 43.112ZM173.705 33.584H172.949V41H172.109V39.536C171.909 39.992 171.581 40.368 171.125 40.664C170.669 40.952 170.133 41.096 169.517 41.096C168.917 41.096 168.377 40.956 167.897 40.676C167.425 40.396 167.053 40 166.781 39.488C166.517 38.976 166.385 38.384 166.385 37.712C166.385 37.04 166.521 36.452 166.793 35.948C167.065 35.436 167.437 35.044 167.909 34.772C168.389 34.492 168.929 34.352 169.529 34.352C170.105 34.352 170.625 34.492 171.089 34.772C171.553 35.052 171.893 35.416 172.109 35.864V33.584H170.429V33.056H172.109V32.12H172.949V33.056H173.705V33.584ZM169.673 40.364C170.121 40.364 170.529 40.256 170.897 40.04C171.273 39.824 171.569 39.516 171.785 39.116C172.001 38.716 172.109 38.252 172.109 37.724C172.109 37.196 172.001 36.732 171.785 36.332C171.569 35.932 171.273 35.624 170.897 35.408C170.529 35.192 170.121 35.084 169.673 35.084C169.209 35.084 168.793 35.188 168.425 35.396C168.057 35.604 167.765 35.908 167.549 36.308C167.341 36.7 167.237 37.168 167.237 37.712C167.237 38.248 167.341 38.72 167.549 39.128C167.765 39.528 168.057 39.836 168.425 40.052C168.793 40.26 169.209 40.364 169.673 40.364ZM178.551 32.444C178.711 32.244 178.843 32.06 178.947 31.892C179.051 31.724 179.167 31.512 179.295 31.256H180.351V31.376C180.175 31.608 179.983 31.828 179.775 32.036C179.567 32.236 179.359 32.42 179.151 32.588H178.551V32.444ZM178.431 33.728C178.231 33.592 178.027 33.444 177.819 33.284C177.611 33.116 177.403 32.94 177.195 32.756C176.987 32.94 176.779 33.116 176.571 33.284C176.363 33.444 176.159 33.592 175.959 33.728H175.371V33.584C175.571 33.352 175.787 33.108 176.019 32.852C176.251 32.588 176.459 32.32 176.643 32.048H177.747C177.931 32.32 178.139 32.588 178.371 32.852C178.603 33.108 178.819 33.352 179.019 33.584V33.728H178.431ZM177.315 34.46C178.099 34.46 178.679 34.632 179.055 34.976C179.431 35.32 179.619 35.868 179.619 36.62V41H178.851L178.647 40.088H178.599C178.319 40.44 178.023 40.7 177.711 40.868C177.407 41.036 176.983 41.12 176.439 41.12C175.855 41.12 175.371 40.968 174.987 40.664C174.603 40.352 174.411 39.868 174.411 39.212C174.411 38.572 174.663 38.08 175.167 37.736C175.671 37.384 176.447 37.192 177.495 37.16L178.587 37.124V36.74C178.587 36.204 178.471 35.832 178.239 35.624C178.007 35.416 177.679 35.312 177.255 35.312C176.919 35.312 176.599 35.364 176.295 35.468C175.991 35.564 175.707 35.676 175.443 35.804L175.119 35.012C175.399 34.86 175.731 34.732 176.115 34.628C176.499 34.516 176.899 34.46 177.315 34.46ZM177.627 37.892C176.827 37.924 176.271 38.052 175.959 38.276C175.655 38.5 175.503 38.816 175.503 39.224C175.503 39.584 175.611 39.848 175.827 40.016C176.051 40.184 176.335 40.268 176.679 40.268C177.223 40.268 177.675 40.12 178.035 39.824C178.395 39.52 178.575 39.056 178.575 38.432V37.856L177.627 37.892ZM187.222 34.448V41H186.382V39.848C186.19 40.256 185.894 40.568 185.494 40.784C185.094 41 184.646 41.108 184.15 41.108C183.366 41.108 182.726 40.868 182.23 40.388C181.734 39.9 181.486 39.196 181.486 38.276V34.448H182.314V38.18C182.314 38.892 182.49 39.436 182.842 39.812C183.202 40.188 183.69 40.376 184.306 40.376C184.938 40.376 185.442 40.176 185.818 39.776C186.194 39.376 186.382 38.788 186.382 38.012V34.448H187.222ZM195.181 34.352C195.797 34.352 196.333 34.496 196.789 34.784C197.245 35.072 197.573 35.436 197.773 35.876V34.448H198.613V41.168C198.613 41.768 198.481 42.3 198.217 42.764C197.961 43.228 197.601 43.584 197.137 43.832C196.673 44.088 196.145 44.216 195.553 44.216C194.713 44.216 194.013 44.016 193.453 43.616C192.901 43.216 192.557 42.672 192.421 41.984H193.249C193.393 42.44 193.665 42.804 194.065 43.076C194.473 43.348 194.969 43.484 195.553 43.484C195.977 43.484 196.357 43.392 196.693 43.208C197.029 43.032 197.293 42.768 197.485 42.416C197.677 42.064 197.773 41.648 197.773 41.168V39.548C197.565 39.996 197.233 40.368 196.777 40.664C196.329 40.952 195.797 41.096 195.181 41.096C194.581 41.096 194.041 40.956 193.561 40.676C193.089 40.396 192.717 40 192.445 39.488C192.181 38.976 192.049 38.384 192.049 37.712C192.049 37.04 192.181 36.452 192.445 35.948C192.717 35.436 193.089 35.044 193.561 34.772C194.041 34.492 194.581 34.352 195.181 34.352ZM197.773 37.724C197.773 37.196 197.665 36.732 197.449 36.332C197.233 35.932 196.937 35.624 196.561 35.408C196.193 35.192 195.785 35.084 195.337 35.084C194.873 35.084 194.457 35.188 194.089 35.396C193.721 35.604 193.429 35.908 193.213 36.308C193.005 36.7 192.901 37.168 192.901 37.712C192.901 38.248 193.005 38.72 193.213 39.128C193.429 39.528 193.721 39.836 194.089 40.052C194.457 40.26 194.873 40.364 195.337 40.364C195.785 40.364 196.193 40.256 196.561 40.04C196.937 39.824 197.233 39.516 197.449 39.116C197.665 38.716 197.773 38.252 197.773 37.724ZM200.95 33.212C200.782 33.212 200.638 33.152 200.518 33.032C200.398 32.912 200.338 32.764 200.338 32.588C200.338 32.412 200.398 32.268 200.518 32.156C200.638 32.036 200.782 31.976 200.95 31.976C201.118 31.976 201.262 32.036 201.382 32.156C201.502 32.268 201.562 32.412 201.562 32.588C201.562 32.764 201.502 32.912 201.382 33.032C201.262 33.152 201.118 33.212 200.95 33.212ZM201.37 34.448V41H200.53V34.448H201.37ZM202.889 37.712C202.889 37.04 203.021 36.452 203.285 35.948C203.557 35.436 203.929 35.044 204.401 34.772C204.881 34.492 205.421 34.352 206.021 34.352C206.645 34.352 207.181 34.496 207.629 34.784C208.085 35.072 208.413 35.44 208.613 35.888V34.448H209.453V41H208.613V39.548C208.405 39.996 208.073 40.368 207.617 40.664C207.169 40.952 206.633 41.096 206.009 41.096C205.417 41.096 204.881 40.956 204.401 40.676C203.929 40.396 203.557 40 203.285 39.488C203.021 38.976 202.889 38.384 202.889 37.712ZM208.613 37.724C208.613 37.196 208.505 36.732 208.289 36.332C208.073 35.932 207.777 35.624 207.401 35.408C207.033 35.192 206.625 35.084 206.177 35.084C205.713 35.084 205.297 35.188 204.929 35.396C204.561 35.604 204.269 35.908 204.053 36.308C203.845 36.7 203.741 37.168 203.741 37.712C203.741 38.248 203.845 38.72 204.053 39.128C204.269 39.528 204.561 39.836 204.929 40.052C205.297 40.26 205.713 40.364 206.177 40.364C206.625 40.364 207.033 40.256 207.401 40.04C207.777 39.824 208.073 39.516 208.289 39.116C208.505 38.716 208.613 38.252 208.613 37.724ZM207.485 32.516L205.025 33.944V33.296L207.485 31.76V32.516ZM215.755 35.156V39.224C215.755 39.624 215.831 39.9 215.983 40.052C216.135 40.204 216.403 40.28 216.787 40.28H217.555V41H216.655C216.063 41 215.623 40.864 215.335 40.592C215.047 40.312 214.903 39.856 214.903 39.224V35.156H213.991V34.448H214.903V32.804H215.755V34.448H217.555V35.156H215.755ZM218.556 37.712C218.556 37.04 218.688 36.452 218.952 35.948C219.224 35.436 219.596 35.044 220.068 34.772C220.548 34.492 221.088 34.352 221.688 34.352C222.312 34.352 222.848 34.496 223.296 34.784C223.752 35.072 224.08 35.44 224.28 35.888V34.448H225.12V41H224.28V39.548C224.072 39.996 223.74 40.368 223.284 40.664C222.836 40.952 222.3 41.096 221.676 41.096C221.084 41.096 220.548 40.956 220.068 40.676C219.596 40.396 219.224 40 218.952 39.488C218.688 38.976 218.556 38.384 218.556 37.712ZM224.28 37.724C224.28 37.196 224.172 36.732 223.956 36.332C223.74 35.932 223.444 35.624 223.068 35.408C222.7 35.192 222.292 35.084 221.844 35.084C221.38 35.084 220.964 35.188 220.596 35.396C220.228 35.604 219.936 35.908 219.72 36.308C219.512 36.7 219.408 37.168 219.408 37.712C219.408 38.248 219.512 38.72 219.72 39.128C219.936 39.528 220.228 39.836 220.596 40.052C220.964 40.26 221.38 40.364 221.844 40.364C222.292 40.364 222.7 40.256 223.068 40.04C223.444 39.824 223.74 39.516 223.956 39.116C224.172 38.716 224.28 38.252 224.28 37.724ZM223.152 33.296V33.944L220.692 32.516V31.76L223.152 33.296ZM227.458 33.212C227.29 33.212 227.146 33.152 227.026 33.032C226.906 32.912 226.846 32.764 226.846 32.588C226.846 32.412 226.906 32.268 227.026 32.156C227.146 32.036 227.29 31.976 227.458 31.976C227.626 31.976 227.77 32.036 227.89 32.156C228.01 32.268 228.07 32.412 228.07 32.588C228.07 32.764 228.01 32.912 227.89 33.032C227.77 33.152 227.626 33.212 227.458 33.212ZM227.878 34.448V41H227.038V34.448H227.878ZM235.329 41.096C234.577 41.096 233.961 40.924 233.481 40.58C233.009 40.228 232.745 39.752 232.689 39.152H233.553C233.593 39.52 233.765 39.82 234.069 40.052C234.381 40.276 234.797 40.388 235.317 40.388C235.773 40.388 236.129 40.28 236.385 40.064C236.649 39.848 236.781 39.58 236.781 39.26C236.781 39.036 236.709 38.852 236.565 38.708C236.421 38.564 236.237 38.452 236.013 38.372C235.797 38.284 235.501 38.192 235.125 38.096C234.637 37.968 234.241 37.84 233.937 37.712C233.633 37.584 233.373 37.396 233.157 37.148C232.949 36.892 232.845 36.552 232.845 36.128C232.845 35.808 232.941 35.512 233.133 35.24C233.325 34.968 233.597 34.752 233.949 34.592C234.301 34.432 234.701 34.352 235.149 34.352C235.853 34.352 236.421 34.532 236.853 34.892C237.285 35.244 237.517 35.732 237.549 36.356H236.709C236.685 35.972 236.533 35.664 236.253 35.432C235.981 35.192 235.605 35.072 235.125 35.072C234.701 35.072 234.357 35.172 234.093 35.372C233.829 35.572 233.697 35.82 233.697 36.116C233.697 36.372 233.773 36.584 233.925 36.752C234.085 36.912 234.281 37.04 234.513 37.136C234.745 37.224 235.057 37.324 235.449 37.436C235.921 37.564 236.297 37.688 236.577 37.808C236.857 37.928 237.097 38.104 237.297 38.336C237.497 38.568 237.601 38.876 237.609 39.26C237.609 39.612 237.513 39.928 237.321 40.208C237.129 40.48 236.861 40.696 236.517 40.856C236.173 41.016 235.777 41.096 235.329 41.096ZM242.91 32.24C242.91 32.544 242.818 32.78 242.634 32.948C242.45 33.108 242.218 33.22 241.938 33.284L241.878 33.92H241.23L241.146 32.9C241.434 32.852 241.662 32.784 241.83 32.696C242.006 32.6 242.094 32.46 242.094 32.276C242.094 32.084 242.018 31.956 241.866 31.892C241.722 31.828 241.538 31.796 241.314 31.796C241.21 31.796 241.102 31.8 240.99 31.808C240.886 31.816 240.802 31.828 240.738 31.844V31.22C240.882 31.172 241.102 31.148 241.398 31.148C241.878 31.148 242.25 31.236 242.514 31.412C242.778 31.588 242.91 31.864 242.91 32.24ZM241.686 34.46C242.47 34.46 243.05 34.632 243.426 34.976C243.802 35.32 243.99 35.868 243.99 36.62V41H243.222L243.018 40.088H242.97C242.69 40.44 242.394 40.7 242.082 40.868C241.778 41.036 241.354 41.12 240.81 41.12C240.226 41.12 239.742 40.968 239.358 40.664C238.974 40.352 238.782 39.868 238.782 39.212C238.782 38.572 239.034 38.08 239.538 37.736C240.042 37.384 240.818 37.192 241.866 37.16L242.958 37.124V36.74C242.958 36.204 242.842 35.832 242.61 35.624C242.378 35.416 242.05 35.312 241.626 35.312C241.29 35.312 240.97 35.364 240.666 35.468C240.362 35.564 240.078 35.676 239.814 35.804L239.49 35.012C239.77 34.86 240.102 34.732 240.486 34.628C240.87 34.516 241.27 34.46 241.686 34.46ZM241.998 37.892C241.198 37.924 240.642 38.052 240.33 38.276C240.026 38.5 239.874 38.816 239.874 39.224C239.874 39.584 239.982 39.848 240.198 40.016C240.422 40.184 240.706 40.268 241.05 40.268C241.594 40.268 242.046 40.12 242.406 39.824C242.766 39.52 242.946 39.056 242.946 38.432V37.856L241.998 37.892ZM248.989 34.328C249.773 34.328 250.413 34.572 250.909 35.06C251.405 35.54 251.653 36.24 251.653 37.16V41H250.825V37.256C250.825 36.544 250.645 36 250.285 35.624C249.933 35.248 249.449 35.06 248.833 35.06C248.201 35.06 247.697 35.26 247.321 35.66C246.945 36.06 246.757 36.648 246.757 37.424V41H245.917V34.448H246.757V35.564C246.965 35.164 247.265 34.86 247.657 34.652C248.049 34.436 248.493 34.328 248.989 34.328ZM257.896 35.156V39.224C257.896 39.624 257.972 39.9 258.124 40.052C258.276 40.204 258.544 40.28 258.928 40.28H259.696V41H258.796C258.204 41 257.764 40.864 257.476 40.592C257.188 40.312 257.044 39.856 257.044 39.224V35.156H256.132V34.448H257.044V32.804H257.896V34.448H259.696V35.156H257.896ZM264.201 34.328C264.697 34.328 265.141 34.432 265.533 34.64C265.933 34.848 266.245 35.168 266.469 35.6C266.701 36.024 266.817 36.544 266.817 37.16V41H265.989V37.256C265.989 36.544 265.809 36 265.449 35.624C265.097 35.248 264.613 35.06 263.997 35.06C263.365 35.06 262.861 35.26 262.485 35.66C262.109 36.06 261.921 36.648 261.921 37.424V41H261.081V32.12H261.921V35.564C262.129 35.172 262.433 34.868 262.833 34.652C263.241 34.436 263.697 34.328 264.201 34.328ZM268.291 37.712C268.291 37.04 268.423 36.452 268.687 35.948C268.959 35.436 269.331 35.044 269.803 34.772C270.283 34.492 270.823 34.352 271.423 34.352C272.047 34.352 272.583 34.496 273.031 34.784C273.487 35.072 273.815 35.44 274.015 35.888V34.448H274.855V41H274.015V39.548C273.807 39.996 273.475 40.368 273.019 40.664C272.571 40.952 272.035 41.096 271.411 41.096C270.819 41.096 270.283 40.956 269.803 40.676C269.331 40.396 268.959 40 268.687 39.488C268.423 38.976 268.291 38.384 268.291 37.712ZM274.015 37.724C274.015 37.196 273.907 36.732 273.691 36.332C273.475 35.932 273.179 35.624 272.803 35.408C272.435 35.192 272.027 35.084 271.579 35.084C271.115 35.084 270.699 35.188 270.331 35.396C269.963 35.604 269.671 35.908 269.455 36.308C269.247 36.7 269.143 37.168 269.143 37.712C269.143 38.248 269.247 38.72 269.455 39.128C269.671 39.528 269.963 39.836 270.331 40.052C270.699 40.26 271.115 40.364 271.579 40.364C272.027 40.364 272.435 40.256 272.803 40.04C273.179 39.824 273.475 39.516 273.691 39.116C273.907 38.716 274.015 38.252 274.015 37.724ZM272.887 33.296V33.944L270.427 32.516V31.76L272.887 33.296ZM279.845 34.328C280.629 34.328 281.269 34.572 281.765 35.06C282.261 35.54 282.509 36.24 282.509 37.16V41H281.681V37.256C281.681 36.544 281.501 36 281.141 35.624C280.789 35.248 280.305 35.06 279.689 35.06C279.057 35.06 278.553 35.26 278.177 35.66C277.801 36.06 277.613 36.648 277.613 37.424V41H276.773V34.448H277.613V35.564C277.821 35.164 278.121 34.86 278.513 34.652C278.905 34.436 279.349 34.328 279.845 34.328ZM287.486 34.328C287.982 34.328 288.426 34.432 288.818 34.64C289.218 34.848 289.53 35.168 289.754 35.6C289.986 36.024 290.102 36.544 290.102 37.16V41H289.274V37.256C289.274 36.544 289.094 36 288.734 35.624C288.382 35.248 287.898 35.06 287.282 35.06C286.65 35.06 286.146 35.26 285.77 35.66C285.394 36.06 285.206 36.648 285.206 37.424V41H284.366V32.12H285.206V35.564C285.414 35.172 285.718 34.868 286.118 34.652C286.526 34.436 286.982 34.328 287.486 34.328ZM296.081 35.888C296.289 35.448 296.617 35.084 297.065 34.796C297.521 34.5 298.061 34.352 298.685 34.352C299.277 34.352 299.809 34.492 300.281 34.772C300.761 35.044 301.133 35.436 301.397 35.948C301.669 36.452 301.805 37.04 301.805 37.712C301.805 38.384 301.669 38.976 301.397 39.488C301.133 40 300.761 40.396 300.281 40.676C299.809 40.956 299.277 41.096 298.685 41.096C298.069 41.096 297.533 40.952 297.077 40.664C296.621 40.368 296.289 40 296.081 39.56V44.096H295.253V34.448H296.081V35.888ZM300.953 37.712C300.953 37.168 300.845 36.7 300.629 36.308C300.421 35.908 300.133 35.604 299.765 35.396C299.397 35.188 298.981 35.084 298.517 35.084C298.069 35.084 297.657 35.192 297.281 35.408C296.913 35.624 296.621 35.932 296.405 36.332C296.189 36.732 296.081 37.196 296.081 37.724C296.081 38.252 296.189 38.716 296.405 39.116C296.621 39.516 296.913 39.824 297.281 40.04C297.657 40.256 298.069 40.364 298.517 40.364C298.981 40.364 299.397 40.26 299.765 40.052C300.133 39.836 300.421 39.528 300.629 39.128C300.845 38.72 300.953 38.248 300.953 37.712ZM306.471 34.328C306.967 34.328 307.411 34.432 307.803 34.64C308.203 34.848 308.515 35.168 308.739 35.6C308.971 36.024 309.087 36.544 309.087 37.16V41H308.259V37.256C308.259 36.544 308.079 36 307.719 35.624C307.367 35.248 306.883 35.06 306.267 35.06C305.635 35.06 305.131 35.26 304.755 35.66C304.379 36.06 304.191 36.648 304.191 37.424V41H303.351V32.12H304.191V35.564C304.399 35.172 304.703 34.868 305.103 34.652C305.511 34.436 305.967 34.328 306.471 34.328ZM314.952 32.444C315.112 32.244 315.244 32.06 315.348 31.892C315.452 31.724 315.568 31.512 315.696 31.256H316.752V31.376C316.576 31.608 316.384 31.828 316.176 32.036C315.968 32.236 315.76 32.42 315.552 32.588H314.952V32.444ZM314.832 33.728C314.632 33.592 314.428 33.444 314.22 33.284C314.012 33.116 313.804 32.94 313.596 32.756C313.388 32.94 313.18 33.116 312.972 33.284C312.764 33.444 312.56 33.592 312.36 33.728H311.772V33.584C311.972 33.352 312.188 33.108 312.42 32.852C312.652 32.588 312.86 32.32 313.044 32.048H314.148C314.332 32.32 314.54 32.588 314.772 32.852C315.004 33.108 315.22 33.352 315.42 33.584V33.728H314.832ZM316.596 37.772C316.596 38.836 316.324 39.66 315.78 40.244C315.244 40.828 314.516 41.12 313.596 41.12C313.028 41.12 312.52 40.992 312.072 40.736C311.632 40.472 311.284 40.092 311.028 39.596C310.772 39.092 310.644 38.484 310.644 37.772C310.644 36.708 310.912 35.888 311.448 35.312C311.984 34.736 312.712 34.448 313.632 34.448C314.216 34.448 314.728 34.58 315.168 34.844C315.616 35.1 315.964 35.476 316.212 35.972C316.468 36.46 316.596 37.06 316.596 37.772ZM311.736 37.772C311.736 38.532 311.884 39.136 312.18 39.584C312.484 40.024 312.964 40.244 313.62 40.244C314.268 40.244 314.744 40.024 315.048 39.584C315.352 39.136 315.504 38.532 315.504 37.772C315.504 37.012 315.352 36.416 315.048 35.984C314.744 35.552 314.264 35.336 313.608 35.336C312.952 35.336 312.476 35.552 312.18 35.984C311.884 36.416 311.736 37.012 311.736 37.772ZM324.287 32.612C325.215 32.612 326.011 32.78 326.675 33.116C327.339 33.452 327.847 33.936 328.199 34.568C328.551 35.2 328.727 35.952 328.727 36.824C328.727 37.688 328.551 38.436 328.199 39.068C327.847 39.692 327.339 40.172 326.675 40.508C326.011 40.836 325.215 41 324.287 41H321.791V37.208H320.651V36.428H321.791V32.612H324.287ZM324.287 40.34C325.447 40.34 326.331 40.032 326.939 39.416C327.555 38.792 327.863 37.928 327.863 36.824C327.863 35.72 327.555 34.856 326.939 34.232C326.331 33.608 325.447 33.296 324.287 33.296H322.643V36.428H325.091V37.208H322.643V40.34H324.287ZM329.885 37.712C329.885 37.04 330.017 36.452 330.281 35.948C330.553 35.436 330.925 35.044 331.397 34.772C331.877 34.492 332.417 34.352 333.017 34.352C333.641 34.352 334.177 34.496 334.625 34.784C335.081 35.072 335.409 35.44 335.609 35.888V34.448H336.449V41H335.609V39.548C335.401 39.996 335.069 40.368 334.613 40.664C334.165 40.952 333.629 41.096 333.005 41.096C332.413 41.096 331.877 40.956 331.397 40.676C330.925 40.396 330.553 40 330.281 39.488C330.017 38.976 329.885 38.384 329.885 37.712ZM335.609 37.724C335.609 37.196 335.501 36.732 335.285 36.332C335.069 35.932 334.773 35.624 334.397 35.408C334.029 35.192 333.621 35.084 333.173 35.084C332.709 35.084 332.293 35.188 331.925 35.396C331.557 35.604 331.265 35.908 331.049 36.308C330.841 36.7 330.737 37.168 330.737 37.712C330.737 38.248 330.841 38.72 331.049 39.128C331.265 39.528 331.557 39.836 331.925 40.052C332.293 40.26 332.709 40.364 333.173 40.364C333.621 40.364 334.029 40.256 334.397 40.04C334.773 39.824 335.069 39.516 335.285 39.116C335.501 38.716 335.609 38.252 335.609 37.724ZM334.481 33.296V33.944L332.021 32.516V31.76L334.481 33.296ZM347.983 41H347.143L342.499 33.944V41H341.659V32.612H342.499L347.143 39.656V32.612H347.983V41ZM354.206 30.428C354.174 30.796 354.062 31.1 353.87 31.34C353.686 31.58 353.43 31.7 353.102 31.7C352.918 31.7 352.734 31.656 352.55 31.568C352.366 31.472 352.19 31.38 352.022 31.292C351.854 31.196 351.694 31.148 351.542 31.148C351.39 31.148 351.27 31.196 351.182 31.292C351.102 31.38 351.034 31.52 350.978 31.712H350.438C350.478 31.336 350.59 31.032 350.774 30.8C350.966 30.56 351.222 30.44 351.542 30.44C351.742 30.44 351.934 30.488 352.118 30.584C352.302 30.672 352.478 30.764 352.646 30.86C352.822 30.948 352.978 30.992 353.114 30.992C353.274 30.992 353.394 30.948 353.474 30.86C353.554 30.764 353.618 30.62 353.666 30.428H354.206ZM354.038 32.18C353.998 32.652 353.83 33.028 353.534 33.308C353.246 33.588 352.818 33.728 352.25 33.728C351.682 33.728 351.258 33.592 350.978 33.32C350.698 33.048 350.538 32.668 350.498 32.18H351.134C351.174 32.5 351.286 32.708 351.47 32.804C351.654 32.892 351.918 32.936 352.262 32.936C352.566 32.936 352.822 32.888 353.03 32.792C353.238 32.696 353.362 32.492 353.402 32.18H354.038ZM352.382 34.46C353.166 34.46 353.746 34.632 354.122 34.976C354.498 35.32 354.686 35.868 354.686 36.62V41H353.918L353.714 40.088H353.666C353.386 40.44 353.09 40.7 352.778 40.868C352.474 41.036 352.05 41.12 351.506 41.12C350.922 41.12 350.438 40.968 350.054 40.664C349.67 40.352 349.478 39.868 349.478 39.212C349.478 38.572 349.73 38.08 350.234 37.736C350.738 37.384 351.514 37.192 352.562 37.16L353.654 37.124V36.74C353.654 36.204 353.538 35.832 353.306 35.624C353.074 35.416 352.746 35.312 352.322 35.312C351.986 35.312 351.666 35.364 351.362 35.468C351.058 35.564 350.774 35.676 350.51 35.804L350.186 35.012C350.466 34.86 350.798 34.732 351.182 34.628C351.566 34.516 351.966 34.46 352.382 34.46ZM352.694 37.892C351.894 37.924 351.338 38.052 351.026 38.276C350.722 38.5 350.57 38.816 350.57 39.224C350.57 39.584 350.678 39.848 350.894 40.016C351.118 40.184 351.402 40.268 351.746 40.268C352.29 40.268 352.742 40.12 353.102 39.824C353.462 39.52 353.642 39.056 353.642 38.432V37.856L352.694 37.892ZM359.684 34.328C360.468 34.328 361.108 34.572 361.604 35.06C362.1 35.54 362.348 36.24 362.348 37.16V41H361.52V37.256C361.52 36.544 361.34 36 360.98 35.624C360.628 35.248 360.144 35.06 359.528 35.06C358.896 35.06 358.392 35.26 358.016 35.66C357.64 36.06 357.452 36.648 357.452 37.424V41H356.612V34.448H357.452V35.564C357.66 35.164 357.96 34.86 358.352 34.652C358.744 34.436 359.188 34.328 359.684 34.328ZM366.954 34.352C367.57 34.352 368.106 34.496 368.562 34.784C369.018 35.072 369.346 35.436 369.546 35.876V34.448H370.386V41.168C370.386 41.768 370.254 42.3 369.99 42.764C369.734 43.228 369.374 43.584 368.91 43.832C368.446 44.088 367.918 44.216 367.326 44.216C366.486 44.216 365.786 44.016 365.226 43.616C364.674 43.216 364.33 42.672 364.194 41.984H365.022C365.166 42.44 365.438 42.804 365.838 43.076C366.246 43.348 366.742 43.484 367.326 43.484C367.75 43.484 368.13 43.392 368.466 43.208C368.802 43.032 369.066 42.768 369.258 42.416C369.45 42.064 369.546 41.648 369.546 41.168V39.548C369.338 39.996 369.006 40.368 368.55 40.664C368.102 40.952 367.57 41.096 366.954 41.096C366.354 41.096 365.814 40.956 365.334 40.676C364.862 40.396 364.49 40 364.218 39.488C363.954 38.976 363.822 38.384 363.822 37.712C363.822 37.04 363.954 36.452 364.218 35.948C364.49 35.436 364.862 35.044 365.334 34.772C365.814 34.492 366.354 34.352 366.954 34.352ZM369.546 37.724C369.546 37.196 369.438 36.732 369.222 36.332C369.006 35.932 368.71 35.624 368.334 35.408C367.966 35.192 367.558 35.084 367.11 35.084C366.646 35.084 366.23 35.188 365.862 35.396C365.494 35.604 365.202 35.908 364.986 36.308C364.778 36.7 364.674 37.168 364.674 37.712C364.674 38.248 364.778 38.72 364.986 39.128C365.202 39.528 365.494 39.836 365.862 40.052C366.23 40.26 366.646 40.364 367.11 40.364C367.558 40.364 367.966 40.256 368.334 40.04C368.71 39.824 369.006 39.516 369.222 39.116C369.438 38.716 369.546 38.252 369.546 37.724Z" fill="white"/>
</svg>
