<svg width="140" height="70" viewBox="0 0 140 70" fill="none" xmlns="http://www.w3.org/2000/svg">
<path d="M6.14844 62.6812V57.6733H4.92969V56.2437H6.14844V51.3062H9.15625C10.4844 51.3062 11.5417 51.728 12.3281 52.5718C13.1198 53.4155 13.5234 54.5718 13.5391 56.0405V57.8843C13.5391 59.3791 13.1432 60.5535 12.3516 61.4077C11.5651 62.2567 10.4792 62.6812 9.09375 62.6812H6.14844ZM9.67188 57.6733H8.44531V60.7749H9.24219C9.96615 60.7593 10.4766 60.5483 10.7734 60.1421C11.0703 59.7306 11.2266 59.0353 11.2422 58.0562V56.103C11.2422 55.0405 11.0938 54.3009 10.7969 53.8843C10.5 53.4624 9.99479 53.241 9.28125 53.2202H8.44531V56.2437H9.67188V57.6733ZM19.1016 62.6812C19.0391 62.5509 18.9766 62.3322 18.9141 62.0249C18.5182 62.5666 17.9818 62.8374 17.3047 62.8374C16.5964 62.8374 16.0078 62.603 15.5391 62.1343C15.0755 61.6655 14.8438 61.0588 14.8438 60.314C14.8438 59.4285 15.125 58.7437 15.6875 58.2593C16.2552 57.7749 17.0703 57.5275 18.1328 57.5171H18.8047V56.8374C18.8047 56.4572 18.7396 56.189 18.6094 56.0327C18.4792 55.8765 18.2891 55.7983 18.0391 55.7983C17.487 55.7983 17.2109 56.1213 17.2109 56.7671H15C15 55.9858 15.2917 55.3426 15.875 54.8374C16.4635 54.327 17.2057 54.0718 18.1016 54.0718C19.0286 54.0718 19.7448 54.314 20.25 54.7983C20.7604 55.2775 21.0156 55.965 21.0156 56.8608V60.8374C21.026 61.5666 21.1302 62.1369 21.3281 62.5483V62.6812H19.1016ZM17.7969 61.103C18.0417 61.103 18.25 61.0535 18.4219 60.9546C18.5938 60.8556 18.7214 60.7384 18.8047 60.603V58.8452H18.2734C17.8984 58.8452 17.6016 58.965 17.3828 59.2046C17.1693 59.4442 17.0625 59.7645 17.0625 60.1655C17.0625 60.7905 17.3073 61.103 17.7969 61.103ZM20.5469 50.7905C20.5469 51.3687 20.3984 51.8608 20.1016 52.2671C19.8099 52.6681 19.4401 52.8687 18.9922 52.8687C18.8255 52.8687 18.6771 52.8452 18.5469 52.7983C18.4219 52.7515 18.2422 52.6551 18.0078 52.5093C17.7786 52.3634 17.6146 52.2749 17.5156 52.2437C17.4219 52.2124 17.3177 52.1968 17.2031 52.1968C17.0625 52.1968 16.9453 52.2619 16.8516 52.3921C16.7578 52.5171 16.7109 52.6994 16.7109 52.939L15.4609 52.8687C15.4609 52.2905 15.6094 51.7983 15.9062 51.3921C16.2031 50.9806 16.5677 50.7749 17 50.7749C17.1146 50.7749 17.224 50.7931 17.3281 50.8296C17.4375 50.8608 17.6224 50.952 17.8828 51.103C18.1484 51.2489 18.3385 51.3426 18.4531 51.3843C18.5677 51.4207 18.6823 51.439 18.7969 51.439C18.9323 51.439 19.0495 51.3765 19.1484 51.2515C19.2526 51.1213 19.3047 50.9364 19.3047 50.6968L20.5469 50.7905ZM33.6328 53.1655H32.6094V62.6812H30.6094L30.5156 61.9312C30.0677 62.5353 29.4974 62.8374 28.8047 62.8374C27.9609 62.8374 27.2839 62.4468 26.7734 61.6655C26.263 60.8843 26.0078 59.7931 26.0078 58.3921C26.0078 57.0744 26.2552 56.0249 26.75 55.2437C27.25 54.4624 27.9375 54.0718 28.8125 54.0718C29.4375 54.0718 29.9609 54.3166 30.3828 54.8062V53.1655H28.8906V51.7358H30.3828V50.6812H32.6094V51.7358H33.6328V53.1655ZM28.2266 58.5562C28.2266 60.1812 28.6146 60.9937 29.3906 60.9937C29.8385 60.9937 30.1693 60.7671 30.3828 60.314V56.6499C30.1693 56.1655 29.8411 55.9233 29.3984 55.9233C29.0234 55.9233 28.7344 56.1265 28.5312 56.5327C28.3281 56.939 28.2266 57.6134 28.2266 58.5562ZM39.3359 62.6812C39.2734 62.5509 39.2109 62.3322 39.1484 62.0249C38.7526 62.5666 38.2161 62.8374 37.5391 62.8374C36.8307 62.8374 36.2422 62.603 35.7734 62.1343C35.3099 61.6655 35.0781 61.0588 35.0781 60.314C35.0781 59.4285 35.3594 58.7437 35.9219 58.2593C36.4896 57.7749 37.3047 57.5275 38.3672 57.5171H39.0391V56.8374C39.0391 56.4572 38.974 56.189 38.8438 56.0327C38.7135 55.8765 38.5234 55.7983 38.2734 55.7983C37.7214 55.7983 37.4453 56.1213 37.4453 56.7671H35.2344C35.2344 55.9858 35.526 55.3426 36.1094 54.8374C36.6979 54.327 37.4401 54.0718 38.3359 54.0718C39.263 54.0718 39.9792 54.314 40.4844 54.7983C40.9948 55.2775 41.25 55.965 41.25 56.8608V60.8374C41.2604 61.5666 41.3646 62.1369 41.5625 62.5483V62.6812H39.3359ZM38.0312 61.103C38.276 61.103 38.4844 61.0535 38.6562 60.9546C38.8281 60.8556 38.9557 60.7384 39.0391 60.603V58.8452H38.5078C38.1328 58.8452 37.8359 58.965 37.6172 59.2046C37.4036 59.4442 37.2969 59.7645 37.2969 60.1655C37.2969 60.7905 37.5417 61.103 38.0312 61.103ZM40.9688 50.7515C40.9688 51.4442 40.7188 52.0041 40.2188 52.4312C39.724 52.8582 39.0703 53.0718 38.2578 53.0718C37.4401 53.0718 36.7812 52.8582 36.2812 52.4312C35.7865 52.0041 35.5391 51.4442 35.5391 50.7515H37.1562C37.1562 51.0744 37.2526 51.327 37.4453 51.5093C37.6432 51.6864 37.9141 51.7749 38.2578 51.7749C38.5964 51.7749 38.862 51.6864 39.0547 51.5093C39.2474 51.327 39.3438 51.0744 39.3438 50.7515H40.9688ZM44.875 54.228L44.9375 55.064C45.4375 54.4025 46.0911 54.0718 46.8984 54.0718C48.3516 54.0718 49.099 55.09 49.1406 57.1265V62.6812H46.9219V57.2905C46.9219 56.8114 46.849 56.465 46.7031 56.2515C46.5625 56.0327 46.3125 55.9233 45.9531 55.9233C45.5521 55.9233 45.2396 56.1291 45.0156 56.5405V62.6812H42.7969V54.228H44.875ZM50.4609 58.1968C50.4609 56.8114 50.7109 55.7775 51.2109 55.0952C51.7109 54.4129 52.4115 54.0718 53.3125 54.0718C54.0781 54.0718 54.6693 54.3739 55.0859 54.978L55.1719 54.228H57.1641V62.6812C57.1641 63.7593 56.862 64.5822 56.2578 65.1499C55.6536 65.7228 54.7865 66.0093 53.6562 66.0093C53.1927 66.0093 52.7057 65.9155 52.1953 65.728C51.6849 65.5457 51.3047 65.3114 51.0547 65.0249L51.7969 63.4937C52.0052 63.7124 52.276 63.8895 52.6094 64.0249C52.9427 64.1655 53.2578 64.2358 53.5547 64.2358C54.0495 64.2358 54.4036 64.116 54.6172 63.8765C54.8359 63.6421 54.9479 63.2619 54.9531 62.7358V62.0093C54.5312 62.5614 53.9818 62.8374 53.3047 62.8374C52.4036 62.8374 51.7057 62.4884 51.2109 61.7905C50.7214 61.0874 50.4714 60.0978 50.4609 58.8218V58.1968ZM52.6719 58.7515C52.6719 59.5327 52.7734 60.103 52.9766 60.4624C53.1797 60.8166 53.5026 60.9937 53.9453 60.9937C54.3984 60.9937 54.7344 60.8296 54.9531 60.5015V56.4624C54.724 56.103 54.3932 55.9233 53.9609 55.9233C53.5234 55.9233 53.1979 56.103 52.9844 56.4624C52.776 56.8218 52.6719 57.3999 52.6719 58.1968V58.7515ZM65.2656 59.4233L64.6719 60.0874V62.6812H62.4609V50.6812H64.6719V57.1655L64.9453 56.7593L66.4766 54.228H69.1094L66.6562 57.7124L69.3438 62.6812H66.8125L65.2656 59.4233ZM72.8281 59.0015L73.9531 54.228H76.3125L73.5312 63.9468C73.1146 65.3791 72.3307 66.0952 71.1797 66.0952C70.9141 66.0952 70.612 66.0457 70.2734 65.9468V64.2202L70.5312 64.228C70.875 64.228 71.1328 64.1603 71.3047 64.0249C71.4818 63.8947 71.6146 63.6655 71.7031 63.3374L71.875 62.7671L69.4375 54.228H71.8125L72.8281 59.0015ZM73.3359 50.6812H75.8203L73.6484 53.103H71.8047L73.3359 50.6812ZM83.5156 52.1499V54.228H84.6484V55.8921H83.5156V60.0874C83.5156 60.4207 83.5599 60.6499 83.6484 60.7749C83.7422 60.8999 83.9193 60.9624 84.1797 60.9624C84.3932 60.9624 84.5677 60.9442 84.7031 60.9077L84.6875 62.6265C84.3125 62.7671 83.9062 62.8374 83.4688 62.8374C82.0417 62.8374 81.3203 62.0197 81.3047 60.3843V55.8921H80.3281V54.228H81.3047V52.1499H83.5156ZM88.0234 54.9702C88.5026 54.3713 89.0911 54.0718 89.7891 54.0718C90.5599 54.0718 91.1458 54.3426 91.5469 54.8843C91.9479 55.4259 92.151 56.2332 92.1562 57.3062V62.6812H89.9375V57.3296C89.9375 56.8348 89.8594 56.478 89.7031 56.2593C89.5521 56.0353 89.3047 55.9233 88.9609 55.9233C88.5599 55.9233 88.2474 56.1082 88.0234 56.478V62.6812H85.8125V50.6812H88.0234V54.9702ZM97.7578 62.6812C97.6953 62.5509 97.6328 62.3322 97.5703 62.0249C97.1745 62.5666 96.638 62.8374 95.9609 62.8374C95.2526 62.8374 94.6641 62.603 94.1953 62.1343C93.7318 61.6655 93.5 61.0588 93.5 60.314C93.5 59.4285 93.7812 58.7437 94.3438 58.2593C94.9115 57.7749 95.7266 57.5275 96.7891 57.5171H97.4609V56.8374C97.4609 56.4572 97.3958 56.189 97.2656 56.0327C97.1354 55.8765 96.9453 55.7983 96.6953 55.7983C96.1432 55.7983 95.8672 56.1213 95.8672 56.7671H93.6562C93.6562 55.9858 93.9479 55.3426 94.5312 54.8374C95.1198 54.327 95.862 54.0718 96.7578 54.0718C97.6849 54.0718 98.401 54.314 98.9062 54.7983C99.4167 55.2775 99.6719 55.965 99.6719 56.8608V60.8374C99.6823 61.5666 99.7865 62.1369 99.9844 62.5483V62.6812H97.7578ZM96.4531 61.103C96.6979 61.103 96.9062 61.0535 97.0781 60.9546C97.25 60.8556 97.3776 60.7384 97.4609 60.603V58.8452H96.9297C96.5547 58.8452 96.2578 58.965 96.0391 59.2046C95.8255 59.4442 95.7188 59.7645 95.7188 60.1655C95.7188 60.7905 95.9635 61.103 96.4531 61.103ZM103.352 54.228L103.414 55.0093C103.909 54.3843 104.562 54.0718 105.375 54.0718C106.219 54.0718 106.815 54.452 107.164 55.2124C107.648 54.452 108.339 54.0718 109.234 54.0718C110.714 54.0718 111.471 55.0952 111.508 57.1421V62.6812H109.297V57.2827C109.297 56.7931 109.229 56.4442 109.094 56.2358C108.958 56.0275 108.729 55.9233 108.406 55.9233C107.995 55.9233 107.688 56.1759 107.484 56.6812L107.5 56.9468V62.6812H105.289V57.2983C105.289 56.814 105.224 56.465 105.094 56.2515C104.964 56.0327 104.732 55.9233 104.398 55.9233C104.018 55.9233 103.716 56.1291 103.492 56.5405V62.6812H101.281V54.228H103.352ZM116.57 58.1968C116.57 56.8114 116.82 55.7775 117.32 55.0952C117.82 54.4129 118.521 54.0718 119.422 54.0718C120.188 54.0718 120.779 54.3739 121.195 54.978L121.281 54.228H123.273V62.6812C123.273 63.7593 122.971 64.5822 122.367 65.1499C121.763 65.7228 120.896 66.0093 119.766 66.0093C119.302 66.0093 118.815 65.9155 118.305 65.728C117.794 65.5457 117.414 65.3114 117.164 65.0249L117.906 63.4937C118.115 63.7124 118.385 63.8895 118.719 64.0249C119.052 64.1655 119.367 64.2358 119.664 64.2358C120.159 64.2358 120.513 64.116 120.727 63.8765C120.945 63.6421 121.057 63.2619 121.062 62.7358V62.0093C120.641 62.5614 120.091 62.8374 119.414 62.8374C118.513 62.8374 117.815 62.4884 117.32 61.7905C116.831 61.0874 116.581 60.0978 116.57 58.8218V58.1968ZM118.781 58.7515C118.781 59.5327 118.883 60.103 119.086 60.4624C119.289 60.8166 119.612 60.9937 120.055 60.9937C120.508 60.9937 120.844 60.8296 121.062 60.5015V56.4624C120.833 56.103 120.503 55.9233 120.07 55.9233C119.633 55.9233 119.307 56.103 119.094 56.4624C118.885 56.8218 118.781 57.3999 118.781 58.1968V58.7515ZM127.203 62.6812H124.984V54.228H127.203V62.6812ZM124.883 52.0405C124.883 51.6968 124.992 51.4155 125.211 51.1968C125.43 50.978 125.721 50.8687 126.086 50.8687C126.451 50.8687 126.742 50.978 126.961 51.1968C127.18 51.4155 127.289 51.6968 127.289 52.0405C127.289 52.3791 127.18 52.6603 126.961 52.8843C126.747 53.1082 126.456 53.2202 126.086 53.2202C125.716 53.2202 125.422 53.1082 125.203 52.8843C124.99 52.6603 124.883 52.3791 124.883 52.0405ZM132.93 62.6812C132.867 62.5509 132.805 62.3322 132.742 62.0249C132.346 62.5666 131.81 62.8374 131.133 62.8374C130.424 62.8374 129.836 62.603 129.367 62.1343C128.904 61.6655 128.672 61.0588 128.672 60.314C128.672 59.4285 128.953 58.7437 129.516 58.2593C130.083 57.7749 130.898 57.5275 131.961 57.5171H132.633V56.8374C132.633 56.4572 132.568 56.189 132.438 56.0327C132.307 55.8765 132.117 55.7983 131.867 55.7983C131.315 55.7983 131.039 56.1213 131.039 56.7671H128.828C128.828 55.9858 129.12 55.3426 129.703 54.8374C130.292 54.327 131.034 54.0718 131.93 54.0718C132.857 54.0718 133.573 54.314 134.078 54.7983C134.589 55.2775 134.844 55.965 134.844 56.8608V60.8374C134.854 61.5666 134.958 62.1369 135.156 62.5483V62.6812H132.93ZM131.625 61.103C131.87 61.103 132.078 61.0535 132.25 60.9546C132.422 60.8556 132.549 60.7384 132.633 60.603V58.8452H132.102C131.727 58.8452 131.43 58.965 131.211 59.2046C130.997 59.4442 130.891 59.7645 130.891 60.1655C130.891 60.7905 131.135 61.103 131.625 61.103Z" fill="#27AE60"/>
<path d="M89 22.3188C89 32.4256 80.9276 40.5942 71 40.5942C61.0724 40.5942 53 32.4256 53 22.3188C53 12.212 61.0724 4.04346 71 4.04346C80.9276 4.04346 89 12.212 89 22.3188Z" stroke="#27AE60" stroke-width="2"/>
<path d="M70 22.3188C72.21 22.3188 74 20.5029 74 18.2609C74 16.0188 72.21 14.2029 70 14.2029C67.79 14.2029 66 16.0188 66 18.2609C66 20.5029 67.79 22.3188 70 22.3188ZM70 16.2319C71.1 16.2319 72 17.1449 72 18.2609C72 19.3768 71.1 20.2898 70 20.2898C68.9 20.2898 68 19.3768 68 18.2609C68 17.1449 68.9 16.2319 70 16.2319ZM64 28.4058C64.2 27.7666 66.57 26.7014 68.96 26.4377L71 24.4087C70.61 24.3681 70.32 24.3478 70 24.3478C67.33 24.3478 62 25.7072 62 28.4058V30.4348H71L69 28.4058H64ZM79.6 22.8261L74.47 28.071L72.4 25.9609L71 27.3913L74.47 30.942L81 24.2565L79.6 22.8261Z" fill="#27AE60"/>
</svg>
