<svg width="140" height="90" xmlns="http://www.w3.org/2000/svg">
 <g>
  <title>background</title>
  <rect fill="none" id="canvas_background" height="92" width="142" y="-1" x="-1"/>
 </g>

 <g>
  <title>Layer 1</title>
  <path id="svg_1" fill="#27AE60" d="m7.32491,104.4459l0,-5.0079l-1.21875,0l0,-1.4296l1.21875,0l0,-4.9375l3.00781,0c1.32815,0 2.38545,0.42181 3.17185,1.26561c0.7917,0.8437 1.1953,2 1.211,3.4687l0,1.8438c0,1.4948 -0.3959,2.6692 -1.1875,3.52339c-0.7865,0.84901 -1.8724,1.2735 -3.25785,1.2735l-2.94531,0zm3.52344,-5.0079l-1.22657,0l0,3.1016l0.79688,0c0.72396,-0.0156 1.23441,-0.2266 1.53121,-0.6328c0.2969,-0.4115 0.4532,-1.1068 0.4688,-2.0859l0,-1.95319c0,-1.0625 -0.1484,-1.8021 -0.4453,-2.2187c-0.2969,-0.4219 -0.80211,-0.6433 -1.51565,-0.66411l-0.83594,0l0,3.0235l1.22657,0l0,1.4296zm9.42972,5.0079c-0.0625,-0.1303 -0.125,-0.349 -0.1875,-0.6563c-0.3959,0.54171 -0.9323,0.8125 -1.6094,0.8125c-0.7083,0 -1.2969,-0.23439 -1.7656,-0.7031c-0.4636,-0.4688 -0.6953,-1.0755 -0.6953,-1.8203c0,-0.8855 0.2812,-1.5703 0.8437,-2.0547c0.5677,-0.4844 1.3828,-0.7318 2.4453,-0.7422l0.6719,0l0,-0.6797c0,-0.3802 -0.0651,-0.6484 -0.1953,-0.8047c-0.1302,-0.1562 -0.3203,-0.23439 -0.5703,-0.23439c-0.5521,0 -0.8282,0.32299 -0.8282,0.9688l-2.2109,0c0,-0.7813 0.2917,-1.4245 0.875,-1.9297c0.5885,-0.5104 1.3307,-0.7656 2.2266,-0.7656c0.927,0 1.6432,0.24219 2.1484,0.7265c0.5104,0.4792 0.7656,1.1667 0.7656,2.0625l0,3.9766c0.0104,0.7292 0.1146,1.2995 0.3125,1.7109l0,0.1329l-2.2265,0l0,-0.00001zm-1.3047,-1.57819c0.2448,0 0.4531,-0.0495 0.625,-0.1484c0.1719,-0.099 0.2995,-0.2162 0.3828,-0.3516l0,-1.75781l-0.5313,0c-0.375,0 -0.6718,0.1198 -0.8906,0.3594c-0.2135,0.2396 -0.3203,0.5599 -0.3203,0.9609c0,0.625 0.2448,0.9375 0.7344,0.9375l0,0.00001zm2.75,-10.3125c0,0.57819 -0.1485,1.0703 -0.4453,1.4766c-0.2917,0.401 -0.6615,0.6016 -1.1094,0.6016c-0.1667,0 -0.3151,-0.0235 -0.4453,-0.0704c-0.125,-0.04681 -0.3047,-0.1432 -0.5391,-0.289c-0.2292,-0.1459 -0.3932,-0.2344 -0.4922,-0.26561c-0.0937,-0.0313 -0.1979,-0.04689 -0.3125,-0.04689c-0.1406,0 -0.2578,0.0651 -0.3515,0.1953c-0.0938,0.125 -0.1407,0.3073 -0.1407,0.54689l-1.25,-0.0703c0,-0.57819 0.1485,-1.0704 0.4453,-1.4766c0.2969,-0.4115 0.6615,-0.6172 1.0938,-0.6172c0.1146,0 0.224,0.0182 0.3281,0.0547c0.1094,0.0312 0.2943,0.1224 0.5547,0.2734c0.2656,0.1459 0.4557,0.2396 0.5703,0.2813c0.1146,0.0364 0.2292,0.0547 0.3438,0.0547c0.1354,0 0.2526,-0.0625 0.3515,-0.1875c0.1042,-0.1302 0.1563,-0.3151 0.1563,-0.5547l1.2422,0.0937l0,0.00001zm13.0859,2.375l-1.0234,0l0,9.51569l-2,0l-0.0938,-0.75c-0.4479,0.6041 -1.0182,0.9062 -1.7109,0.9062c-0.8438,0 -1.5208,-0.3906 -2.0313,-1.17189c-0.5104,-0.7812 -0.7656,-1.8724 -0.7656,-3.2734c0,-1.3177 0.2474,-2.3672 0.7422,-3.1484c0.5,-0.7813 1.1875,-1.1719 2.0625,-1.1719c0.625,0 1.1484,0.2448 1.5703,0.7344l0,-1.6407l-1.4922,0l0,-1.4297l1.4922,0l0,-1.0546l2.2266,0l0,1.0546l1.0234,0l0,1.4297zm-5.4062,5.39069c0,1.625 0.388,2.4375 1.164,2.4375c0.4479,0 0.7787,-0.2266 0.9922,-0.6797l0,-3.6641c-0.2135,-0.48439 -0.5417,-0.7266 -0.9844,-0.7266c-0.375,0 -0.664,0.2032 -0.8672,0.6094c-0.2031,0.4063 -0.3046,1.0807 -0.3046,2.0235zm11.1093,4.125c-0.0625,-0.1303 -0.125,-0.349 -0.1875,-0.6563c-0.3958,0.54171 -0.9323,0.8125 -1.6093,0.8125c-0.7084,0 -1.2969,-0.23439 -1.7657,-0.7031c-0.4635,-0.4688 -0.6953,-1.0755 -0.6953,-1.8203c0,-0.8855 0.2813,-1.5703 0.8438,-2.0547c0.5677,-0.4844 1.3828,-0.7318 2.4453,-0.7422l0.6719,0l0,-0.6797c0,-0.3802 -0.0651,-0.6484 -0.1953,-0.8047c-0.1303,-0.1562 -0.3204,-0.23439 -0.5704,-0.23439c-0.552,0 -0.8281,0.32299 -0.8281,0.9688l-2.2109,0c0,-0.7813 0.2916,-1.4245 0.875,-1.9297c0.5885,-0.5104 1.3307,-0.7656 2.2265,-0.7656c0.9271,0 1.6433,0.24219 2.1485,0.7265c0.5104,0.4792 0.7656,1.1667 0.7656,2.0625l0,3.9766c0.0104,0.7292 0.1146,1.2995 0.3125,1.7109l0,0.1329l-2.2266,0l0,-0.00001zm-1.3047,-1.57819c0.2448,0 0.4532,-0.0495 0.625,-0.1484c0.1719,-0.099 0.2995,-0.2162 0.3829,-0.3516l0,-1.75781l-0.5313,0c-0.375,0 -0.677,0.1198 -0.8906,0.3594c-0.2136,0.2396 -0.3203,0.5599 -0.3203,0.9609c0,0.625 0.2448,0.9375 0.7343,0.9375l0,0.00001zm2.9376,-10.35151c0,0.69271 -0.25,1.25261 -0.75,1.6797c-0.4948,0.42701 -1.1485,0.64061 -1.961,0.64061c-0.8177,0 -1.4766,-0.2136 -1.9766,-0.64061c-0.4947,-0.42709 -0.7421,-0.98699 -0.7421,-1.6797l1.6171,0c0,0.32291 0.0964,0.57551 0.2891,0.75781c0.1979,0.17709 0.4688,0.2656 0.8125,0.2656c0.3386,0 0.6042,-0.0885 0.7969,-0.2656c0.1927,-0.1823 0.2891,-0.4349 0.2891,-0.75781l1.625,0zm3.9062,3.47651l0.0625,0.83599c0.5,-0.6615 1.1536,-0.99219 1.9609,-0.99219c1.4532,0 2.2006,1.01819 2.2422,3.05469l0,5.5547l-2.2187,0l0,-5.39069c0,-0.47911 -0.0729,-0.82551 -0.2188,-1.03901c-0.1406,-0.2188 -0.3906,-0.32819 -0.75,-0.32819c-0.401,0 -0.7135,0.2058 -0.9375,0.6172l0,6.14069l-2.2187,0l0,-8.45319l2.0781,0zm5.5859,3.9688c0,-1.38541 0.25,-2.41931 0.75,-3.10161c0.5,-0.6823 1.2006,-1.02339 2.1016,-1.02339c0.7656,0 1.3568,0.30209 1.7734,0.9062l0.086,-0.75l1.9922,0l0,8.45319c0,1.07811 -0.3021,1.901 -0.9063,2.4687c-0.6042,0.5729 -1.4713,0.8594 -2.6016,0.8594c-0.4635,0 -0.9505,-0.0938 -1.4609,-0.2813c-0.5104,-0.1823 -0.8906,-0.4166 -1.1406,-0.7031l0.7422,-1.5312c0.2083,0.2187 0.4791,0.3958 0.8125,0.5312c0.3333,0.1406 0.6484,0.2109 0.9453,0.2109c0.4948,0 0.8489,-0.1198 1.0625,-0.3593c0.2187,-0.2344 0.3307,-0.6146 0.3359,-1.1407l0,-0.7265c-0.4219,0.5521 -0.9713,0.8281 -1.6484,0.8281c-0.9011,0 -1.599,-0.349 -2.0938,-1.0469c-0.4895,-0.7031 -0.7395,-1.6927 -0.75,-2.9687l0,-0.625l0,0.00001zm2.211,0.55469c0,0.7812 0.1015,1.35151 0.3047,1.7109c0.2031,0.35421 0.526,0.5313 0.9687,0.5313c0.4531,0 0.7891,-0.1641 1.0078,-0.4922l0,-4.0391c-0.2291,-0.35939 -0.5599,-0.5391 -0.9922,-0.5391c-0.4375,0 -0.763,0.1797 -0.9765,0.5391c-0.2084,0.3594 -0.3125,0.9375 -0.3125,1.7344l0,0.5547zm12.5937,0.67181l-0.5937,0.6641l0,2.5938l-2.211,0l0,-12l2.211,0l0,6.4843l0.2734,-0.4062l1.5313,-2.5313l2.6328,0l-2.4532,3.4844l2.6876,4.9688l-2.5313,0l-1.5469,-3.2579zm7.5625,-0.42181l1.125,-4.77349l2.3594,0l-2.7813,9.7188c-0.4166,1.4323 -1.2005,2.14839 -2.3515,2.14839c-0.2656,0 -0.5677,-0.04949 -0.9063,-0.14839l0,-1.72661l0.2578,0.00781c0.3438,0 0.6016,-0.06771 0.7735,-0.20311c0.1771,-0.1302 0.3099,-0.35939 0.3984,-0.6875l0.1719,-0.5703l-2.4375,-8.5391l2.375,0l1.0156,4.7735zm0.5078,-8.3203l2.4844,0l-2.1719,2.42181l-1.8437,0l1.5312,-2.42181zm10.1797,1.4687l0,2.07811l1.1328,0l0,1.6641l-1.1328,0l0,4.1953c0,0.3333 0.0443,0.5625 0.1328,0.6875c0.0938,0.125 0.2709,0.1875 0.5313,0.1875c0.2135,0 0.388,-0.0182 0.5234,-0.0547l-0.0156,1.7188c-0.375,0.1406 -0.7813,0.2109 -1.2187,0.2109c-1.4271,0 -2.1485,-0.8177 -2.1641,-2.4531l0,-4.4922l-0.9766,0l0,-1.6641l0.9766,0l0,-2.07811l2.2109,0zm4.5078,2.8203c0.4792,-0.5989 1.0677,-0.89839 1.7657,-0.89839c0.7708,0 1.3567,0.27079 1.7578,0.8125c0.401,0.5416 0.6041,1.3489 0.6093,2.42189l0,5.375l-2.2187,0l0,-5.3516c0,-0.4948 -0.0781,-0.8516 -0.2344,-1.0703c-0.151,-0.224 -0.3984,-0.336 -0.7422,-0.336c-0.401,0 -0.7135,0.1849 -0.9375,0.5547l0,6.2032l-2.2109,0l0,-12l2.2109,0l0,4.289zm9.7344,7.711c-0.0625,-0.1303 -0.125,-0.349 -0.1875,-0.6563c-0.3958,0.54171 -0.9323,0.8125 -1.6094,0.8125c-0.7083,0 -1.2968,-0.23439 -1.7656,-0.7031c-0.4635,-0.4688 -0.6953,-1.0755 -0.6953,-1.8203c0,-0.8855 0.2812,-1.5703 0.8438,-2.0547c0.5677,-0.4844 1.3828,-0.7318 2.4453,-0.7422l0.6718,0l0,-0.6797c0,-0.3802 -0.0651,-0.6484 -0.1953,-0.8047c-0.1302,-0.1562 -0.3203,-0.23439 -0.5703,-0.23439c-0.5521,0 -0.8281,0.32299 -0.8281,0.9688l-2.211,0c0,-0.7813 0.2917,-1.4245 0.875,-1.9297c0.5886,-0.5104 1.3308,-0.7656 2.2266,-0.7656c0.9271,0 1.6432,0.24219 2.1484,0.7265c0.5105,0.4792 0.7657,1.1667 0.7657,2.0625l0,3.9766c0.0104,0.7292 0.1146,1.2995 0.3125,1.7109l0,0.1329l-2.2266,0l0,-0.00001zm-1.3047,-1.57819c0.2448,0 0.4531,-0.0495 0.625,-0.1484c0.1719,-0.099 0.2995,-0.2162 0.3828,-0.3516l0,-1.75781l-0.5312,0c-0.375,0 -0.6719,0.1198 -0.8906,0.3594c-0.2136,0.2396 -0.3203,0.5599 -0.3203,0.9609c0,0.625 0.2447,0.9375 0.7343,0.9375l0,0.00001zm6.8989,-6.875l0.062,0.7813c0.495,-0.625 1.148,-0.9375 1.961,-0.9375c0.844,0 1.44,0.3802 1.789,1.1406c0.484,-0.7604 1.175,-1.1406 2.07,-1.1406c1.48,0 2.237,1.02339 2.274,3.0703l0,5.5391l-2.211,0l0,-5.3985c0,-0.4896 -0.068,-0.8385 -0.203,-1.0469c-0.136,-0.2083 -0.365,-0.3125 -0.688,-0.3125c-0.411,0 -0.718,0.2526 -0.922,0.7579l0.016,0.2656l0,5.7344l-2.211,0l0,-5.3829c0,-0.4843 -0.065,-0.8333 -0.195,-1.0468c-0.13,-0.2188 -0.362,-0.3282 -0.696,-0.3282c-0.38,0 -0.682,0.2058 -0.906,0.6172l0,6.1407l-2.211,0l0,-8.4532l2.071,0zm13.218,3.9688c0,-1.38541 0.25,-2.41931 0.75,-3.10161c0.5,-0.6823 1.201,-1.02339 2.102,-1.02339c0.766,0 1.357,0.30209 1.773,0.9062l0.086,-0.75l1.992,0l0,8.45319c0,1.07811 -0.302,1.901 -0.906,2.4687c-0.604,0.5729 -1.471,0.8594 -2.601,0.8594c-0.464,0 -0.951,-0.0938 -1.461,-0.2813c-0.511,-0.1823 -0.891,-0.4166 -1.141,-0.7031l0.742,-1.5312c0.209,0.2187 0.479,0.3958 0.813,0.5312c0.333,0.1406 0.648,0.2109 0.945,0.2109c0.495,0 0.849,-0.1198 1.063,-0.3593c0.218,-0.2344 0.33,-0.6146 0.335,-1.1407l0,-0.7265c-0.421,0.5521 -0.971,0.8281 -1.648,0.8281c-0.901,0 -1.599,-0.349 -2.094,-1.0469c-0.489,-0.7031 -0.739,-1.6927 -0.75,-2.9687l0,-0.625l0,0.00001zm2.211,0.55469c0,0.7812 0.102,1.35151 0.305,1.7109c0.203,0.35421 0.526,0.5313 0.969,0.5313c0.453,0 0.789,-0.1641 1.007,-0.4922l0,-4.0391c-0.229,-0.35939 -0.559,-0.5391 -0.992,-0.5391c-0.437,0 -0.763,0.1797 -0.976,0.5391c-0.209,0.3594 -0.313,0.9375 -0.313,1.7344l0,0.5547zm8.422,3.9297l-2.219,0l0,-8.45319l2.219,0l0,8.45319zm-2.32,-10.64069c0,-0.3437 0.109,-0.625 0.328,-0.8437c0.219,-0.2188 0.51,-0.32811 0.875,-0.32811c0.365,0 0.656,0.10931 0.875,0.32811c0.219,0.2187 0.328,0.5 0.328,0.8437c0,0.3386 -0.109,0.61979 -0.328,0.8438c-0.214,0.2239 -0.505,0.33589 -0.875,0.33589c-0.37,0 -0.664,-0.11199 -0.883,-0.33589c-0.213,-0.22401 -0.32,-0.5052 -0.32,-0.8438zm8.047,10.64069c-0.063,-0.1303 -0.125,-0.349 -0.188,-0.6563c-0.396,0.54171 -0.932,0.8125 -1.609,0.8125c-0.709,0 -1.297,-0.23439 -1.766,-0.7031c-0.463,-0.4688 -0.695,-1.0755 -0.695,-1.8203c0,-0.8855 0.281,-1.5703 0.844,-2.0547c0.567,-0.4844 1.382,-0.7318 2.445,-0.7422l0.672,0l0,-0.6797c0,-0.3802 -0.065,-0.6484 -0.195,-0.8047c-0.131,-0.1562 -0.321,-0.23439 -0.571,-0.23439c-0.552,0 -0.828,0.32299 -0.828,0.9688l-2.211,0c0,-0.7813 0.292,-1.4245 0.875,-1.9297c0.589,-0.5104 1.331,-0.7656 2.227,-0.7656c0.927,0 1.643,0.24219 2.148,0.7265c0.511,0.4792 0.766,1.1667 0.766,2.0625l0,3.9766c0.01,0.7292 0.114,1.2995 0.312,1.7109l0,0.1329l-2.226,0l0,-0.00001zm-1.305,-1.57819c0.245,0 0.453,-0.0495 0.625,-0.1484c0.172,-0.099 0.299,-0.2162 0.383,-0.3516l0,-1.75781l-0.531,0c-0.375,0 -0.672,0.1198 -0.891,0.3594c-0.214,0.2396 -0.32,0.5599 -0.32,0.9609c0,0.401 0.244,0.9375 0.734,0.9375l0,0.00001z"/>
  <path stroke="#f19b40" fill="none" id="svg_2" stroke-width="2" d="m211.52941,27.3188c0,10.1068 -8.0724,18.2754 -18,18.2754c-9.9276,0 -18,-8.1686 -18,-18.2754c0,-10.1068 8.0724,-18.27534 18,-18.27534c9.9276,0 18,8.16854 18,18.27534z"/>
  <path stroke-width="0" stroke="null" id="svg_3" fill="#f19b40" d="m167.05882,22.02468c2.21,0 4,-1.8159 4,-4.0579c0,-2.2421 -1.79,-4.058 -4,-4.058c-2.21,0 -4,1.8159 -4,4.058c0,2.242 1.79,4.0579 4,4.0579zm0,-6.0869c1.1,0 2,0.913 2,2.029c0,1.1159 -0.9,2.0289 -2,2.0289c-1.1,0 -2,-0.913 -2,-2.0289c0,-1.116 0.9,-2.029 2,-2.029zm-6,12.1739c0.2,-0.6392 2.57,-1.7044 4.96,-1.9681l2.04,-2.029c-0.39,-0.0406 -0.68,-0.0609 -1,-0.0609c-2.67,0 -8,1.3594 -8,4.058l0,2.029l9,0l-2,-2.029l-5,0zm15.6,-5.5797l-5.13,5.2449l-2.07,-2.1101l-1.4,1.4304l3.47,3.5507l6.53,-6.6855l-1.4,-1.4304z"/>
  <g stroke="null" id="svg_17">
   <g stroke="null" id="svg_10">
    <path stroke="null" id="svg_12" d="m-30.30057,15.42477l-0.47191,0.01259l-0.0568,-2.12931a0.47191,0.53233 0 0 0 -0.54731,-0.51279l-0.40901,0.06951l-0.05849,-2.19319a0.46483,0.52434 0 0 0 -0.19527,-0.41563a0.47899,0.54031 0 0 0 -0.4084,-0.085l-17.17614,5.4709l1.66851,-3.48579a2.39118,2.69731 0 0 0 0.27611,-1.33381a2.35956,2.66164 0 0 0 -4.43858,-1.21871l-5.56891,11.64436a2.34682,2.64727 0 0 0 -0.28526,1.3447l0.17563,6.5849a2.3237,2.62119 0 0 0 0.10911,0.7269l1.66428,5.9166l-0.17932,0.00479a0.47191,0.53233 0 0 0 -0.45772,0.54491l0.08519,3.19397a0.47191,0.53233 0 0 0 0.48611,0.51975l10.38208,-0.27691a0.47191,0.53233 0 0 0 0.45771,-0.54492l-0.08519,-3.19397a0.47191,0.53233 0 0 0 -0.48611,-0.51974l-0.03564,-1.33615a3.30339,3.7263 0 0 0 -1.03784,-2.61454l-0.74847,-0.79508l17.73919,-0.47314a0.47191,0.53233 0 0 0 0.45771,-0.54491l-0.36915,-13.84054a0.47191,0.53233 0 0 0 -0.48611,-0.51975l0,0zm-1.45635,-1.4847l0.04061,1.52246l-10.25466,0.27351l10.21405,-1.79597zm9.20137,-4.35259l0.04401,1.65022l-21.87591,3.84364l21.8319,-5.49386zm-11.0209,28.02669l-22.09022,0.58918l-0.03536,-1.32549l9.43825,-0.25174l12.68733,0.98804l0,0.00001zm-1.13917,-29.78524a0.43133,0.48655 0 0 0 0.10836,0.16758l-0.00458,0.00545l1.575,1.68396a2.33361,2.63236 0 0 1 -13.76289,24.55199l0.03564,1.33614l-8.27734,0.22077l-1.74745,-6.20204a1.56581,1.76627 0 0 1 -0.0637,-0.44045l-0.17563,-6.5849a1.3761,1.55227 0 0 1 0.17219,-0.80366l5.57348,-11.6498a1.40394,1.58368 0 0 1 1.91465,-0.63172a1.39214,1.57037 0 0 1 0.74478,1.36518a1.41574,1.59699 0 0 1 -0.16761,0.7982l-2.07108,4.32755l-1.14675,0.03059a0.47191,0.53233 0 0 0 -0.45771,0.54491l0.29816,11.1789a0.47946,0.54085 0 0 0 0.30579,0.48726a0.47191,0.53233 0 0 0 0.5157,-0.1416l4.03278,-4.96585a1.41904,1.60071 0 0 1 2.4146,0.76129c0.01228,0.10621 0.02456,0.21243 0.03155,0.29748a1.44641,1.63159 0 0 1 -0.38518,1.13961l-3.886,4.62633a0.47191,0.53233 0 0 0 -0.08362,0.58288l14.50686,-22.68605l0,0zm21.77785,4.87406l-35.16219,0.93785l2.90662,-3.45489a4.67193,5.27005 0 0 0 4.37954,18.3042a4.71913,5.32329 0 1 0 -4.6862,-6.78422a2.37514,2.67921 0 0 0 -2.50855,0.67419l-3.25079,4.00743l-0.2489,-9.33171l20.76415,-0.55382l17.80632,-3.79903l0,0zm-32.04916,8.4086a2.37183,2.67548 0 0 0 -0.679,-1.37758a3.78615,4.27087 0 1 1 0.48805,3.07136a2.53747,2.86233 0 0 0 0.24077,-1.2423c1.00427,2.41834 0.98643,2.28031 0.96301,2.11047l-1.01283,-2.56195l0,0z"/>
   </g>
  </g>
  <g stroke="null" id="svg_43">
   <g stroke="null" transform="matrix(0.07628368182275698,0,0,0.07628368182275698,-122.44392846505596,-41.251237888153355) " id="svg_22">
    <g stroke="null" id="svg_23">
     <path fill="#f19b40" stroke="null" id="svg_24" d="m2694.167532,648.302805c-48.352,-48.352 -112.64,-74.98 -181.02,-74.98s-132.668,26.628 -181.02,74.98c-48.351,48.352 -74.98,112.64 -74.98,181.02s26.629,132.668 74.98,181.02c48.352,48.352 112.64,74.98 181.02,74.98s132.668,-26.628 181.02,-74.98c48.351,-48.352 74.98,-112.64 74.98,-181.02s-26.629,-132.668 -74.98,-181.02zm-181.02,407.02c-124.617,0 -226,-101.383 -226,-226s101.383,-226 226,-226s226,101.383 226,226s-101.383,226 -226,226z"/>
    </g>
   </g>
   <g stroke="null" transform="matrix(0.07628368182275698,0,0,0.07628368182275698,-122.44392846505596,-41.251237888153355) " id="svg_25">
    <g stroke="null" id="svg_26">
     <path fill="#f19b40" stroke="null" id="svg_27" d="m2529.214482,814.322805l-32.134,0c-18.307,0 -33.2,-14.893 -33.2,-33.199c0,-18.307 14.894,-33.2 33.2,-33.2l64.267,0c8.284,0 15,-6.716 15,-15s-6.716,-15 -15,-15l-33.2,0l0,-33.2c0,-8.284 -6.716,-15 -15,-15s-15,6.716 -15,15l0,33.2l-1.066,0c-34.849,0 -63.2,28.352 -63.2,63.2c0,34.848 28.352,63.199 63.2,63.199l32.134,0c18.306,0 33.199,14.894 33.199,33.2c0,18.306 -14.893,33.2 -33.199,33.2l-64.267,0c-8.284,0 -15,6.716 -15,15s6.716,15 15,15l33.199,0l0,33.201c0,8.284 6.716,15 15,15s15,-6.716 15,-15l0,-33.201l1.067,0c34.848,0 63.199,-28.352 63.199,-63.2s-28.351,-63.2 -63.199,-63.2z"/>
    </g>
   </g>
   <g stroke="null" transform="matrix(0.07628368182275698,0,0,0.07628368182275698,-122.44392846505596,-41.251237888153355) " id="svg_28"/>
   <g stroke="null" transform="matrix(0.07628368182275698,0,0,0.07628368182275698,-122.44392846505596,-41.251237888153355) " id="svg_29"/>
   <g stroke="null" transform="matrix(0.07628368182275698,0,0,0.07628368182275698,-122.44392846505596,-41.251237888153355) " id="svg_30"/>
   <g stroke="null" transform="matrix(0.07628368182275698,0,0,0.07628368182275698,-122.44392846505596,-41.251237888153355) " id="svg_31"/>
   <g stroke="null" transform="matrix(0.07628368182275698,0,0,0.07628368182275698,-122.44392846505596,-41.251237888153355) " id="svg_32"/>
   <g stroke="null" transform="matrix(0.07628368182275698,0,0,0.07628368182275698,-122.44392846505596,-41.251237888153355) " id="svg_33"/>
   <g stroke="null" transform="matrix(0.07628368182275698,0,0,0.07628368182275698,-122.44392846505596,-41.251237888153355) " id="svg_34"/>
   <g stroke="null" transform="matrix(0.07628368182275698,0,0,0.07628368182275698,-122.44392846505596,-41.251237888153355) " id="svg_35"/>
   <g stroke="null" transform="matrix(0.07628368182275698,0,0,0.07628368182275698,-122.44392846505596,-41.251237888153355) " id="svg_36"/>
   <g stroke="null" transform="matrix(0.07628368182275698,0,0,0.07628368182275698,-122.44392846505596,-41.251237888153355) " id="svg_37"/>
   <g stroke="null" transform="matrix(0.07628368182275698,0,0,0.07628368182275698,-122.44392846505596,-41.251237888153355) " id="svg_38"/>
   <g stroke="null" transform="matrix(0.07628368182275698,0,0,0.07628368182275698,-122.44392846505596,-41.251237888153355) " id="svg_39"/>
   <g stroke="null" transform="matrix(0.07628368182275698,0,0,0.07628368182275698,-122.44392846505596,-41.251237888153355) " id="svg_40"/>
   <g stroke="null" transform="matrix(0.07628368182275698,0,0,0.07628368182275698,-122.44392846505596,-41.251237888153355) " id="svg_41"/>
   <g stroke="null" transform="matrix(0.07628368182275698,0,0,0.07628368182275698,-122.44392846505596,-41.251237888153355) " id="svg_42"/>
  </g>
  <text style="cursor: move;" stroke="#27AE60" fill="#f19b40" stroke-width="0" stroke-opacity="null" fill-opacity="null" x="35.6071" y="54.184905" id="svg_6" font-size="14" font-family="Roboto" text-anchor="start" xml:space="preserve" font-weight="bold">Đã đăng ký</text>
  <text transform="matrix(1,0,0,1,0,0) " stroke="#27AE60" fill="#f19b40" stroke-width="0" stroke-opacity="null" fill-opacity="null" x="29.228876" y="70.06015" id="svg_7" font-size="14" font-family="Roboto" text-anchor="start" xml:space="preserve" font-weight="bold">chưa nộp tiền</text>
  <text fill="#f19b40" stroke="#27AE60" stroke-width="0" stroke-opacity="null" fill-opacity="null" x="41.841122" y="85.182033" id="svg_5" font-size="14" font-family="Roboto" text-anchor="start" xml:space="preserve" font-weight="bold">đặt trước</text>
 </g>
</svg>