<svg width="140" height="70" xmlns="http://www.w3.org/2000/svg">
 <defs>
  <style>.cls-1{font-size:18.63px;font-family:Roboto-Bold, Roboto;font-weight:700;}.cls-1,.cls-4{fill:#f19b3f;}.cls-2{fill:#465b65;}.cls-3{fill:#edeff0;}</style>
 </defs>
 <g>
  <title>background</title>
  <rect fill="none" id="canvas_background" height="72" width="142" y="-1" x="-1"/>
 </g>
 <g>
  <title>Layer 1</title>
  <text x="3.466101" y="0" id="svg_1" transform="matrix(0.9399999976158141,0,0,1,16.76764488220215,65.230100274086) " class="cls-1">Chờ đối soát</text>
  <path id="svg_2" d="m80.203202,4.971439l-19,0a2.6,2.6 0 0 0 0,5.2l19,0a2.6,2.6 0 0 0 0,-5.2z" class="cls-2"/>
  <path id="svg_3" d="m80.208164,43.121439l-19,0a0.87,0.87 0 0 1 -0.87,-0.87l0,-7.25a7.82,7.82 0 0 1 2.67,-5.88l3.03,-2.68a0.86,0.86 0 0 0 0.09,-1.22l-0.09,-0.08l-3.07,-2.7a7.85,7.85 0 0 1 -2.67,-5.88l0,-7.26a0.87,0.87 0 0 1 0.91,-0.86l19,0a0.86,0.86 0 0 1 0.86,0.86l0,7.26a7.84,7.84 0 0 1 -2.62,5.88l-3.08,2.69a0.87,0.87 0 0 0 -0.08,1.22l0.08,0.08l3.08,2.69a7.81,7.81 0 0 1 2.66,5.88l0,7.25a0.86,0.86 0 0 1 -0.9,0.87z" class="cls-2"/>
  <path id="svg_4" d="m62.033203,41.441439l17.34,0l0,-6.44a6.05,6.05 0 0 0 -2.08,-4.56l-3.09,-2.7a2.6,2.6 0 0 1 -0.24,-3.67l0.24,-0.25l3.08,-2.69a6.07,6.07 0 0 0 2.08,-4.57l0,-6.39l-17.33,0l0,6.39a6.07,6.07 0 0 0 2.08,4.57l3.09,2.69a2.6,2.6 0 0 1 0.25,3.67a1.88,1.88 0 0 1 -0.25,0.24l-3.09,2.71a6.05,6.05 0 0 0 -2.08,4.57l0,6.43z" class="cls-3"/>
  <path id="svg_5" d="m75.840423,19.381439a0.87,0.87 0 0 0 -0.8,-0.54l-8.67,0a0.87,0.87 0 0 0 -0.62,1.48l4.34,4.34a0.86,0.86 0 0 0 1.22,0l4.34,-4.34a0.86,0.86 0 0 0 0.19,-0.94z" class="cls-4"/>
  <path id="svg_6" d="m80.205736,41.441439l-19,0a2.6,2.6 0 1 0 0,5.2l19,0a2.6,2.6 0 0 0 0,-5.2z" class="cls-2"/>
  <path id="svg_7" d="m71.283203,32.071439a0.87,0.87 0 0 0 -1.19,0l-8.06,8.06l0,1.31l17.34,0l0,-2l-8.09,-7.37z" class="cls-4"/>
 </g>
</svg>