<svg width="14" height="14" viewBox="0 0 14 14" fill="none" xmlns="http://www.w3.org/2000/svg">
<path d="M7.00016 0.333313C3.32016 0.333313 0.333496 3.31998 0.333496 6.99998C0.333496 10.68 3.32016 13.6666 7.00016 13.6666C10.6802 13.6666 13.6668 10.68 13.6668 6.99998C13.6668 3.31998 10.6802 0.333313 7.00016 0.333313ZM3.7135 11.1866C4.00016 10.5866 5.74683 9.99998 7.00016 9.99998C8.2535 9.99998 10.0068 10.5866 10.2868 11.1866C9.38016 11.9066 8.24016 12.3333 7.00016 12.3333C5.76016 12.3333 4.62016 11.9066 3.7135 11.1866ZM11.2402 10.22C10.2868 9.05998 7.9735 8.66665 7.00016 8.66665C6.02683 8.66665 3.7135 9.05998 2.76016 10.22C2.08016 9.32665 1.66683 8.21331 1.66683 6.99998C1.66683 4.05998 4.06016 1.66665 7.00016 1.66665C9.94016 1.66665 12.3335 4.05998 12.3335 6.99998C12.3335 8.21331 11.9202 9.32665 11.2402 10.22ZM7.00016 2.99998C5.70683 2.99998 4.66683 4.03998 4.66683 5.33331C4.66683 6.62665 5.70683 7.66665 7.00016 7.66665C8.2935 7.66665 9.3335 6.62665 9.3335 5.33331C9.3335 4.03998 8.2935 2.99998 7.00016 2.99998ZM7.00016 6.33331C6.44683 6.33331 6.00016 5.88665 6.00016 5.33331C6.00016 4.77998 6.44683 4.33331 7.00016 4.33331C7.5535 4.33331 8.00016 4.77998 8.00016 5.33331C8.00016 5.88665 7.5535 6.33331 7.00016 6.33331Z" fill="#9A9A9A"/>
</svg>
